<?xml version="1.0" encoding="UTF-8"?>
<!DOCTYPE svg PUBLIC "-//W3C//DTD SVG 1.0//EN" "http://www.w3.org/TR/2001/REC-SVG-20010904/DTD/svg10.dtd">
<!-- Creator: CorelDRAW 2019 (64-Bit) -->
<svg xmlns="http://www.w3.org/2000/svg" xml:space="preserve" width="580px" height="259px" version="1.0" style="shape-rendering:geometricPrecision; text-rendering:geometricPrecision; image-rendering:optimizeQuality; fill-rule:evenodd; clip-rule:evenodd"
viewBox="0 0 281.13 125.62"
 xmlns:xlink="http://www.w3.org/1999/xlink"
 xmlns:xodm="http://www.corel.com/coreldraw/odm/2003">
 <defs>
  <style type="text/css">
   <![CDATA[
    .fil0 {fill:#2782C3;fill-rule:nonzero}
    .fil1 {fill:#69BED8;fill-rule:nonzero}
   ]]>
  </style>
 </defs>
 <g id="Text">
  <metadata id="CorelCorpID_0Corel-Layer"/>
  <path class="fil0" d="M30.63 44.98c2.57,0 4.92,-0.38 7.04,-1.13 2.11,-0.76 3.67,-1.5 4.71,-2.23l5.37 10.66c-1.31,1.12 -3.55,2.25 -6.73,3.4 -3.17,1.15 -6.95,1.72 -11.31,1.72 -4.09,0 -7.92,-0.71 -11.5,-2.14 -3.58,-1.43 -6.73,-3.44 -9.45,-6.03 -2.73,-2.58 -4.87,-5.62 -6.42,-9.1 -1.56,-3.49 -2.34,-7.26 -2.34,-11.35 0,-4.08 0.77,-7.88 2.31,-11.39 1.54,-3.52 3.68,-6.56 6.4,-9.17 2.73,-2.6 5.89,-4.63 9.49,-6.07 3.59,-1.44 7.42,-2.15 11.51,-2.15 4.36,0 8.14,0.57 11.31,1.72 3.18,1.15 5.42,2.28 6.73,3.4l-5.37 10.66c-1.04,-0.76 -2.6,-1.51 -4.71,-2.26 -2.12,-0.74 -4.47,-1.1 -7.04,-1.1 -2.85,0 -5.34,0.43 -7.47,1.31 -2.12,0.89 -3.9,2.1 -5.33,3.64 -1.42,1.54 -2.49,3.27 -3.19,5.2 -0.7,1.93 -1.04,3.96 -1.04,6.09 0,2.15 0.34,4.19 1.04,6.14 0.7,1.94 1.77,3.69 3.19,5.23 1.43,1.54 3.21,2.74 5.33,3.62 2.13,0.88 4.62,1.33 7.47,1.33z"/>
  <polygon id="1" class="fil0" points="55.39,1.01 90.76,1.01 90.76,12 67.89,12 67.89,23.29 90.55,23.29 90.55,33.95 67.89,33.95 67.89,45.4 90.76,45.4 90.76,56.39 55.39,56.39 "/>
  <polygon id="2" class="fil0" points="100.58,1.01 113.12,1.01 113.12,45.4 133.22,45.4 133.22,56.39 100.58,56.39 "/>
  <path id="3" class="fil0" d="M161.55 0c3.44,0 6.44,0.38 9.02,1.13 2.57,0.76 4.64,1.56 6.21,2.39 1.56,0.84 2.52,1.4 2.85,1.68l-6.04 10.12c-0.45,-0.34 -1.2,-0.83 -2.28,-1.47 -1.08,-0.65 -2.35,-1.22 -3.82,-1.72 -1.47,-0.51 -3.01,-0.76 -4.6,-0.76 -2.15,0 -3.89,0.38 -5.22,1.15 -1.33,0.77 -2,1.91 -2,3.42 0,1.04 0.37,1.96 1.08,2.79 0.71,0.82 1.8,1.61 3.27,2.35 1.47,0.74 3.33,1.55 5.6,2.42 2.07,0.75 4.01,1.65 5.83,2.68 1.82,1.04 3.43,2.25 4.81,3.67 1.38,1.41 2.48,3.05 3.29,4.89 0.81,1.85 1.21,3.95 1.21,6.3 0,2.79 -0.57,5.21 -1.72,7.27 -1.14,2.06 -2.7,3.76 -4.67,5.11 -1.97,1.34 -4.21,2.33 -6.71,2.99 -2.51,0.66 -5.11,0.99 -7.79,0.99 -3.81,0 -7.21,-0.43 -10.21,-1.3 -3.01,-0.87 -5.44,-1.8 -7.29,-2.81 -1.85,-1.01 -2.95,-1.68 -3.31,-2.01l6.25 -10.54c0.33,0.25 0.99,0.66 1.96,1.22 0.96,0.56 2.14,1.13 3.53,1.73 1.4,0.61 2.9,1.12 4.48,1.54 1.58,0.42 3.13,0.63 4.67,0.63 2.58,0 4.51,-0.5 5.79,-1.49 1.29,-1 1.93,-2.3 1.93,-3.92 0,-1.2 -0.4,-2.28 -1.21,-3.23 -0.82,-0.95 -2.03,-1.86 -3.66,-2.71 -1.62,-0.86 -3.65,-1.75 -6.08,-2.7 -2.43,-0.98 -4.7,-2.17 -6.81,-3.57 -2.11,-1.4 -3.83,-3.15 -5.15,-5.25 -1.31,-2.09 -1.97,-4.7 -1.97,-7.8 0,-3.11 0.88,-5.81 2.63,-8.08 1.75,-2.28 4.06,-4.03 6.92,-5.26 2.87,-1.23 5.93,-1.85 9.21,-1.85z"/>
  <path id="4" class="fil0" d="M220.33 1.01l12.55 0 0 34.03c0,4.56 -0.9,8.5 -2.69,11.84 -1.79,3.35 -4.35,5.93 -7.68,7.77 -3.32,1.83 -7.3,2.75 -11.91,2.75 -4.65,0 -8.65,-0.92 -12,-2.75 -3.36,-1.84 -5.92,-4.42 -7.7,-7.77 -1.77,-3.34 -2.67,-7.28 -2.67,-11.84l0 -34.03 12.51 0 0 33.36c0,2.51 0.4,4.64 1.2,6.37 0.8,1.74 1.93,3.04 3.41,3.92 1.49,0.88 3.23,1.33 5.25,1.33 1.98,0 3.7,-0.45 5.16,-1.33 1.45,-0.88 2.59,-2.18 3.38,-3.92 0.8,-1.73 1.19,-3.86 1.19,-6.37l0 -33.36z"/>
  <path id="5" class="fil0" d="M261.92 0c3.44,0 6.44,0.38 9.02,1.13 2.57,0.76 4.64,1.56 6.21,2.39 1.56,0.84 2.51,1.4 2.85,1.68l-6.04 10.12c-0.45,-0.34 -1.21,-0.83 -2.28,-1.47 -1.08,-0.65 -2.35,-1.22 -3.82,-1.72 -1.47,-0.51 -3.01,-0.76 -4.6,-0.76 -2.16,0 -3.89,0.38 -5.22,1.15 -1.33,0.77 -2,1.91 -2,3.42 0,1.04 0.36,1.96 1.08,2.79 0.71,0.82 1.8,1.61 3.27,2.35 1.47,0.74 3.33,1.55 5.59,2.42 2.07,0.75 4.02,1.65 5.84,2.68 1.82,1.04 3.42,2.25 4.81,3.67 1.38,1.41 2.47,3.05 3.29,4.89 0.81,1.85 1.21,3.95 1.21,6.3 0,2.79 -0.57,5.21 -1.72,7.27 -1.14,2.06 -2.7,3.76 -4.67,5.11 -1.97,1.34 -4.21,2.33 -6.71,2.99 -2.51,0.66 -5.11,0.99 -7.79,0.99 -3.81,0 -7.21,-0.43 -10.21,-1.3 -3.01,-0.87 -5.44,-1.8 -7.29,-2.81 -1.85,-1.01 -2.95,-1.68 -3.32,-2.01l6.26 -10.54c0.33,0.25 0.99,0.66 1.95,1.22 0.97,0.56 2.14,1.13 3.54,1.73 1.4,0.61 2.9,1.12 4.48,1.54 1.58,0.42 3.13,0.63 4.67,0.63 2.57,0 4.5,-0.5 5.79,-1.49 1.29,-1 1.93,-2.3 1.93,-3.92 0,-1.2 -0.4,-2.28 -1.22,-3.23 -0.81,-0.95 -2.02,-1.86 -3.65,-2.71 -1.62,-0.86 -3.65,-1.75 -6.08,-2.7 -2.43,-0.98 -4.7,-2.17 -6.81,-3.57 -2.11,-1.4 -3.83,-3.15 -5.15,-5.25 -1.31,-2.09 -1.97,-4.7 -1.97,-7.8 0,-3.11 0.88,-5.81 2.63,-8.08 1.75,-2.28 4.05,-4.03 6.92,-5.26 2.87,-1.23 5.93,-1.85 9.21,-1.85z"/>
  <path class="fil1" d="M14.51 91.51l-8.26 0c-0.23,0 -0.35,-0.11 -0.35,-0.35l0 -1.46c0,-0.23 0.12,-0.35 0.35,-0.35l2.21 0 0 -16.35 -2.21 0c-0.23,0 -0.35,-0.11 -0.35,-0.35l0 -1.46c0,-0.23 0.12,-0.35 0.35,-0.35l7.77 0c3.18,0 5.72,0.92 7.6,2.75 1.88,1.83 2.82,4.35 2.82,7.56 0,3.2 -0.89,5.73 -2.68,7.58 -1.78,1.85 -4.2,2.78 -7.25,2.78zm-3.54 -2.16l2.85 0c5.33,-0.04 8,-2.75 8,-8.15 0,-2.59 -0.69,-4.6 -2.06,-6.04 -1.37,-1.44 -3.38,-2.16 -6.03,-2.16l-2.76 0 0 16.35z"/>
  <path id="1" class="fil1" d="M74.36 91.51l-2.5 0c-0.69,0 -1.27,-0.46 -1.73,-1.38l-2.7 -5.5c-0.24,-0.48 -0.48,-0.83 -0.74,-1.06 -0.26,-0.23 -0.62,-0.36 -1.08,-0.38l-3.65 0 0 6.16 2.59 0c0.23,0 0.34,0.12 0.34,0.35l0 1.46c0,0.24 -0.11,0.35 -0.34,0.35l-7.29 0c-0.25,0 -0.37,-0.11 -0.37,-0.35l0 -1.46c0,-0.23 0.12,-0.35 0.37,-0.35l2.19 0 0 -16.35 -2.19 0c-0.25,0 -0.37,-0.11 -0.37,-0.35l0 -1.46c0,-0.23 0.12,-0.35 0.37,-0.35l8.87 0c2.05,0 3.72,0.54 5.01,1.63 1.28,1.08 1.93,2.61 1.93,4.59 0,3.01 -1.41,4.89 -4.23,5.64 0.36,0.29 0.81,0.93 1.35,1.93l2.42 4.72 1.75 0c0.23,0 0.35,0.12 0.35,0.35l0 1.46c0,0.24 -0.12,0.35 -0.35,0.35zm-12.4 -10.36l3.68 0c3.26,0 4.89,-1.34 4.89,-4 0,-2.77 -1.63,-4.15 -4.89,-4.15l-3.68 0 0 8.15z"/>
  <path id="2" class="fil1" d="M121.7 84.03l0 -11.03 -2.22 0c-0.23,0 -0.35,-0.11 -0.35,-0.35l0 -1.46c0,-0.23 0.12,-0.35 0.35,-0.35l6.94 0c0.23,0 0.34,0.12 0.34,0.35l0 1.46c0,0.24 -0.11,0.35 -0.34,0.35l-2.22 0 0 10.77c0,2.59 -0.68,4.56 -2.03,5.91 -1.35,1.36 -3.26,2.03 -5.73,2.03 -2.46,0 -4.38,-0.67 -5.74,-2.03 -1.36,-1.35 -2.05,-3.32 -2.05,-5.91l0 -10.77 -2.18 0c-0.25,0 -0.38,-0.11 -0.38,-0.35l0 -1.46c0,-0.23 0.13,-0.35 0.38,-0.35l6.91 0c0.25,0 0.37,0.12 0.37,0.35l0 1.46c0,0.24 -0.12,0.35 -0.37,0.35l-2.22 0 0 10.85c0,3.69 1.76,5.53 5.3,5.53 1.8,0 3.12,-0.47 3.97,-1.42 0.84,-0.95 1.27,-2.26 1.27,-3.93z"/>
  <path id="3" class="fil1" d="M167.21 91.51l-7.51 0c-0.25,0 -0.37,-0.11 -0.37,-0.35l0 -1.46c0,-0.23 0.12,-0.35 0.37,-0.35l2.19 0 0 -16.35 -2.19 0c-0.25,0 -0.37,-0.11 -0.37,-0.35l0 -1.46c0,-0.23 0.12,-0.35 0.37,-0.35l8.87 0c2.03,0 3.7,0.59 4.99,1.77 1.3,1.18 1.94,2.77 1.94,4.78 0,2.01 -0.63,3.56 -1.9,4.66 -1.26,1.11 -3.05,1.66 -5.35,1.66l-3.86 0 0 5.64 2.82 0c0.23,0 0.35,0.12 0.35,0.35l0 1.46c0,0.24 -0.12,0.35 -0.35,0.35zm-2.82 -9.84l3.74 0c3.23,0 4.84,-1.42 4.84,-4.27 0,-1.47 -0.46,-2.58 -1.37,-3.31 -0.91,-0.72 -2.06,-1.09 -3.44,-1.09l-3.77 0 0 8.67z"/>
  <path id="4" class="fil1" d="M225.43 91.51l-6.51 0c-0.23,0 -0.34,-0.11 -0.34,-0.35l0 -1.46c0,-0.23 0.11,-0.35 0.34,-0.35l2.02 0 -1.88 -4.98 -8.03 0 -1.87 4.98 2.02 0c0.23,0 0.34,0.12 0.34,0.35l0 1.46c0,0.24 -0.11,0.35 -0.34,0.35l-6.48 0c-0.23,0 -0.35,-0.11 -0.35,-0.35l0 -1.46c0,-0.23 0.12,-0.35 0.35,-0.35l1.93 0 6.19 -16.35 -1.56 0c-0.25,0 -0.37,-0.11 -0.37,-0.35l0 -1.46c0,-0.23 0.12,-0.35 0.37,-0.35l3.92 0c0.46,0 0.81,0.1 1.05,0.29 0.24,0.19 0.45,0.51 0.62,0.95l6.62 17.27 1.96 0c0.23,0 0.34,0.12 0.34,0.35l0 1.46c0,0.24 -0.11,0.35 -0.34,0.35zm-7.14 -9.13l-3.2 -8.54 -0.08 0 -3.23 8.54 6.51 0z"/>
  <path id="5" class="fil1" d="M273.51 91.51l-15.75 0c-0.25,0 -0.37,-0.11 -0.37,-0.35l0 -1.46c0,-0.23 0.12,-0.35 0.37,-0.35l2.19 0 0 -16.35 -2.19 0c-0.25,0 -0.37,-0.11 -0.37,-0.35l0 -1.46c0,-0.23 0.12,-0.35 0.37,-0.35l6.88 0c0.25,0 0.37,0.13 0.37,0.38l0 1.41c0,0.25 -0.12,0.37 -0.37,0.37l-2.19 0 0 16.35 9.16 0 0 -2.82c0,-0.23 0.12,-0.35 0.37,-0.35l1.56 0c0.23,0 0.34,0.12 0.34,0.35l0 4.61c0,0.25 -0.12,0.37 -0.37,0.37z"/>
  <path class="fil0" d="M8.19 125.42l-1.61 0c-0.25,0 -0.38,-0.12 -0.38,-0.35l0 -6.73c0,-0.25 0.13,-0.38 0.38,-0.38l1.81 0c0.23,0 0.35,0.13 0.35,0.38l0 0.6c0,0.37 0.22,0.85 0.66,1.45 0.44,0.61 0.88,1.1 1.32,1.49 0.44,0.38 1.03,0.71 1.77,0.99 0.74,0.28 1.54,0.42 2.41,0.42 1.47,0 2.63,-0.31 3.47,-0.92 0.83,-0.62 1.25,-1.47 1.25,-2.57 0,-0.63 -0.24,-1.17 -0.71,-1.62 -0.47,-0.45 -1.08,-0.81 -1.83,-1.08 -0.74,-0.27 -1.57,-0.52 -2.49,-0.75 -0.91,-0.23 -1.82,-0.49 -2.73,-0.79 -0.91,-0.3 -1.74,-0.65 -2.49,-1.07 -0.75,-0.41 -1.36,-0.99 -1.83,-1.72 -0.47,-0.74 -0.7,-1.61 -0.7,-2.61 0,-1.61 0.61,-2.94 1.82,-4 1.22,-1.06 2.86,-1.58 4.91,-1.58 2.59,0 4.49,0.75 5.7,2.27l-0.05 -1.78c0,-0.23 0.12,-0.35 0.37,-0.35l1.61 0c0.23,0 0.35,0.12 0.35,0.35l0 6.27c0,0.23 -0.12,0.35 -0.35,0.35l-1.81 0c-0.23,0 -0.35,-0.12 -0.35,-0.35l0 -0.8c0,-0.79 -0.44,-1.59 -1.32,-2.39 -0.88,-0.81 -2.18,-1.21 -3.89,-1.21 -1.26,0 -2.29,0.3 -3.06,0.9 -0.78,0.61 -1.17,1.38 -1.17,2.32 0,0.67 0.24,1.25 0.72,1.73 0.48,0.48 1.1,0.86 1.87,1.15 0.77,0.29 1.61,0.55 2.53,0.79 0.93,0.24 1.85,0.5 2.77,0.79 0.92,0.29 1.76,0.64 2.53,1.04 0.77,0.4 1.39,0.95 1.87,1.65 0.48,0.7 0.72,1.53 0.72,2.49 0,1.69 -0.6,3.08 -1.81,4.18 -1.21,1.09 -3.01,1.64 -5.41,1.64 -1.77,0 -3.23,-0.36 -4.38,-1.07 -1.15,-0.71 -1.99,-1.47 -2.5,-2.3l0.03 2.82c0,0.23 -0.12,0.35 -0.35,0.35z"/>
  <path id="1" class="fil0" d="M39.46 117.93l0 -11.02 -2.22 0c-0.23,0 -0.34,-0.12 -0.34,-0.35l0 -1.47c0,-0.23 0.11,-0.34 0.34,-0.34l6.94 0c0.23,0 0.34,0.11 0.34,0.34l0 1.47c0,0.23 -0.11,0.35 -0.34,0.35l-2.22 0 0 10.76c0,2.6 -0.67,4.57 -2.03,5.92 -1.35,1.35 -3.26,2.03 -5.73,2.03 -2.46,0 -4.38,-0.68 -5.74,-2.03 -1.36,-1.35 -2.04,-3.32 -2.04,-5.92l0 -10.76 -2.19 0c-0.25,0 -0.37,-0.12 -0.37,-0.35l0 -1.47c0,-0.23 0.12,-0.34 0.37,-0.34l6.91 0c0.25,0 0.37,0.11 0.37,0.34l0 1.47c0,0.23 -0.12,0.35 -0.37,0.35l-2.22 0 0 10.85c0,3.68 1.77,5.53 5.3,5.53 1.8,0 3.13,-0.48 3.97,-1.43 0.85,-0.95 1.27,-2.26 1.27,-3.93z"/>
  <path id="2" class="fil0" d="M63.36 125.42l-1.56 0c-0.36,0 -0.65,-0.07 -0.86,-0.22 -0.21,-0.14 -0.41,-0.37 -0.61,-0.67l-8.31 -13.02 -1.44 -2.41 -0.06 0 0 14.16 2.21 0c0.25,0 0.38,0.11 0.38,0.34l0 1.47c0,0.23 -0.13,0.35 -0.38,0.35l-6.9 0c-0.25,0 -0.38,-0.12 -0.38,-0.35l0 -1.47c0,-0.23 0.13,-0.34 0.38,-0.34l2.18 0 0 -16.35 -2.18 0c-0.25,0 -0.38,-0.12 -0.38,-0.35l0 -1.47c0,-0.23 0.13,-0.34 0.38,-0.34l4.03 0c0.55,0 1.04,0.33 1.46,0.98l8.21 12.84 1.64 2.79 0.06 0 0 -14.45 -2.22 0c-0.23,0 -0.35,-0.12 -0.35,-0.35l0 -1.47c0,-0.23 0.12,-0.34 0.35,-0.34l6.94 0c0.23,0 0.34,0.11 0.34,0.34l0 1.47c0,0.23 -0.11,0.35 -0.34,0.35l-2.22 0 0 18.16c0,0.23 -0.12,0.35 -0.37,0.35z"/>
  <path id="3" class="fil0" d="M83.05 117.93l0 -11.02 -2.21 0c-0.23,0 -0.35,-0.12 -0.35,-0.35l0 -1.47c0,-0.23 0.12,-0.34 0.35,-0.34l6.93 0c0.23,0 0.35,0.11 0.35,0.34l0 1.47c0,0.23 -0.12,0.35 -0.35,0.35l-2.21 0 0 10.76c0,2.6 -0.68,4.57 -2.03,5.92 -1.36,1.35 -3.26,2.03 -5.73,2.03 -2.47,0 -4.38,-0.68 -5.74,-2.03 -1.37,-1.35 -2.05,-3.32 -2.05,-5.92l0 -10.76 -2.19 0c-0.24,0 -0.37,-0.12 -0.37,-0.35l0 -1.47c0,-0.23 0.13,-0.34 0.37,-0.34l6.91 0c0.25,0 0.38,0.11 0.38,0.34l0 1.47c0,0.23 -0.13,0.35 -0.38,0.35l-2.21 0 0 10.85c0,3.68 1.76,5.53 5.29,5.53 1.81,0 3.13,-0.48 3.98,-1.43 0.84,-0.95 1.26,-2.26 1.26,-3.93z"/>
  <path id="4" class="fil0" d="M112.39 125.42l-6.65 0c-0.23,0 -0.34,-0.12 -0.34,-0.35l0 -1.47c0,-0.23 0.11,-0.34 0.34,-0.34l1.93 0 0 -14.34 -0.03 0 -5.47 13.59c-0.23,0.58 -0.65,0.86 -1.26,0.86 -0.62,0 -1.04,-0.28 -1.27,-0.86l-5.47 -13.59 -0.06 0 0 14.34 1.93 0c0.25,0 0.38,0.11 0.38,0.34l0 1.47c0,0.23 -0.13,0.35 -0.38,0.35l-6.62 0c-0.25,0 -0.37,-0.12 -0.37,-0.35l0 -1.47c0,-0.23 0.12,-0.34 0.37,-0.34l2.19 0 0 -16.35 -2.19 0c-0.25,0 -0.37,-0.12 -0.37,-0.35l0 -1.47c0,-0.23 0.12,-0.34 0.37,-0.34l4.43 0c0.66,0 1.11,0.33 1.36,0.98l4.29 10.36 1.35 3.63 0.11 0c0.54,-1.5 0.98,-2.69 1.33,-3.57l4.32 -10.42c0.25,-0.65 0.71,-0.98 1.38,-0.98l4.4 0c0.23,0 0.35,0.11 0.35,0.34l0 1.47c0,0.23 -0.12,0.35 -0.35,0.35l-2.21 0 0 16.35 2.21 0c0.23,0 0.35,0.11 0.35,0.34l0 1.47c0,0.23 -0.12,0.35 -0.35,0.35z"/>
  <path id="5" class="fil0" d="M139.14 125.42l-15.28 0c-0.25,0 -0.38,-0.12 -0.38,-0.35l0 -1.47c0,-0.23 0.13,-0.34 0.38,-0.34l2.18 0 0 -16.35 -2.18 0c-0.25,0 -0.38,-0.12 -0.38,-0.35l0 -1.47c0,-0.23 0.13,-0.34 0.38,-0.34l15.28 0c0.25,0 0.38,0.11 0.38,0.34l0 4.64c0,0.25 -0.13,0.37 -0.38,0.37l-1.55 0c-0.23,0 -0.35,-0.12 -0.35,-0.37l0 -2.82 -8.69 0 0 7.14 7.28 0c0.25,0 0.38,0.11 0.38,0.34l0 1.47c0,0.23 -0.13,0.35 -0.38,0.35l-7.28 0 0 7.05 8.66 0 0 -2.82c0,-0.23 0.13,-0.35 0.38,-0.35l1.55 0c0.25,0 0.38,0.12 0.38,0.35l0 4.63c0,0.23 -0.13,0.35 -0.38,0.35z"/>
  <path id="6" class="fil0" d="M160.08 125.42l-2.51 0c-0.69,0 -1.27,-0.46 -1.73,-1.38l-2.7 -5.5c-0.16,-0.31 -0.29,-0.55 -0.42,-0.72 -0.12,-0.17 -0.39,-0.35 -0.81,-0.52 -0.41,-0.17 -0.92,-0.26 -1.54,-0.26l-4.05 0 0 6.22 2.64 0c0.25,0 0.38,0.11 0.38,0.34l0 1.47c0,0.23 -0.13,0.35 -0.38,0.35l-7.34 0c-0.25,0 -0.37,-0.12 -0.37,-0.35l0 -1.47c0,-0.23 0.12,-0.34 0.37,-0.34l2.19 0 0 -16.35 -2.19 0c-0.25,0 -0.37,-0.12 -0.37,-0.35l0 -1.47c0,-0.23 0.12,-0.34 0.37,-0.34l6.45 0c0.23,0 0.35,0.11 0.35,0.34l0 1.47c0,0.23 -0.12,0.35 -0.35,0.35l-1.75 0 0 8.09 3.02 0c2.03,0 3.54,-0.6 4.53,-1.8 0.99,-1.2 1.48,-3.3 1.48,-6.29l-1.95 0c-0.23,0 -0.35,-0.12 -0.35,-0.35l0 -1.47c0,-0.23 0.12,-0.34 0.35,-0.34l6.42 0c0.23,0 0.34,0.11 0.34,0.34l0 1.47c0,0.23 -0.11,0.35 -0.34,0.35l-1.99 0c0,4.62 -1.3,7.65 -3.92,9.07 0.45,0.21 0.79,0.48 1.04,0.82 0.25,0.33 0.54,0.83 0.87,1.48l2.5 4.98 1.76 0c0.23,0 0.34,0.11 0.34,0.34l0 1.47c0,0.23 -0.11,0.35 -0.34,0.35z"/>
  <path id="7" class="fil0" d="M177.38 125.42l-15.74 0c-0.25,0 -0.38,-0.12 -0.38,-0.35l0 -1.47c0,-0.23 0.13,-0.34 0.38,-0.34l2.18 0 0 -16.35 -2.18 0c-0.25,0 -0.38,-0.12 -0.38,-0.35l0 -1.47c0,-0.23 0.13,-0.34 0.38,-0.34l6.88 0c0.25,0 0.37,0.12 0.37,0.37l0 1.41c0,0.25 -0.12,0.38 -0.37,0.38l-2.19 0 0 16.35 9.15 0 0 -2.82c0,-0.23 0.13,-0.35 0.38,-0.35l1.55 0c0.23,0 0.35,0.12 0.35,0.35l0 4.6c0,0.25 -0.13,0.38 -0.38,0.38z"/>
  <path id="8" class="fil0" d="M194.06 125.42l-15.29 0c-0.25,0 -0.37,-0.12 -0.37,-0.35l0 -1.47c0,-0.23 0.12,-0.34 0.37,-0.34l2.19 0 0 -16.35 -2.19 0c-0.25,0 -0.37,-0.12 -0.37,-0.35l0 -1.47c0,-0.23 0.12,-0.34 0.37,-0.34l15.29 0c0.24,0 0.37,0.11 0.37,0.34l0 4.64c0,0.25 -0.13,0.37 -0.37,0.37l-1.56 0c-0.23,0 -0.34,-0.12 -0.34,-0.37l0 -2.82 -8.7 0 0 7.14 7.29 0c0.24,0 0.37,0.11 0.37,0.34l0 1.47c0,0.23 -0.13,0.35 -0.37,0.35l-7.29 0 0 7.05 8.67 0 0 -2.82c0,-0.23 0.12,-0.35 0.37,-0.35l1.56 0c0.24,0 0.37,0.12 0.37,0.35l0 4.63c0,0.23 -0.13,0.35 -0.37,0.35z"/>
  <path id="9" class="fil0" d="M214.07 125.42l-1.56 0c-0.36,0 -0.65,-0.07 -0.86,-0.22 -0.21,-0.14 -0.41,-0.37 -0.6,-0.67l-8.32 -13.02 -1.44 -2.41 -0.06 0 0 14.16 2.22 0c0.25,0 0.37,0.11 0.37,0.34l0 1.47c0,0.23 -0.12,0.35 -0.37,0.35l-6.91 0c-0.25,0 -0.38,-0.12 -0.38,-0.35l0 -1.47c0,-0.23 0.13,-0.34 0.38,-0.34l2.18 0 0 -16.35 -2.18 0c-0.25,0 -0.38,-0.12 -0.38,-0.35l0 -1.47c0,-0.23 0.13,-0.34 0.38,-0.34l4.03 0c0.55,0 1.04,0.33 1.47,0.98l8.2 12.84 1.64 2.79 0.06 0 0 -14.45 -2.22 0c-0.23,0 -0.34,-0.12 -0.34,-0.35l0 -1.47c0,-0.23 0.11,-0.34 0.34,-0.34l6.94 0c0.23,0 0.34,0.11 0.34,0.34l0 1.47c0,0.23 -0.11,0.35 -0.34,0.35l-2.22 0 0 18.16c0,0.23 -0.12,0.35 -0.37,0.35z"/>
  <path id="10" class="fil0" d="M230.6 125.42l-6.71 0c-0.25,0 -0.37,-0.13 -0.37,-0.38l0 -1.41c0,-0.25 0.12,-0.37 0.37,-0.37l2.19 0 0 -16.35 -5.44 0 0 3.05c0,0.27 -0.14,0.4 -0.41,0.4l-1.61 0c-0.27,0 -0.4,-0.13 -0.4,-0.4l0 -4.84c0,-0.25 0.13,-0.37 0.4,-0.37l17.36 0c0.27,0 0.4,0.12 0.4,0.37l0 4.84c0,0.27 -0.13,0.4 -0.4,0.4l-1.64 0c-0.25,0 -0.37,-0.13 -0.37,-0.4l0 -3.05 -5.39 0 0 16.35 2.02 0c0.27,0 0.4,0.12 0.4,0.37l0 1.41c0,0.25 -0.13,0.38 -0.4,0.38z"/>
  <path id="11" class="fil0" d="M245.4 125.42l-6.91 0c-0.25,0 -0.37,-0.12 -0.37,-0.35l0 -1.47c0,-0.23 0.12,-0.34 0.37,-0.34l2.19 0 0 -16.35 -2.19 0c-0.25,0 -0.37,-0.12 -0.37,-0.35l0 -1.47c0,-0.23 0.12,-0.34 0.37,-0.34l6.91 0c0.25,0 0.37,0.11 0.37,0.34l0 1.47c0,0.23 -0.12,0.35 -0.37,0.35l-2.22 0 0 16.35 2.22 0c0.25,0 0.37,0.11 0.37,0.34l0 1.47c0,0.23 -0.12,0.35 -0.37,0.35zm-2.36 -25.38c0.29,0.3 0.43,0.66 0.43,1.08 0,0.42 -0.14,0.78 -0.43,1.07 -0.29,0.28 -0.64,0.43 -1.07,0.43 -0.42,0 -0.77,-0.15 -1.06,-0.43 -0.29,-0.29 -0.43,-0.65 -0.43,-1.07 0,-0.42 0.14,-0.78 0.43,-1.08 0.29,-0.3 0.64,-0.44 1.06,-0.44 0.43,0 0.78,0.14 1.07,0.44z"/>
  <path id="12" class="fil0" d="M249.49 125.42l-1.61 0c-0.25,0 -0.37,-0.12 -0.37,-0.35l0 -6.73c0,-0.25 0.12,-0.38 0.37,-0.38l1.81 0c0.23,0 0.35,0.13 0.35,0.38l0 0.6c0,0.37 0.22,0.85 0.66,1.45 0.44,0.61 0.88,1.1 1.33,1.49 0.44,0.38 1.03,0.71 1.77,0.99 0.74,0.28 1.54,0.42 2.4,0.42 1.48,0 2.63,-0.31 3.47,-0.92 0.83,-0.62 1.25,-1.47 1.25,-2.57 0,-0.63 -0.23,-1.17 -0.7,-1.62 -0.47,-0.45 -1.08,-0.81 -1.83,-1.08 -0.75,-0.27 -1.58,-0.52 -2.49,-0.75 -0.91,-0.23 -1.83,-0.49 -2.74,-0.79 -0.91,-0.3 -1.74,-0.65 -2.49,-1.07 -0.75,-0.41 -1.35,-0.99 -1.82,-1.72 -0.48,-0.74 -0.71,-1.61 -0.71,-2.61 0,-1.61 0.61,-2.94 1.83,-4 1.22,-1.06 2.85,-1.58 4.91,-1.58 2.59,0 4.49,0.75 5.7,2.27l-0.06 -1.78c0,-0.23 0.12,-0.35 0.37,-0.35l1.61 0c0.24,0 0.35,0.12 0.35,0.35l0 6.27c0,0.23 -0.11,0.35 -0.35,0.35l-1.81 0c-0.23,0 -0.34,-0.12 -0.34,-0.35l0 -0.8c0,-0.79 -0.45,-1.59 -1.33,-2.39 -0.88,-0.81 -2.18,-1.21 -3.89,-1.21 -1.26,0 -2.28,0.3 -3.06,0.9 -0.78,0.61 -1.17,1.38 -1.17,2.32 0,0.67 0.24,1.25 0.72,1.73 0.48,0.48 1.11,0.86 1.87,1.15 0.77,0.29 1.62,0.55 2.54,0.79 0.92,0.24 1.84,0.5 2.76,0.79 0.92,0.29 1.77,0.64 2.53,1.04 0.77,0.4 1.4,0.95 1.88,1.65 0.48,0.7 0.71,1.53 0.71,2.49 0,1.69 -0.6,3.08 -1.81,4.18 -1.21,1.09 -3.01,1.64 -5.41,1.64 -1.77,0 -3.22,-0.36 -4.38,-1.07 -1.15,-0.71 -1.98,-1.47 -2.5,-2.3l0.03 2.82c0,0.23 -0.12,0.35 -0.35,0.35z"/>
  <path id="13" class="fil0" d="M272.73 125.42l-6.91 0c-0.25,0 -0.37,-0.12 -0.37,-0.35l0 -1.47c0,-0.23 0.12,-0.34 0.37,-0.34l2.19 0 0 -16.35 -2.19 0c-0.25,0 -0.37,-0.12 -0.37,-0.35l0 -1.47c0,-0.23 0.12,-0.34 0.37,-0.34l6.91 0c0.25,0 0.37,0.11 0.37,0.34l0 1.47c0,0.23 -0.12,0.35 -0.37,0.35l-2.22 0 0 16.35 2.22 0c0.25,0 0.37,0.11 0.37,0.34l0 1.47c0,0.23 -0.12,0.35 -0.37,0.35zm-2.36 -25.38c0.29,0.3 0.43,0.66 0.43,1.08 0,0.42 -0.14,0.78 -0.43,1.07 -0.29,0.28 -0.64,0.43 -1.07,0.43 -0.42,0 -0.77,-0.15 -1.06,-0.43 -0.29,-0.29 -0.43,-0.65 -0.43,-1.07 0,-0.42 0.14,-0.78 0.43,-1.08 0.29,-0.3 0.64,-0.44 1.06,-0.44 0.43,0 0.78,0.14 1.07,0.44z"/>
 </g>
</svg>
