<?xml version="1.0" encoding="UTF-8"?>
<!DOCTYPE svg PUBLIC "-//W3C//DTD SVG 1.0//EN" "http://www.w3.org/TR/2001/REC-SVG-20010904/DTD/svg10.dtd">
<!-- Creator: CorelDRAW 2019 (64-Bit) -->
<svg xmlns="http://www.w3.org/2000/svg" xml:space="preserve" width="580px" height="259px" version="1.0" style="shape-rendering:geometricPrecision; text-rendering:geometricPrecision; image-rendering:optimizeQuality; fill-rule:evenodd; clip-rule:evenodd"
viewBox="0 0 552.07 246.68"
 xmlns:xlink="http://www.w3.org/1999/xlink"
 xmlns:xodm="http://www.corel.com/coreldraw/odm/2003">
 <defs>
  <style type="text/css">
   <![CDATA[
    .fil0 {fill:#2782C3;fill-rule:nonzero}
    .fil1 {fill:#69BED8;fill-rule:nonzero}
   ]]>
  </style>
 </defs>
 <g id="Text">
  <metadata id="CorelCorpID_0Corel-Layer"/>
  <path class="fil0" d="M60.15 88.33c5.06,0 9.67,-0.74 13.82,-2.22 4.14,-1.49 7.22,-2.94 9.25,-4.37l10.55 20.93c-2.58,2.2 -6.98,4.42 -13.21,6.67 -6.24,2.26 -13.65,3.38 -22.22,3.38 -8.02,0 -15.55,-1.4 -22.58,-4.2 -7.03,-2.8 -13.21,-6.76 -18.57,-11.84 -5.35,-5.08 -9.55,-11.04 -12.6,-17.88 -3.05,-6.84 -4.59,-14.25 -4.59,-22.27 0,-8.02 1.51,-15.5 4.53,-22.39 3.02,-6.89 7.23,-12.88 12.58,-17.99 5.36,-5.11 11.57,-9.09 18.62,-11.92 7.06,-2.83 14.59,-4.23 22.61,-4.23 8.57,0 15.98,1.13 22.22,3.38 6.23,2.25 10.63,4.48 13.21,6.67l-10.55 20.93c-2.03,-1.48 -5.11,-2.96 -9.25,-4.42 -4.15,-1.46 -8.76,-2.17 -13.82,-2.17 -5.6,0 -10.49,0.85 -14.67,2.58 -4.17,1.73 -7.66,4.12 -10.46,7.14 -2.8,3.02 -4.89,6.43 -6.26,10.22 -1.38,3.79 -2.06,7.77 -2.06,11.95 0,4.23 0.68,8.24 2.06,12.06 1.37,3.81 3.46,7.25 6.26,10.27 2.8,3.02 6.29,5.38 10.46,7.11 4.18,1.73 9.07,2.61 14.67,2.61z"/>
  <polygon id="1" class="fil0" points="108.77,1.98 178.23,1.98 178.23,23.57 133.32,23.57 133.32,45.73 177.82,45.73 177.82,66.66 133.32,66.66 133.32,89.16 178.23,89.16 178.23,110.74 108.77,110.74 "/>
  <polygon id="2" class="fil0" points="197.51,1.98 222.15,1.98 222.15,89.16 261.62,89.16 261.62,110.74 197.51,110.74 "/>
  <path id="3" class="fil0" d="M317.24 0c6.75,0 12.66,0.74 17.71,2.22 5.06,1.49 9.12,3.05 12.2,4.7 3.07,1.65 4.94,2.75 5.6,3.3l-11.87 19.86c-0.87,-0.66 -2.36,-1.62 -4.47,-2.89 -2.12,-1.26 -4.62,-2.39 -7.5,-3.38 -2.89,-0.99 -5.91,-1.48 -9.04,-1.48 -4.23,0 -7.63,0.74 -10.24,2.25 -2.61,1.51 -3.93,3.77 -3.93,6.73 0,2.03 0.71,3.85 2.11,5.47 1.41,1.62 3.55,3.16 6.43,4.61 2.89,1.46 6.54,3.05 10.99,4.75 4.06,1.49 7.88,3.24 11.45,5.28 3.57,2.03 6.73,4.42 9.45,7.19 2.72,2.78 4.86,5.99 6.45,9.62 1.6,3.62 2.39,7.74 2.39,12.36 0,5.49 -1.12,10.24 -3.37,14.28 -2.26,4.04 -5.31,7.39 -9.18,10.02 -3.87,2.64 -8.27,4.59 -13.18,5.88 -4.92,1.29 -10.03,1.95 -15.3,1.95 -7.47,0 -14.15,-0.85 -20.05,-2.55 -5.91,-1.71 -10.68,-3.55 -14.31,-5.52 -3.63,-1.98 -5.8,-3.3 -6.51,-3.96l12.28 -20.68c0.66,0.49 1.95,1.29 3.84,2.39 1.9,1.1 4.2,2.22 6.95,3.4 2.75,1.19 5.69,2.2 8.79,3.03 3.1,0.82 6.15,1.23 9.17,1.23 5.06,0 8.85,-0.99 11.37,-2.94 2.53,-1.95 3.8,-4.5 3.8,-7.69 0,-2.36 -0.8,-4.47 -2.39,-6.34 -1.6,-1.87 -3.99,-3.66 -7.17,-5.33 -3.19,-1.68 -7.17,-3.43 -11.95,-5.3 -4.78,-1.92 -9.23,-4.26 -13.38,-7.01 -4.14,-2.74 -7.52,-6.18 -10.1,-10.3 -2.59,-4.12 -3.88,-9.22 -3.88,-15.32 0,-6.1 1.73,-11.4 5.17,-15.88 3.43,-4.47 7.96,-7.91 13.59,-10.32 5.63,-2.42 11.65,-3.63 18.08,-3.63z"/>
  <path id="4" class="fil0" d="M432.68 1.98l24.63 0 0 66.82c0,8.96 -1.75,16.7 -5.27,23.27 -3.52,6.56 -8.54,11.64 -15.08,15.24 -6.54,3.6 -14.34,5.41 -23.4,5.41 -9.12,0 -16.97,-1.81 -23.57,-5.41 -6.59,-3.6 -11.61,-8.68 -15.1,-15.24 -3.49,-6.57 -5.25,-14.31 -5.25,-23.27l0 -66.82 24.56 0 0 65.5c0,4.95 0.79,9.12 2.36,12.53 1.56,3.4 3.79,5.96 6.7,7.69 2.91,1.73 6.34,2.61 10.3,2.61 3.9,0 7.28,-0.88 10.13,-2.61 2.86,-1.73 5.09,-4.29 6.65,-7.69 1.57,-3.41 2.34,-7.58 2.34,-12.53l0 -65.5z"/>
  <path id="5" class="fil0" d="M514.33 0c6.76,0 12.67,0.74 17.72,2.22 5.05,1.49 9.12,3.05 12.2,4.7 3.07,1.65 4.94,2.75 5.6,3.3l-11.87 19.86c-0.88,-0.66 -2.36,-1.62 -4.47,-2.89 -2.12,-1.26 -4.62,-2.39 -7.5,-3.38 -2.89,-0.99 -5.91,-1.48 -9.04,-1.48 -4.23,0 -7.64,0.74 -10.24,2.25 -2.61,1.51 -3.93,3.77 -3.93,6.73 0,2.03 0.71,3.85 2.11,5.47 1.4,1.62 3.55,3.16 6.43,4.61 2.88,1.46 6.54,3.05 10.99,4.75 4.06,1.49 7.88,3.24 11.45,5.28 3.57,2.03 6.73,4.42 9.45,7.19 2.72,2.78 4.86,5.99 6.45,9.62 1.6,3.62 2.39,7.74 2.39,12.36 0,5.49 -1.12,10.24 -3.37,14.28 -2.26,4.04 -5.31,7.39 -9.18,10.02 -3.87,2.64 -8.27,4.59 -13.18,5.88 -4.92,1.29 -10.03,1.95 -15.3,1.95 -7.47,0 -14.15,-0.85 -20.05,-2.55 -5.91,-1.71 -10.69,-3.55 -14.31,-5.52 -3.63,-1.98 -5.8,-3.3 -6.51,-3.96l12.27 -20.68c0.66,0.49 1.96,1.29 3.85,2.39 1.9,1.1 4.2,2.22 6.95,3.4 2.75,1.19 5.68,2.2 8.79,3.03 3.1,0.82 6.15,1.23 9.17,1.23 5.06,0 8.85,-0.99 11.37,-2.94 2.53,-1.95 3.79,-4.5 3.79,-7.69 0,-2.36 -0.79,-4.47 -2.39,-6.34 -1.59,-1.87 -3.98,-3.66 -7.17,-5.33 -3.18,-1.68 -7.16,-3.43 -11.94,-5.3 -4.78,-1.92 -9.23,-4.26 -13.38,-7.01 -4.15,-2.74 -7.52,-6.18 -10.11,-10.3 -2.58,-4.12 -3.87,-9.22 -3.87,-15.32 0,-6.1 1.73,-11.4 5.17,-15.88 3.43,-4.47 7.96,-7.91 13.59,-10.32 5.63,-2.42 11.65,-3.63 18.07,-3.63z"/>
  <path class="fil1" d="M28.27 179.7l-16.23 0c-0.45,0 -0.68,-0.22 -0.68,-0.68l0 -2.88c0,-0.45 0.23,-0.68 0.68,-0.68l4.36 0 0 -32.11 -4.36 0c-0.45,0 -0.68,-0.22 -0.68,-0.67l0 -2.89c0,-0.45 0.23,-0.68 0.68,-0.68l15.27 0c6.25,0 11.23,1.8 14.92,5.4 3.69,3.6 5.54,8.55 5.54,14.84 0,6.3 -1.75,11.26 -5.26,14.9 -3.5,3.64 -8.25,5.45 -14.24,5.45zm-6.96 -4.24l5.6 0c10.48,-0.07 15.72,-5.4 15.72,-15.99 0,-5.09 -1.35,-9.05 -4.04,-11.88 -2.7,-2.82 -6.65,-4.24 -11.85,-4.24l-5.43 0 0 32.11z"/>
  <path id="1" class="fil1" d="M95.29 179.7l-12.78 0c-0.45,0 -0.68,-0.22 -0.68,-0.68l0 -2.88c0,-0.45 0.23,-0.68 0.68,-0.68l3.96 0 -3.68 -9.78 -15.77 0 -3.67 9.78 3.96 0c0.45,0 0.67,0.23 0.67,0.68l0 2.88c0,0.46 -0.22,0.68 -0.67,0.68l-12.72 0c-0.46,0 -0.68,-0.22 -0.68,-0.68l0 -2.88c0,-0.45 0.22,-0.68 0.68,-0.68l3.78 0 12.16 -32.11 -3.05 0c-0.49,0 -0.74,-0.22 -0.74,-0.67l0 -2.89c0,-0.45 0.25,-0.68 0.74,-0.68l7.68 0c0.91,0 1.6,0.19 2.07,0.57 0.47,0.38 0.87,1 1.21,1.87l13 33.91 3.85 0c0.45,0 0.68,0.23 0.68,0.68l0 2.88c0,0.46 -0.23,0.68 -0.68,0.68zm-14.02 -17.92l-6.28 -16.79 -0.17 0 -6.33 16.79 12.78 0z"/>
  <path id="2" class="fil1" d="M122.79 179.7l-13.17 0c-0.49,0 -0.73,-0.24 -0.73,-0.73l0 -2.77c0,-0.49 0.24,-0.74 0.73,-0.74l4.3 0 0 -32.11 -10.68 0 0 6c0,0.52 -0.27,0.79 -0.8,0.79l-3.16 0c-0.53,0 -0.79,-0.27 -0.79,-0.79l0 -9.5c0,-0.49 0.26,-0.74 0.79,-0.74l34.09 0c0.52,0 0.79,0.25 0.79,0.74l0 9.5c0,0.52 -0.27,0.79 -0.79,0.79l-3.23 0c-0.49,0 -0.73,-0.27 -0.73,-0.79l0 -6 -10.57 0 0 32.11 3.95 0c0.53,0 0.8,0.25 0.8,0.74l0 2.77c0,0.49 -0.27,0.73 -0.8,0.73z"/>
  <path id="3" class="fil1" d="M177.04 179.7l-30.02 0c-0.49,0 -0.73,-0.22 -0.73,-0.68l0 -2.88c0,-0.45 0.24,-0.68 0.73,-0.68l4.3 0 0 -32.11 -4.3 0c-0.49,0 -0.73,-0.22 -0.73,-0.67l0 -2.89c0,-0.45 0.24,-0.68 0.73,-0.68l30.02 0c0.49,0 0.73,0.23 0.73,0.68l0 9.1c0,0.49 -0.24,0.74 -0.73,0.74l-3.05 0c-0.46,0 -0.68,-0.25 -0.68,-0.74l0 -5.54 -17.07 0 0 14.02 14.3 0c0.49,0 0.73,0.23 0.73,0.68l0 2.89c0,0.45 -0.24,0.67 -0.73,0.67l-14.3 0 0 13.85 17.01 0 0 -5.54c0,-0.45 0.25,-0.67 0.74,-0.67l3.05 0c0.49,0 0.73,0.22 0.73,0.67l0 9.1c0,0.46 -0.24,0.68 -0.73,0.68z"/>
  <path id="4" class="fil1" d="M225.46 179.7l-3.05 0c-0.72,0 -1.28,-0.14 -1.7,-0.42 -0.41,-0.28 -0.81,-0.73 -1.18,-1.33l-16.34 -25.55 -2.83 -4.75 -0.11 0 0 27.81 4.35 0c0.49,0 0.74,0.23 0.74,0.68l0 2.88c0,0.46 -0.25,0.68 -0.74,0.68l-13.57 0c-0.49,0 -0.73,-0.22 -0.73,-0.68l0 -2.88c0,-0.45 0.24,-0.68 0.73,-0.68l4.3 0 0 -32.11 -4.3 0c-0.49,0 -0.73,-0.22 -0.73,-0.67l0 -2.89c0,-0.45 0.24,-0.68 0.73,-0.68l7.92 0c1.09,0 2.05,0.65 2.88,1.93l16.11 25.21 3.23 5.48 0.11 0 0 -28.38 -4.35 0c-0.46,0 -0.68,-0.22 -0.68,-0.67l0 -2.89c0,-0.45 0.22,-0.68 0.68,-0.68l13.62 0c0.45,0 0.68,0.23 0.68,0.68l0 2.89c0,0.45 -0.23,0.67 -0.68,0.67l-4.35 0 0 35.67c0,0.46 -0.25,0.68 -0.74,0.68z"/>
  <path id="5" class="fil1" d="M280.38 179.7l-12.77 0c-0.45,0 -0.68,-0.22 -0.68,-0.68l0 -2.88c0,-0.45 0.23,-0.68 0.68,-0.68l3.95 0 -3.67 -9.78 -15.77 0 -3.68 9.78 3.96 0c0.45,0 0.68,0.23 0.68,0.68l0 2.88c0,0.46 -0.23,0.68 -0.68,0.68l-12.72 0c-0.45,0 -0.68,-0.22 -0.68,-0.68l0 -2.88c0,-0.45 0.23,-0.68 0.68,-0.68l3.79 0 12.15 -32.11 -3.05 0c-0.49,0 -0.73,-0.22 -0.73,-0.67l0 -2.89c0,-0.45 0.24,-0.68 0.73,-0.68l7.69 0c0.9,0 1.59,0.19 2.06,0.57 0.47,0.38 0.88,1 1.22,1.87l13 33.91 3.84 0c0.46,0 0.68,0.23 0.68,0.68l0 2.88c0,0.46 -0.22,0.68 -0.68,0.68zm-14.02 -17.92l-6.27 -16.79 -0.17 0 -6.33 16.79 12.77 0z"/>
  <path id="6" class="fil1" d="M325.3 179.7l-3.05 0c-0.72,0 -1.28,-0.14 -1.7,-0.42 -0.41,-0.28 -0.81,-0.73 -1.18,-1.33l-16.34 -25.55 -2.83 -4.75 -0.11 0 0 27.81 4.35 0c0.49,0 0.74,0.23 0.74,0.68l0 2.88c0,0.46 -0.25,0.68 -0.74,0.68l-13.57 0c-0.49,0 -0.73,-0.22 -0.73,-0.68l0 -2.88c0,-0.45 0.24,-0.68 0.73,-0.68l4.3 0 0 -32.11 -4.3 0c-0.49,0 -0.73,-0.22 -0.73,-0.67l0 -2.89c0,-0.45 0.24,-0.68 0.73,-0.68l7.92 0c1.09,0 2.05,0.65 2.88,1.93l16.11 25.21 3.22 5.48 0.12 0 0 -28.38 -4.35 0c-0.46,0 -0.68,-0.22 -0.68,-0.67l0 -2.89c0,-0.45 0.22,-0.68 0.68,-0.68l13.62 0c0.45,0 0.68,0.23 0.68,0.68l0 2.89c0,0.45 -0.23,0.67 -0.68,0.67l-4.35 0 0 35.67c0,0.46 -0.25,0.68 -0.74,0.68z"/>
  <path id="7" class="fil1" d="M373.38 179.7l-29.28 0c-0.53,0 -0.79,-0.24 -0.79,-0.73l0 -2.43c0,-0.38 0.38,-1.02 1.13,-1.92l22.95 -31.27 -19.33 0 0 4.58c0,0.53 -0.27,0.79 -0.79,0.79l-3.17 0c-0.53,0 -0.79,-0.26 -0.79,-0.79l0 -8.08c0,-0.49 0.26,-0.74 0.79,-0.74l29.28 0c0.49,0 0.74,0.25 0.74,0.74l0 2.09c0,0.64 -0.38,1.41 -1.13,2.32l-22.95 31.2 19.39 0 0 -4.58c0,-0.52 0.24,-0.79 0.73,-0.79l3.22 0c0.49,0 0.74,0.27 0.74,0.79l0 8.09c0,0.49 -0.25,0.73 -0.74,0.73z"/>
  <path id="8" class="fil1" d="M417.4 179.7l-30.02 0c-0.49,0 -0.74,-0.22 -0.74,-0.68l0 -2.88c0,-0.45 0.25,-0.68 0.74,-0.68l4.29 0 0 -32.11 -4.29 0c-0.49,0 -0.74,-0.22 -0.74,-0.67l0 -2.89c0,-0.45 0.25,-0.68 0.74,-0.68l30.02 0c0.49,0 0.73,0.23 0.73,0.68l0 9.1c0,0.49 -0.24,0.74 -0.73,0.74l-3.06 0c-0.45,0 -0.67,-0.25 -0.67,-0.74l0 -5.54 -17.08 0 0 14.02 14.31 0c0.49,0 0.73,0.23 0.73,0.68l0 2.89c0,0.45 -0.24,0.67 -0.73,0.67l-14.31 0 0 13.85 17.02 0 0 -5.54c0,-0.45 0.24,-0.67 0.73,-0.67l3.06 0c0.49,0 0.73,0.22 0.73,0.67l0 9.1c0,0.46 -0.24,0.68 -0.73,0.68z"/>
  <path id="9" class="fil1" d="M444.96 179.7l-13.57 0c-0.49,0 -0.73,-0.22 -0.73,-0.68l0 -2.88c0,-0.45 0.24,-0.68 0.73,-0.68l4.3 0 0 -32.11 -4.3 0c-0.49,0 -0.73,-0.22 -0.73,-0.67l0 -2.89c0,-0.45 0.24,-0.68 0.73,-0.68l13.57 0c0.49,0 0.73,0.23 0.73,0.68l0 2.89c0,0.45 -0.24,0.67 -0.73,0.67l-4.35 0 0 32.11 4.35 0c0.49,0 0.73,0.23 0.73,0.68l0 2.88c0,0.46 -0.24,0.68 -0.73,0.68z"/>
  <path id="10" class="fil1" d="M492.64 179.7l-2.99 0c-0.49,0 -0.74,-0.22 -0.74,-0.68l0.06 -3.9c-3.32,3.32 -7.74,4.98 -13.26,4.98 -5.52,0 -10.12,-1.92 -13.82,-5.77 -3.69,-3.84 -5.54,-8.89 -5.54,-15.15 0,-4.18 0.94,-7.86 2.8,-11.02 1.87,-3.17 4.24,-5.52 7.12,-7.07 2.89,-1.54 6,-2.31 9.36,-2.31 5.76,0 9.91,1.79 12.44,5.37l-0.06 -4.36c-0.08,-0.45 0.15,-0.68 0.68,-0.68l3.16 0c0.49,0 0.74,0.23 0.74,0.68l0 11.65c0,0.45 -0.25,0.68 -0.74,0.68l-3.56 0c-0.45,0 -0.68,-0.23 -0.68,-0.68l0 -0.68c0,-1.66 -1.14,-3.3 -3.42,-4.92 -2.28,-1.62 -5.19,-2.43 -8.73,-2.43 -3.54,0 -6.74,1.46 -9.58,4.38 -2.85,2.92 -4.27,6.82 -4.27,11.7 0,4.88 1.43,8.75 4.3,11.59 2.86,2.85 6.06,4.27 9.61,4.27 3.54,0 6.34,-0.56 8.39,-1.7 2.05,-1.13 3.59,-2.46 4.61,-4.01l0 -4.41 -10.52 0c-0.45,0 -0.68,-0.24 -0.68,-0.73l0 -2.6c0,-0.46 0.23,-0.68 0.68,-0.68l14.64 0c0.46,0 0.68,0.22 0.68,0.68l0 17.12c0,0.46 -0.22,0.68 -0.68,0.68z"/>
  <path id="11" class="fil1" d="M536.83 179.7l-30.02 0c-0.49,0 -0.74,-0.22 -0.74,-0.68l0 -2.88c0,-0.45 0.25,-0.68 0.74,-0.68l4.29 0 0 -32.11 -4.29 0c-0.49,0 -0.74,-0.22 -0.74,-0.67l0 -2.89c0,-0.45 0.25,-0.68 0.74,-0.68l30.02 0c0.49,0 0.73,0.23 0.73,0.68l0 9.1c0,0.49 -0.24,0.74 -0.73,0.74l-3.06 0c-0.45,0 -0.67,-0.25 -0.67,-0.74l0 -5.54 -17.08 0 0 14.02 14.31 0c0.49,0 0.73,0.23 0.73,0.68l0 2.89c0,0.45 -0.24,0.67 -0.73,0.67l-14.31 0 0 13.85 17.02 0 0 -5.54c0,-0.45 0.24,-0.67 0.73,-0.67l3.06 0c0.49,0 0.73,0.22 0.73,0.67l0 9.1c0,0.46 -0.24,0.68 -0.73,0.68z"/>
  <path class="fil0" d="M28.01 246.29l-15.6 0c-0.49,0 -0.74,-0.23 -0.74,-0.68l0 -2.88c0,-0.46 0.25,-0.68 0.74,-0.68l4.29 0 0 -32.11 -4.29 0c-0.49,0 -0.74,-0.23 -0.74,-0.68l0 -2.88c0,-0.45 0.25,-0.68 0.74,-0.68l29 0c0.49,0 0.73,0.23 0.73,0.68l0 9.1c0,0.49 -0.24,0.73 -0.73,0.73l-3.06 0c-0.45,0 -0.67,-0.24 -0.67,-0.73l0 -5.54 -16.06 0 0 14.02 13.29 0c0.49,0 0.73,0.23 0.73,0.68l0 2.88c0,0.45 -0.24,0.68 -0.73,0.68l-13.29 0 0 13.85 6.39 0c0.45,0 0.68,0.22 0.68,0.68l0 2.88c0,0.45 -0.23,0.68 -0.68,0.68z"/>
  <path id="1" class="fil0" d="M67.14 197.98c0.48,0.47 0.71,1.05 0.71,1.73 0,0.68 -0.23,1.24 -0.71,1.69 -0.47,0.46 -1.04,0.68 -1.72,0.68 -0.68,0 -1.24,-0.22 -1.7,-0.68 -0.45,-0.45 -0.67,-1.01 -0.67,-1.69 0,-0.68 0.22,-1.26 0.67,-1.73 0.46,-0.47 1.02,-0.7 1.7,-0.7 0.68,0 1.25,0.23 1.72,0.7zm8.94 0c0.47,0.47 0.7,1.05 0.7,1.73 0,0.68 -0.23,1.24 -0.7,1.69 -0.47,0.46 -1.05,0.68 -1.73,0.68 -0.68,0 -1.24,-0.22 -1.69,-0.68 -0.46,-0.45 -0.68,-1.01 -0.68,-1.69 0,-0.68 0.22,-1.26 0.68,-1.73 0.45,-0.47 1.01,-0.7 1.69,-0.7 0.68,0 1.26,0.23 1.73,0.7zm4.21 33.61l0 -21.65 -4.35 0c-0.46,0 -0.68,-0.23 -0.68,-0.68l0 -2.88c0,-0.45 0.22,-0.68 0.68,-0.68l13.62 0c0.45,0 0.68,0.23 0.68,0.68l0 2.88c0,0.45 -0.23,0.68 -0.68,0.68l-4.35 0 0 21.14c0,5.09 -1.33,8.96 -3.99,11.62 -2.66,2.66 -6.41,3.98 -11.25,3.98 -4.84,0 -8.6,-1.32 -11.28,-3.98 -2.67,-2.66 -4.01,-6.53 -4.01,-11.62l0 -21.14 -4.3 0c-0.49,0 -0.73,-0.23 -0.73,-0.68l0 -2.88c0,-0.45 0.24,-0.68 0.73,-0.68l13.57 0c0.49,0 0.74,0.23 0.74,0.68l0 2.88c0,0.45 -0.25,0.68 -0.74,0.68l-4.35 0 0 21.31c0,7.24 3.47,10.86 10.4,10.86 3.54,0 6.14,-0.94 7.8,-2.8 1.66,-1.87 2.49,-4.44 2.49,-7.72z"/>
  <path id="2" class="fil0" d="M130.81 246.29l-4.91 0c-1.36,0 -2.49,-0.91 -3.4,-2.72l-5.31 -10.79c-0.45,-0.94 -0.93,-1.64 -1.44,-2.09 -0.51,-0.46 -1.22,-0.7 -2.12,-0.74l-7.18 0 0 12.1 5.09 0c0.45,0 0.67,0.22 0.67,0.68l0 2.88c0,0.45 -0.22,0.68 -0.67,0.68l-14.31 0c-0.49,0 -0.73,-0.23 -0.73,-0.68l0 -2.88c0,-0.46 0.24,-0.68 0.73,-0.68l4.3 0 0 -32.11 -4.3 0c-0.49,0 -0.73,-0.23 -0.73,-0.68l0 -2.88c0,-0.45 0.24,-0.68 0.73,-0.68l17.42 0c4.03,0 7.31,1.06 9.83,3.19 2.53,2.13 3.79,5.14 3.79,9.02 0,5.92 -2.77,9.61 -8.31,11.08 0.72,0.57 1.6,1.83 2.66,3.79l4.75 9.27 3.44 0c0.46,0 0.68,0.22 0.68,0.68l0 2.88c0,0.45 -0.22,0.68 -0.68,0.68zm-24.36 -20.35l7.23 0c6.41,0 9.62,-2.62 9.62,-7.86 0,-5.43 -3.21,-8.14 -9.62,-8.14l-7.23 0 0 16z"/>
  <path id="3" class="fil0" d="M196.6 246.29l-2.15 0c-1.39,0 -2.28,-0.76 -2.65,-2.26l-6.56 -28.72 -0.17 0 -6.45 28.72c-0.37,1.5 -1.28,2.26 -2.71,2.26l-2.09 0c-1.32,0 -2.22,-0.76 -2.71,-2.26l-10.35 -34.09 -3.56 0c-0.49,0 -0.73,-0.23 -0.73,-0.68l0 -2.88c0,-0.45 0.24,-0.68 0.73,-0.68l12.72 0c0.49,0 0.73,0.23 0.73,0.68l0 2.88c0,0.45 -0.24,0.68 -0.73,0.68l-3.96 0 8.76 30.36 0.34 0 7.86 -34.6 4.52 0 7.92 34.6 0.34 0 8.76 -30.36 -4.01 0c-0.46,0 -0.68,-0.23 -0.68,-0.68l0 -2.88c0,-0.45 0.22,-0.68 0.68,-0.68l12.77 0c0.45,0 0.68,0.23 0.68,0.68l0 2.88c0,0.45 -0.23,0.68 -0.68,0.68l-3.62 0 -10.34 34.09c-0.45,1.5 -1.34,2.26 -2.66,2.26z"/>
  <path id="4" class="fil0" d="M255.95 225.8c0,6.2 -1.86,11.23 -5.57,15.09 -3.71,3.86 -8.39,5.79 -14.02,5.79 -5.64,0 -10.34,-1.95 -14.11,-5.85 -3.76,-3.9 -5.65,-8.93 -5.65,-15.09 0,-6.16 1.94,-11.1 5.82,-14.81 3.88,-3.71 8.52,-5.57 13.91,-5.57 5.39,0 10.01,1.86 13.85,5.57 3.84,3.71 5.77,8.67 5.77,14.87zm-29.71 11.98c2.88,2.88 6.25,4.33 10.09,4.33 3.84,0 7.2,-1.45 10.06,-4.33 2.87,-2.88 4.3,-6.84 4.3,-11.87 0,-5.03 -1.46,-8.97 -4.38,-11.82 -2.92,-2.84 -6.25,-4.26 -9.98,-4.26 -3.73,0 -7.07,1.42 -10.01,4.26 -2.94,2.85 -4.41,6.79 -4.41,11.82 0,5.03 1.45,8.99 4.33,11.87z"/>
  <path id="5" class="fil0" d="M295.5 246.29l-4.91 0c-1.36,0 -2.49,-0.91 -3.4,-2.72l-5.31 -10.79c-0.45,-0.94 -0.93,-1.64 -1.44,-2.09 -0.51,-0.46 -1.22,-0.7 -2.12,-0.74l-7.18 0 0 12.1 5.09 0c0.45,0 0.68,0.22 0.68,0.68l0 2.88c0,0.45 -0.23,0.68 -0.68,0.68l-14.3 0c-0.49,0 -0.74,-0.23 -0.74,-0.68l0 -2.88c0,-0.46 0.25,-0.68 0.74,-0.68l4.29 0 0 -32.11 -4.29 0c-0.49,0 -0.74,-0.23 -0.74,-0.68l0 -2.88c0,-0.45 0.25,-0.68 0.74,-0.68l17.41 0c4.03,0 7.31,1.06 9.83,3.19 2.53,2.13 3.79,5.14 3.79,9.02 0,5.92 -2.77,9.61 -8.31,11.08 0.72,0.57 1.6,1.83 2.66,3.79l4.75 9.27 3.44 0c0.46,0 0.68,0.22 0.68,0.68l0 2.88c0,0.45 -0.22,0.68 -0.68,0.68zm-24.36 -20.35l7.24 0c6.4,0 9.61,-2.62 9.61,-7.86 0,-5.43 -3.21,-8.14 -9.61,-8.14l-7.24 0 0 16z"/>
  <path id="6" class="fil0" d="M319.74 246.29l-16.22 0c-0.45,0 -0.68,-0.23 -0.68,-0.68l0 -2.88c0,-0.46 0.23,-0.68 0.68,-0.68l4.35 0 0 -32.11 -4.35 0c-0.45,0 -0.68,-0.23 -0.68,-0.68l0 -2.88c0,-0.45 0.23,-0.68 0.68,-0.68l15.26 0c6.26,0 11.23,1.8 14.93,5.4 3.69,3.6 5.54,8.54 5.54,14.84 0,6.29 -1.76,11.26 -5.26,14.89 -3.51,3.64 -8.25,5.46 -14.25,5.46zm-6.95 -4.24l5.6 0c10.47,-0.08 15.71,-5.41 15.71,-16 0,-5.09 -1.34,-9.04 -4.04,-11.87 -2.69,-2.83 -6.64,-4.24 -11.84,-4.24l-5.43 0 0 32.11z"/>
  <path id="7" class="fil0" d="M360.77 246.29l-14.75 0c-0.49,0 -0.74,-0.23 -0.74,-0.68l0 -2.88c0,-0.46 0.25,-0.68 0.74,-0.68l4.29 0 0 -32.11 -4.29 0c-0.49,0 -0.74,-0.23 -0.74,-0.68l0 -2.88c0,-0.45 0.25,-0.68 0.74,-0.68l17.41 0c3.99,0 7.26,1.16 9.81,3.48 2.54,2.31 3.81,5.44 3.81,9.38 0,3.94 -1.24,6.99 -3.73,9.16 -2.49,2.16 -5.99,3.25 -10.51,3.25l-7.58 0 0 11.08 5.54 0c0.45,0 0.68,0.22 0.68,0.68l0 2.88c0,0.45 -0.23,0.68 -0.68,0.68zm-5.54 -19.33l7.35 0c6.33,0 9.5,-2.79 9.5,-8.37 0,-2.9 -0.9,-5.07 -2.69,-6.5 -1.79,-1.43 -4.04,-2.15 -6.75,-2.15l-7.41 0 0 17.02z"/>
  <path id="8" class="fil0" d="M416.78 246.29l-4.92 0c-1.35,0 -2.49,-0.91 -3.39,-2.72l-5.31 -10.79c-0.46,-0.94 -0.94,-1.64 -1.44,-2.09 -0.51,-0.46 -1.22,-0.7 -2.12,-0.74l-7.18 0 0 12.1 5.08 0c0.46,0 0.68,0.22 0.68,0.68l0 2.88c0,0.45 -0.22,0.68 -0.68,0.68l-14.3 0c-0.49,0 -0.73,-0.23 -0.73,-0.68l0 -2.88c0,-0.46 0.24,-0.68 0.73,-0.68l4.3 0 0 -32.11 -4.3 0c-0.49,0 -0.73,-0.23 -0.73,-0.68l0 -2.88c0,-0.45 0.24,-0.68 0.73,-0.68l17.41 0c4.04,0 7.31,1.06 9.84,3.19 2.52,2.13 3.79,5.14 3.79,9.02 0,5.92 -2.77,9.61 -8.31,11.08 0.71,0.57 1.6,1.83 2.65,3.79l4.75 9.27 3.45 0c0.45,0 0.68,0.22 0.68,0.68l0 2.88c0,0.45 -0.23,0.68 -0.68,0.68zm-24.36 -20.35l7.23 0c6.41,0 9.61,-2.62 9.61,-7.86 0,-5.43 -3.2,-8.14 -9.61,-8.14l-7.23 0 0 16z"/>
  <path id="9" class="fil0" d="M455.15 246.29l-30.02 0c-0.49,0 -0.73,-0.23 -0.73,-0.68l0 -2.88c0,-0.46 0.24,-0.68 0.73,-0.68l4.3 0 0 -32.11 -4.3 0c-0.49,0 -0.73,-0.23 -0.73,-0.68l0 -2.88c0,-0.45 0.24,-0.68 0.73,-0.68l30.02 0c0.49,0 0.74,0.23 0.74,0.68l0 9.1c0,0.49 -0.25,0.73 -0.74,0.73l-3.05 0c-0.45,0 -0.68,-0.24 -0.68,-0.73l0 -5.54 -17.07 0 0 14.02 14.3 0c0.49,0 0.74,0.23 0.74,0.68l0 2.88c0,0.45 -0.25,0.68 -0.74,0.68l-14.3 0 0 13.85 17.01 0 0 -5.54c0,-0.45 0.25,-0.68 0.74,-0.68l3.05 0c0.49,0 0.74,0.23 0.74,0.68l0 9.1c0,0.45 -0.25,0.68 -0.74,0.68z"/>
  <path id="10" class="fil0" d="M467.63 246.29l-3.16 0c-0.49,0 -0.74,-0.23 -0.74,-0.68l0 -13.23c0,-0.49 0.25,-0.73 0.74,-0.73l3.56 0c0.45,0 0.68,0.24 0.68,0.73l0 1.19c0,0.72 0.43,1.67 1.3,2.85 0.86,1.19 1.73,2.16 2.6,2.92 0.86,0.75 2.02,1.4 3.47,1.95 1.45,0.54 3.03,0.82 4.72,0.82 2.9,0 5.18,-0.61 6.81,-1.81 1.64,-1.21 2.46,-2.89 2.46,-5.03 0,-1.25 -0.46,-2.31 -1.38,-3.2 -0.92,-0.88 -2.12,-1.59 -3.59,-2.12 -1.47,-0.53 -3.1,-1.02 -4.89,-1.47 -1.79,-0.45 -3.58,-0.97 -5.37,-1.55 -1.79,-0.59 -3.42,-1.28 -4.89,-2.09 -1.47,-0.82 -2.67,-1.95 -3.59,-3.4 -0.92,-1.45 -1.38,-3.15 -1.38,-5.11 0,-3.17 1.19,-5.79 3.58,-7.86 2.4,-2.07 5.61,-3.11 9.64,-3.11 5.09,0 8.82,1.49 11.2,4.47l-0.12 -3.51c0,-0.45 0.25,-0.68 0.74,-0.68l3.16 0c0.46,0 0.68,0.23 0.68,0.68l0 12.32c0,0.46 -0.22,0.68 -0.68,0.68l-3.56 0c-0.45,0 -0.68,-0.22 -0.68,-0.68l0 -1.58c0,-1.54 -0.86,-3.11 -2.6,-4.69 -1.73,-1.58 -4.27,-2.37 -7.63,-2.37 -2.49,0 -4.49,0.59 -6.02,1.78 -1.53,1.18 -2.29,2.7 -2.29,4.55 0,1.32 0.47,2.45 1.41,3.39 0.95,0.94 2.17,1.69 3.68,2.26 1.51,0.57 3.16,1.08 4.97,1.56 1.81,0.47 3.62,0.98 5.43,1.55 1.81,0.57 3.47,1.24 4.98,2.04 1.5,0.79 2.73,1.87 3.67,3.24 0.94,1.38 1.41,3.01 1.41,4.9 0,3.31 -1.18,6.04 -3.56,8.19 -2.37,2.15 -5.92,3.22 -10.63,3.22 -3.46,0 -6.33,-0.69 -8.59,-2.09 -2.26,-1.39 -3.9,-2.9 -4.92,-4.52l0.06 5.54c0,0.45 -0.23,0.68 -0.68,0.68z"/>
  <path id="11" class="fil0" d="M507.7 246.29l-3.17 0c-0.49,0 -0.73,-0.23 -0.73,-0.68l0 -13.23c0,-0.49 0.24,-0.73 0.73,-0.73l3.56 0c0.46,0 0.68,0.24 0.68,0.73l0 1.19c0,0.72 0.44,1.67 1.3,2.85 0.87,1.19 1.74,2.16 2.6,2.92 0.87,0.75 2.03,1.4 3.48,1.95 1.45,0.54 3.02,0.82 4.72,0.82 2.9,0 5.17,-0.61 6.81,-1.81 1.64,-1.21 2.46,-2.89 2.46,-5.03 0,-1.25 -0.46,-2.31 -1.38,-3.2 -0.93,-0.88 -2.12,-1.59 -3.59,-2.12 -1.47,-0.53 -3.1,-1.02 -4.89,-1.47 -1.79,-0.45 -3.58,-0.97 -5.37,-1.55 -1.79,-0.59 -3.42,-1.28 -4.89,-2.09 -1.47,-0.82 -2.67,-1.95 -3.59,-3.4 -0.93,-1.45 -1.39,-3.15 -1.39,-5.11 0,-3.17 1.2,-5.79 3.59,-7.86 2.39,-2.07 5.61,-3.11 9.64,-3.11 5.09,0 8.82,1.49 11.19,4.47l-0.11 -3.51c0,-0.45 0.24,-0.68 0.73,-0.68l3.17 0c0.45,0 0.68,0.23 0.68,0.68l0 12.32c0,0.46 -0.23,0.68 -0.68,0.68l-3.56 0c-0.45,0 -0.68,-0.22 -0.68,-0.68l0 -1.58c0,-1.54 -0.87,-3.11 -2.6,-4.69 -1.73,-1.58 -4.28,-2.37 -7.63,-2.37 -2.49,0 -4.5,0.59 -6.02,1.78 -1.53,1.18 -2.29,2.7 -2.29,4.55 0,1.32 0.47,2.45 1.41,3.39 0.94,0.94 2.17,1.69 3.68,2.26 1.5,0.57 3.16,1.08 4.97,1.56 1.81,0.47 3.62,0.98 5.43,1.55 1.81,0.57 3.47,1.24 4.97,2.04 1.51,0.79 2.73,1.87 3.68,3.24 0.94,1.38 1.41,3.01 1.41,4.9 0,3.31 -1.19,6.04 -3.56,8.19 -2.38,2.15 -5.92,3.22 -10.63,3.22 -3.47,0 -6.33,-0.69 -8.59,-2.09 -2.26,-1.39 -3.9,-2.9 -4.92,-4.52l0.06 5.54c0,0.45 -0.23,0.68 -0.68,0.68z"/>
 </g>
</svg>
