<?xml version="1.0" encoding="UTF-8"?>
<!DOCTYPE svg PUBLIC "-//W3C//DTD SVG 1.1//EN" "http://www.w3.org/Graphics/SVG/1.1/DTD/svg11.dtd">
<!-- Creator: CorelDRAW 2019 (64-Bit) -->
<svg xmlns="http://www.w3.org/2000/svg" xml:space="preserve" width="580px" height="259px" version="1.1" style="shape-rendering:geometricPrecision; text-rendering:geometricPrecision; image-rendering:optimizeQuality; fill-rule:evenodd; clip-rule:evenodd"
viewBox="0 0 125 55.73"
 xmlns:xlink="http://www.w3.org/1999/xlink"
 xmlns:xodm="http://www.corel.com/coreldraw/odm/2003">
 <defs>
  <style type="text/css">
   <![CDATA[
    .fil0 {fill:#2782C3;fill-rule:nonzero}
    .fil1 {fill:#69BED8;fill-rule:nonzero}
   ]]>
  </style>
 </defs>
 <g id="Text">
  <metadata id="CorelCorpID_0Corel-Layer"/>
  <path class="fil0" d="M13.62 20c1.14,0 2.19,-0.17 3.13,-0.5 0.94,-0.34 1.63,-0.67 2.09,-0.99l2.39 4.74c-0.58,0.49 -1.58,1 -2.99,1.51 -1.41,0.51 -3.09,0.76 -5.03,0.76 -1.82,0 -3.52,-0.32 -5.11,-0.95 -1.6,-0.63 -2.99,-1.53 -4.21,-2.68 -1.21,-1.15 -2.16,-2.5 -2.85,-4.05 -0.69,-1.55 -1.04,-3.23 -1.04,-5.04 0,-1.82 0.34,-3.51 1.03,-5.07 0.68,-1.56 1.63,-2.92 2.84,-4.07 1.22,-1.16 2.62,-2.06 4.22,-2.7 1.6,-0.64 3.3,-0.96 5.12,-0.96 1.94,0 3.62,0.25 5.03,0.76 1.41,0.51 2.41,1.02 2.99,1.52l-2.39 4.73c-0.46,-0.33 -1.15,-0.67 -2.09,-1 -0.94,-0.33 -1.99,-0.49 -3.13,-0.49 -1.27,0 -2.38,0.2 -3.32,0.59 -0.95,0.39 -1.74,0.93 -2.37,1.61 -0.64,0.69 -1.11,1.46 -1.42,2.32 -0.31,0.86 -0.47,1.76 -0.47,2.7 0,0.96 0.16,1.87 0.47,2.73 0.31,0.87 0.78,1.64 1.42,2.33 0.63,0.68 1.42,1.22 2.37,1.61 0.94,0.39 2.05,0.59 3.32,0.59z"/>
  <polygon id="1" class="fil0" points="24.63,0.45 40.35,0.45 40.35,5.34 30.19,5.34 30.19,10.35 40.26,10.35 40.26,15.09 30.19,15.09 30.19,20.19 40.35,20.19 40.35,25.07 24.63,25.07 "/>
  <polygon id="2" class="fil0" points="44.72,0.45 50.3,0.45 50.3,20.19 59.23,20.19 59.23,25.07 44.72,25.07 "/>
  <path id="3" class="fil0" d="M71.83 0c1.53,0 2.86,0.17 4.01,0.5 1.14,0.34 2.06,0.69 2.76,1.07 0.7,0.37 1.12,0.62 1.27,0.74l-2.69 4.5c-0.2,-0.15 -0.53,-0.37 -1.01,-0.65 -0.48,-0.29 -1.05,-0.54 -1.7,-0.77 -0.65,-0.22 -1.34,-0.33 -2.05,-0.33 -0.95,0 -1.73,0.16 -2.32,0.51 -0.59,0.34 -0.89,0.85 -0.89,1.52 0,0.46 0.17,0.87 0.48,1.24 0.32,0.36 0.81,0.71 1.46,1.04 0.65,0.33 1.48,0.69 2.49,1.08 0.92,0.33 1.78,0.73 2.59,1.19 0.81,0.46 1.52,1 2.14,1.63 0.61,0.63 1.1,1.36 1.46,2.18 0.36,0.82 0.54,1.75 0.54,2.8 0,1.24 -0.25,2.32 -0.76,3.23 -0.51,0.91 -1.2,1.67 -2.08,2.27 -0.88,0.6 -1.87,1.04 -2.99,1.33 -1.11,0.29 -2.27,0.44 -3.46,0.44 -1.69,0 -3.2,-0.19 -4.54,-0.58 -1.34,-0.38 -2.42,-0.8 -3.24,-1.25 -0.82,-0.44 -1.31,-0.74 -1.47,-0.89l2.78 -4.68c0.15,0.11 0.44,0.29 0.87,0.54 0.43,0.25 0.95,0.5 1.57,0.77 0.62,0.26 1.29,0.49 1.99,0.68 0.7,0.19 1.39,0.28 2.08,0.28 1.14,0 2,-0.22 2.57,-0.66 0.57,-0.45 0.86,-1.02 0.86,-1.75 0,-0.53 -0.18,-1.01 -0.54,-1.43 -0.36,-0.42 -0.9,-0.83 -1.62,-1.21 -0.73,-0.38 -1.63,-0.78 -2.71,-1.2 -1.08,-0.43 -2.09,-0.96 -3.03,-1.58 -0.94,-0.63 -1.7,-1.4 -2.29,-2.34 -0.58,-0.93 -0.87,-2.09 -0.87,-3.47 0,-1.38 0.39,-2.58 1.17,-3.59 0.77,-1.01 1.8,-1.79 3.07,-2.34 1.28,-0.55 2.64,-0.82 4.1,-0.82z"/>
  <path id="4" class="fil0" d="M97.96 0.45l5.58 0 0 15.13c0,2.03 -0.4,3.78 -1.19,5.27 -0.8,1.48 -1.94,2.63 -3.42,3.45 -1.48,0.81 -3.24,1.22 -5.29,1.22 -2.07,0 -3.85,-0.41 -5.34,-1.22 -1.49,-0.82 -2.63,-1.97 -3.42,-3.45 -0.79,-1.49 -1.19,-3.24 -1.19,-5.27l0 -15.13 5.56 0 0 14.83c0,1.12 0.18,2.06 0.54,2.84 0.35,0.77 0.85,1.34 1.51,1.74 0.66,0.39 1.44,0.59 2.34,0.59 0.88,0 1.64,-0.2 2.29,-0.59 0.65,-0.4 1.15,-0.97 1.51,-1.74 0.35,-0.78 0.52,-1.72 0.52,-2.84l0 -14.83z"/>
  <path id="5" class="fil0" d="M116.45 0c1.53,0 2.87,0.17 4.01,0.5 1.15,0.34 2.07,0.69 2.76,1.07 0.7,0.37 1.12,0.62 1.27,0.74l-2.68 4.5c-0.2,-0.15 -0.54,-0.37 -1.02,-0.65 -0.48,-0.29 -1.04,-0.54 -1.69,-0.77 -0.66,-0.22 -1.34,-0.33 -2.05,-0.33 -0.96,0 -1.73,0.16 -2.32,0.51 -0.59,0.34 -0.89,0.85 -0.89,1.52 0,0.46 0.16,0.87 0.48,1.24 0.32,0.36 0.8,0.71 1.45,1.04 0.66,0.33 1.48,0.69 2.49,1.08 0.92,0.33 1.79,0.73 2.6,1.19 0.8,0.46 1.52,1 2.13,1.63 0.62,0.63 1.11,1.36 1.47,2.18 0.36,0.82 0.54,1.75 0.54,2.8 0,1.24 -0.26,2.32 -0.77,3.23 -0.51,0.91 -1.2,1.67 -2.08,2.27 -0.87,0.6 -1.87,1.04 -2.98,1.33 -1.11,0.29 -2.27,0.44 -3.46,0.44 -1.7,0 -3.21,-0.19 -4.54,-0.58 -1.34,-0.38 -2.42,-0.8 -3.24,-1.25 -0.82,-0.44 -1.32,-0.74 -1.48,-0.89l2.78 -4.68c0.15,0.11 0.44,0.29 0.87,0.54 0.43,0.25 0.95,0.5 1.58,0.77 0.62,0.26 1.28,0.49 1.99,0.68 0.7,0.19 1.39,0.28 2.07,0.28 1.15,0 2.01,-0.22 2.58,-0.66 0.57,-0.45 0.86,-1.02 0.86,-1.75 0,-0.53 -0.18,-1.01 -0.54,-1.43 -0.37,-0.42 -0.91,-0.83 -1.63,-1.21 -0.72,-0.38 -1.62,-0.78 -2.7,-1.2 -1.09,-0.43 -2.09,-0.96 -3.03,-1.58 -0.94,-0.63 -1.71,-1.4 -2.29,-2.34 -0.58,-0.93 -0.88,-2.09 -0.88,-3.47 0,-1.38 0.39,-2.58 1.17,-3.59 0.78,-1.01 1.81,-1.79 3.08,-2.34 1.28,-0.55 2.64,-0.82 4.09,-0.82z"/>
  <path class="fil1" d="M9.51 37.36l0 -4.9 -0.98 0c-0.11,0 -0.16,-0.05 -0.16,-0.16l0 -0.65c0,-0.1 0.05,-0.15 0.16,-0.15l3.08 0c0.1,0 0.15,0.05 0.15,0.15l0 0.65c0,0.11 -0.05,0.16 -0.15,0.16l-0.98 0 0 4.79c0,1.15 -0.31,2.02 -0.91,2.63 -0.6,0.6 -1.45,0.9 -2.54,0.9 -1.1,0 -1.95,-0.3 -2.56,-0.9 -0.6,-0.61 -0.91,-1.48 -0.91,-2.63l0 -4.79 -0.97 0c-0.11,0 -0.17,-0.05 -0.17,-0.16l0 -0.65c0,-0.1 0.06,-0.15 0.17,-0.15l3.07 0c0.11,0 0.17,0.05 0.17,0.15l0 0.65c0,0.11 -0.06,0.16 -0.17,0.16l-0.98 0 0 4.82c0,1.64 0.78,2.46 2.35,2.46 0.8,0 1.39,-0.21 1.77,-0.63 0.37,-0.42 0.56,-1.01 0.56,-1.75z"/>
  <path id="1" class="fil1" d="M15.9 40.69l-0.71 0c-0.11,0 -0.17,-0.05 -0.17,-0.16l0 -2.99c0,-0.11 0.06,-0.17 0.17,-0.17l0.8 0c0.11,0 0.16,0.06 0.16,0.17l0 0.27c0,0.16 0.1,0.38 0.29,0.64 0.2,0.27 0.39,0.49 0.59,0.66 0.2,0.17 0.46,0.32 0.79,0.45 0.33,0.12 0.68,0.18 1.07,0.18 0.65,0 1.17,-0.14 1.54,-0.41 0.37,-0.27 0.56,-0.65 0.56,-1.14 0,-0.28 -0.11,-0.52 -0.32,-0.72 -0.21,-0.2 -0.48,-0.36 -0.81,-0.48 -0.33,-0.12 -0.7,-0.23 -1.11,-0.33 -0.4,-0.11 -0.81,-0.22 -1.21,-0.36 -0.41,-0.13 -0.78,-0.29 -1.11,-0.47 -0.33,-0.18 -0.6,-0.44 -0.81,-0.77 -0.21,-0.33 -0.32,-0.71 -0.32,-1.16 0,-0.71 0.27,-1.31 0.82,-1.77 0.54,-0.47 1.26,-0.71 2.18,-0.71 1.15,0 1.99,0.34 2.53,1.01l-0.02 -0.79c0,-0.1 0.05,-0.15 0.16,-0.15l0.72 0c0.1,0 0.15,0.05 0.15,0.15l0 2.79c0,0.1 -0.05,0.15 -0.15,0.15l-0.81 0c-0.1,0 -0.15,-0.05 -0.15,-0.15l0 -0.36c0,-0.35 -0.2,-0.7 -0.59,-1.06 -0.39,-0.36 -0.97,-0.54 -1.73,-0.54 -0.56,0 -1.01,0.14 -1.36,0.4 -0.35,0.27 -0.52,0.62 -0.52,1.03 0,0.3 0.11,0.56 0.32,0.77 0.21,0.22 0.49,0.39 0.83,0.51 0.34,0.13 0.72,0.25 1.13,0.36 0.41,0.1 0.82,0.22 1.23,0.35 0.41,0.13 0.78,0.28 1.12,0.46 0.35,0.18 0.62,0.42 0.84,0.74 0.21,0.31 0.32,0.68 0.32,1.1 0,0.75 -0.27,1.37 -0.81,1.86 -0.54,0.48 -1.34,0.73 -2.41,0.73 -0.78,0 -1.43,-0.16 -1.94,-0.48 -0.51,-0.31 -0.88,-0.65 -1.12,-1.02l0.02 1.25c0,0.11 -0.05,0.16 -0.16,0.16z"/>
  <path id="2" class="fil1" d="M32.73 40.69l-6.8 0c-0.11,0 -0.17,-0.05 -0.17,-0.16l0 -0.65c0,-0.1 0.06,-0.15 0.17,-0.15l0.97 0 0 -7.27 -0.97 0c-0.11,0 -0.17,-0.05 -0.17,-0.16l0 -0.65c0,-0.1 0.06,-0.15 0.17,-0.15l6.8 0c0.11,0 0.16,0.05 0.16,0.15l0 2.06c0,0.11 -0.05,0.17 -0.16,0.17l-0.69 0c-0.11,0 -0.16,-0.06 -0.16,-0.17l0 -1.25 -3.86 0 0 3.17 3.24 0c0.11,0 0.16,0.05 0.16,0.16l0 0.65c0,0.1 -0.05,0.15 -0.16,0.15l-3.24 0 0 3.14 3.85 0 0 -1.26c0,-0.1 0.06,-0.15 0.17,-0.15l0.69 0c0.11,0 0.16,0.05 0.16,0.15l0 2.06c0,0.11 -0.05,0.16 -0.16,0.16z"/>
  <path id="3" class="fil1" d="M44.2 40.69l-1.11 0c-0.31,0 -0.57,-0.21 -0.77,-0.62l-1.2 -2.44c-0.11,-0.21 -0.22,-0.37 -0.33,-0.47 -0.12,-0.11 -0.28,-0.16 -0.48,-0.17l-1.63 0 0 2.74 1.16 0c0.1,0 0.15,0.05 0.15,0.15l0 0.65c0,0.11 -0.05,0.16 -0.15,0.16l-3.24 0c-0.11,0 -0.17,-0.05 -0.17,-0.16l0 -0.65c0,-0.1 0.06,-0.15 0.17,-0.15l0.97 0 0 -7.27 -0.97 0c-0.11,0 -0.17,-0.05 -0.17,-0.16l0 -0.65c0,-0.1 0.06,-0.15 0.17,-0.15l3.94 0c0.91,0 1.66,0.24 2.23,0.72 0.57,0.48 0.85,1.16 0.85,2.04 0,1.34 -0.62,2.18 -1.88,2.51 0.17,0.13 0.37,0.42 0.6,0.86l1.08 2.1 0.78 0c0.1,0 0.15,0.05 0.15,0.15l0 0.65c0,0.11 -0.05,0.16 -0.15,0.16zm-5.52 -4.61l1.64 0c1.45,0 2.18,-0.59 2.18,-1.78 0,-1.23 -0.73,-1.84 -2.18,-1.84l-1.64 0 0 3.62z"/>
  <path id="4" class="fil1" d="M59.07 40.69l-7.01 0c-0.11,0 -0.16,-0.05 -0.16,-0.16l0 -0.65c0,-0.1 0.05,-0.15 0.16,-0.15l0.98 0 0 -7.27 -0.98 0c-0.11,0 -0.16,-0.05 -0.16,-0.16l0 -0.65c0,-0.1 0.05,-0.15 0.16,-0.15l3.06 0c0.11,0 0.17,0.05 0.17,0.16l0 0.63c0,0.11 -0.06,0.17 -0.17,0.17l-0.97 0 0 7.27 4.07 0 0 -1.26c0,-0.1 0.06,-0.15 0.17,-0.15l0.69 0c0.1,0 0.15,0.05 0.15,0.15l0 2.05c0,0.11 -0.05,0.17 -0.16,0.17z"/>
  <path id="5" class="fil1" d="M65.52 40.69l-3.07 0c-0.11,0 -0.17,-0.05 -0.17,-0.16l0 -0.65c0,-0.1 0.06,-0.15 0.17,-0.15l0.97 0 0 -7.27 -0.97 0c-0.11,0 -0.17,-0.05 -0.17,-0.16l0 -0.65c0,-0.1 0.06,-0.15 0.17,-0.15l3.07 0c0.11,0 0.17,0.05 0.17,0.15l0 0.65c0,0.11 -0.06,0.16 -0.17,0.16l-0.98 0 0 7.27 0.98 0c0.11,0 0.17,0.05 0.17,0.15l0 0.65c0,0.11 -0.06,0.16 -0.17,0.16z"/>
  <path id="6" class="fil1" d="M77.11 38.37c0.04,0.04 0.06,0.08 0.06,0.12 0,0.05 -0.02,0.11 -0.05,0.2 -0.04,0.08 -0.11,0.18 -0.2,0.31 -0.09,0.14 -0.25,0.32 -0.48,0.55 -0.23,0.23 -0.48,0.43 -0.75,0.59 -0.27,0.17 -0.64,0.32 -1.08,0.45 -0.45,0.12 -0.93,0.19 -1.44,0.19 -1.25,0 -2.29,-0.44 -3.12,-1.31 -0.83,-0.87 -1.25,-2.01 -1.25,-3.42 0,-1.41 0.42,-2.54 1.26,-3.37 0.84,-0.84 1.86,-1.26 3.04,-1.26 1.33,0 2.29,0.46 2.88,1.37l-0.01 -1.14c-0.02,-0.1 0.03,-0.15 0.15,-0.15l0.72 0c0.11,0 0.17,0.05 0.17,0.15l0 2.79c0,0.11 -0.06,0.17 -0.17,0.17l-0.81 0c-0.1,0 -0.15,-0.06 -0.15,-0.17l0 -0.11c0,-0.4 -0.27,-0.8 -0.8,-1.23 -0.53,-0.42 -1.2,-0.63 -1.99,-0.63 -0.79,0 -1.51,0.31 -2.14,0.94 -0.64,0.63 -0.96,1.52 -0.96,2.66 0,1.15 0.32,2.04 0.96,2.68 0.64,0.63 1.39,0.95 2.26,0.95 0.93,0 1.66,-0.21 2.2,-0.62 0.41,-0.33 0.72,-0.66 0.92,-0.99 0.07,-0.13 0.15,-0.15 0.24,-0.08l0.54 0.36z"/>
  <path id="7" class="fil1" d="M87.43 40.69l-6.8 0c-0.11,0 -0.16,-0.05 -0.16,-0.16l0 -0.65c0,-0.1 0.05,-0.15 0.16,-0.15l0.98 0 0 -7.27 -0.98 0c-0.11,0 -0.16,-0.05 -0.16,-0.16l0 -0.65c0,-0.1 0.05,-0.15 0.16,-0.15l6.8 0c0.11,0 0.17,0.05 0.17,0.15l0 2.06c0,0.11 -0.06,0.17 -0.17,0.17l-0.69 0c-0.1,0 -0.15,-0.06 -0.15,-0.17l0 -1.25 -3.87 0 0 3.17 3.24 0c0.11,0 0.16,0.05 0.16,0.16l0 0.65c0,0.1 -0.05,0.15 -0.16,0.15l-3.24 0 0 3.14 3.85 0 0 -1.26c0,-0.1 0.06,-0.15 0.17,-0.15l0.69 0c0.11,0 0.17,0.05 0.17,0.15l0 2.06c0,0.11 -0.06,0.16 -0.17,0.16z"/>
  <path id="8" class="fil1" d="M99.1 40.69l-0.7 0c-0.16,0 -0.29,-0.03 -0.38,-0.1 -0.09,-0.06 -0.18,-0.16 -0.27,-0.3l-3.7 -5.78 -0.64 -1.08 -0.02 0 0 6.3 0.98 0c0.11,0 0.17,0.05 0.17,0.15l0 0.65c0,0.11 -0.06,0.16 -0.17,0.16l-3.07 0c-0.11,0 -0.17,-0.05 -0.17,-0.16l0 -0.65c0,-0.1 0.06,-0.15 0.17,-0.15l0.97 0 0 -7.27 -0.97 0c-0.11,0 -0.17,-0.05 -0.17,-0.16l0 -0.65c0,-0.1 0.06,-0.15 0.17,-0.15l1.79 0c0.25,0 0.47,0.14 0.66,0.43l3.64 5.71 0.73 1.24 0.03 0 0 -6.42 -0.99 0c-0.1,0 -0.15,-0.05 -0.15,-0.16l0 -0.65c0,-0.1 0.05,-0.15 0.15,-0.15l3.09 0c0.1,0 0.15,0.05 0.15,0.15l0 0.65c0,0.11 -0.05,0.16 -0.15,0.16l-0.99 0 0 8.07c0,0.11 -0.05,0.16 -0.16,0.16z"/>
  <path id="9" class="fil1" d="M104.78 40.69l-0.71 0c-0.11,0 -0.17,-0.05 -0.17,-0.16l0 -2.99c0,-0.11 0.06,-0.17 0.17,-0.17l0.8 0c0.11,0 0.16,0.06 0.16,0.17l0 0.27c0,0.16 0.09,0.38 0.29,0.64 0.2,0.27 0.39,0.49 0.59,0.66 0.2,0.17 0.46,0.32 0.79,0.45 0.32,0.12 0.68,0.18 1.07,0.18 0.65,0 1.17,-0.14 1.54,-0.41 0.37,-0.27 0.55,-0.65 0.55,-1.14 0,-0.28 -0.1,-0.52 -0.31,-0.72 -0.21,-0.2 -0.48,-0.36 -0.81,-0.48 -0.33,-0.12 -0.7,-0.23 -1.11,-0.33 -0.4,-0.11 -0.81,-0.22 -1.22,-0.36 -0.4,-0.13 -0.77,-0.29 -1.1,-0.47 -0.33,-0.18 -0.61,-0.44 -0.81,-0.77 -0.21,-0.33 -0.32,-0.71 -0.32,-1.16 0,-0.71 0.27,-1.31 0.81,-1.77 0.55,-0.47 1.27,-0.71 2.19,-0.71 1.15,0 1.99,0.34 2.53,1.01l-0.02 -0.79c0,-0.1 0.05,-0.15 0.16,-0.15l0.72 0c0.1,0 0.15,0.05 0.15,0.15l0 2.79c0,0.1 -0.05,0.15 -0.15,0.15l-0.81 0c-0.1,0 -0.15,-0.05 -0.15,-0.15l0 -0.36c0,-0.35 -0.2,-0.7 -0.59,-1.06 -0.39,-0.36 -0.97,-0.54 -1.73,-0.54 -0.56,0 -1.02,0.14 -1.36,0.4 -0.35,0.27 -0.52,0.62 -0.52,1.03 0,0.3 0.11,0.56 0.32,0.77 0.21,0.22 0.49,0.39 0.83,0.51 0.34,0.13 0.72,0.25 1.13,0.36 0.41,0.1 0.82,0.22 1.23,0.35 0.41,0.13 0.78,0.28 1.12,0.46 0.34,0.18 0.62,0.42 0.84,0.74 0.21,0.31 0.32,0.68 0.32,1.1 0,0.75 -0.27,1.37 -0.81,1.86 -0.54,0.48 -1.34,0.73 -2.41,0.73 -0.78,0 -1.43,-0.16 -1.94,-0.48 -0.51,-0.31 -0.89,-0.65 -1.12,-1.02l0.02 1.25c0,0.11 -0.05,0.16 -0.16,0.16z"/>
  <path id="10" class="fil1" d="M121.61 40.69l-6.8 0c-0.11,0 -0.17,-0.05 -0.17,-0.16l0 -0.65c0,-0.1 0.06,-0.15 0.17,-0.15l0.97 0 0 -7.27 -0.97 0c-0.11,0 -0.17,-0.05 -0.17,-0.16l0 -0.65c0,-0.1 0.06,-0.15 0.17,-0.15l6.8 0c0.11,0 0.16,0.05 0.16,0.15l0 2.06c0,0.11 -0.05,0.17 -0.16,0.17l-0.69 0c-0.11,0 -0.16,-0.06 -0.16,-0.17l0 -1.25 -3.86 0 0 3.17 3.23 0c0.12,0 0.17,0.05 0.17,0.16l0 0.65c0,0.1 -0.05,0.15 -0.17,0.15l-3.23 0 0 3.14 3.85 0 0 -1.26c0,-0.1 0.05,-0.15 0.17,-0.15l0.69 0c0.11,0 0.16,0.05 0.16,0.15l0 2.06c0,0.11 -0.05,0.16 -0.16,0.16z"/>
  <path class="fil0" d="M12.97 55.64l-2.96 0c-0.1,0 -0.15,-0.05 -0.15,-0.15l0 -0.65c0,-0.1 0.05,-0.16 0.15,-0.16l0.86 0 0 -6.37 -0.01 0 -2.43 6.04c-0.11,0.26 -0.29,0.39 -0.57,0.39 -0.27,0 -0.46,-0.13 -0.56,-0.39l-2.43 -6.04 -0.03 0 0 6.37 0.86 0c0.11,0 0.17,0.06 0.17,0.16l0 0.65c0,0.1 -0.06,0.15 -0.17,0.15l-2.94 0c-0.11,0 -0.17,-0.05 -0.17,-0.15l0 -0.65c0,-0.1 0.06,-0.16 0.17,-0.16l0.97 0 0 -7.27 -0.97 0c-0.11,0 -0.17,-0.05 -0.17,-0.15l0 -0.65c0,-0.1 0.06,-0.16 0.17,-0.16l1.97 0c0.29,0 0.49,0.15 0.6,0.44l1.91 4.61 0.6 1.61 0.05 0c0.24,-0.67 0.43,-1.19 0.59,-1.59l1.92 -4.63c0.11,-0.29 0.31,-0.44 0.61,-0.44l1.96 0c0.1,0 0.15,0.06 0.15,0.16l0 0.65c0,0.1 -0.05,0.15 -0.15,0.15l-0.99 0 0 7.27 0.99 0c0.1,0 0.15,0.06 0.15,0.16l0 0.65c0,0.1 -0.05,0.15 -0.15,0.15z"/>
  <path id="1" class="fil0" d="M25.59 55.64l-2.89 0c-0.11,0 -0.16,-0.05 -0.16,-0.15l0 -0.65c0,-0.1 0.05,-0.16 0.16,-0.16l0.89 0 -0.83 -2.21 -3.57 0 -0.83 2.21 0.89 0c0.11,0 0.16,0.06 0.16,0.16l0 0.65c0,0.1 -0.05,0.15 -0.16,0.15l-2.88 0c-0.1,0 -0.15,-0.05 -0.15,-0.15l0 -0.65c0,-0.1 0.05,-0.16 0.15,-0.16l0.86 0 2.75 -7.27 -0.69 0c-0.11,0 -0.16,-0.05 -0.16,-0.15l0 -0.65c0,-0.1 0.05,-0.16 0.16,-0.16l1.74 0c0.21,0 0.36,0.05 0.47,0.13 0.11,0.09 0.2,0.23 0.28,0.42l2.94 7.68 0.87 0c0.1,0 0.15,0.06 0.15,0.16l0 0.65c0,0.1 -0.05,0.15 -0.15,0.15zm-3.17 -4.05l-1.42 -3.8 -0.04 0 -1.44 3.8 2.9 0z"/>
  <path id="2" class="fil0" d="M36.64 55.64l-0.7 0c-0.16,0 -0.29,-0.03 -0.38,-0.09 -0.09,-0.07 -0.18,-0.17 -0.27,-0.3l-3.7 -5.79 -0.64 -1.07 -0.02 0 0 6.29 0.98 0c0.11,0 0.17,0.06 0.17,0.16l0 0.65c0,0.1 -0.06,0.15 -0.17,0.15l-3.07 0c-0.11,0 -0.17,-0.05 -0.17,-0.15l0 -0.65c0,-0.1 0.06,-0.16 0.17,-0.16l0.97 0 0 -7.27 -0.97 0c-0.11,0 -0.17,-0.05 -0.17,-0.15l0 -0.65c0,-0.1 0.06,-0.16 0.17,-0.16l1.79 0c0.25,0 0.47,0.15 0.66,0.44l3.64 5.71 0.73 1.24 0.03 0 0 -6.43 -0.99 0c-0.1,0 -0.15,-0.05 -0.15,-0.15l0 -0.65c0,-0.1 0.05,-0.16 0.15,-0.16l3.09 0c0.1,0 0.15,0.06 0.15,0.16l0 0.65c0,0.1 -0.05,0.15 -0.15,0.15l-0.99 0 0 8.08c0,0.1 -0.05,0.15 -0.16,0.15z"/>
  <path id="3" class="fil0" d="M49.95 55.64l-2.9 0c-0.1,0 -0.15,-0.05 -0.15,-0.15l0 -0.65c0,-0.1 0.05,-0.16 0.15,-0.16l0.9 0 -0.83 -2.21 -3.57 0 -0.84 2.21 0.9 0c0.1,0 0.15,0.06 0.15,0.16l0 0.65c0,0.1 -0.05,0.15 -0.15,0.15l-2.88 0c-0.1,0 -0.15,-0.05 -0.15,-0.15l0 -0.65c0,-0.1 0.05,-0.16 0.15,-0.16l0.86 0 2.75 -7.27 -0.69 0c-0.11,0 -0.17,-0.05 -0.17,-0.15l0 -0.65c0,-0.1 0.06,-0.16 0.17,-0.16l1.74 0c0.2,0 0.36,0.05 0.47,0.13 0.1,0.09 0.2,0.23 0.27,0.42l2.95 7.68 0.87 0c0.1,0 0.15,0.06 0.15,0.16l0 0.65c0,0.1 -0.05,0.15 -0.15,0.15zm-3.18 -4.05l-1.42 -3.8 -0.04 0 -1.43 3.8 2.89 0z"/>
  <path id="4" class="fil0" d="M60.95 55.64l-0.68 0c-0.11,0 -0.16,-0.05 -0.16,-0.15l0.01 -0.88c-0.75,0.75 -1.75,1.12 -3,1.12 -1.25,0 -2.29,-0.43 -3.13,-1.3 -0.84,-0.87 -1.25,-2.02 -1.25,-3.43 0,-0.95 0.21,-1.78 0.63,-2.5 0.42,-0.71 0.96,-1.25 1.61,-1.6 0.65,-0.35 1.36,-0.52 2.12,-0.52 1.31,0 2.24,0.4 2.82,1.21l-0.02 -0.98c-0.01,-0.1 0.04,-0.16 0.16,-0.16l0.71 0c0.11,0 0.17,0.06 0.17,0.16l0 2.63c0,0.11 -0.06,0.16 -0.17,0.16l-0.8 0c-0.11,0 -0.16,-0.05 -0.16,-0.16l0 -0.15c0,-0.37 -0.25,-0.75 -0.77,-1.11 -0.52,-0.37 -1.18,-0.55 -1.98,-0.55 -0.8,0 -1.52,0.33 -2.17,0.99 -0.64,0.66 -0.96,1.54 -0.96,2.65 0,1.1 0.32,1.98 0.97,2.62 0.65,0.65 1.37,0.97 2.17,0.97 0.81,0 1.44,-0.13 1.91,-0.39 0.46,-0.25 0.81,-0.55 1.04,-0.9l0 -1 -2.38 0c-0.1,0 -0.16,-0.06 -0.16,-0.17l0 -0.59c0,-0.1 0.06,-0.15 0.16,-0.15l3.31 0c0.11,0 0.16,0.05 0.16,0.15l0 3.88c0,0.1 -0.05,0.15 -0.16,0.15z"/>
  <path id="5" class="fil0" d="M71.83 55.64l-6.79 0c-0.12,0 -0.17,-0.05 -0.17,-0.15l0 -0.65c0,-0.1 0.05,-0.16 0.17,-0.16l0.97 0 0 -7.27 -0.97 0c-0.12,0 -0.17,-0.05 -0.17,-0.15l0 -0.65c0,-0.1 0.05,-0.16 0.17,-0.16l6.79 0c0.11,0 0.17,0.06 0.17,0.16l0 2.06c0,0.11 -0.06,0.16 -0.17,0.16l-0.69 0c-0.1,0 -0.15,-0.05 -0.15,-0.16l0 -1.26 -3.87 0 0 3.18 3.24 0c0.11,0 0.17,0.05 0.17,0.15l0 0.65c0,0.11 -0.06,0.16 -0.17,0.16l-3.24 0 0 3.13 3.85 0 0 -1.25c0,-0.1 0.06,-0.15 0.17,-0.15l0.69 0c0.11,0 0.17,0.05 0.17,0.15l0 2.06c0,0.1 -0.06,0.15 -0.17,0.15z"/>
  <path id="6" class="fil0" d="M86.09 55.64l-2.96 0c-0.1,0 -0.15,-0.05 -0.15,-0.15l0 -0.65c0,-0.1 0.05,-0.16 0.15,-0.16l0.86 0 0 -6.37 -0.01 0 -2.43 6.04c-0.11,0.26 -0.29,0.39 -0.57,0.39 -0.27,0 -0.46,-0.13 -0.56,-0.39l-2.43 -6.04 -0.03 0 0 6.37 0.86 0c0.11,0 0.17,0.06 0.17,0.16l0 0.65c0,0.1 -0.06,0.15 -0.17,0.15l-2.94 0c-0.11,0 -0.17,-0.05 -0.17,-0.15l0 -0.65c0,-0.1 0.06,-0.16 0.17,-0.16l0.97 0 0 -7.27 -0.97 0c-0.11,0 -0.17,-0.05 -0.17,-0.15l0 -0.65c0,-0.1 0.06,-0.16 0.17,-0.16l1.97 0c0.29,0 0.49,0.15 0.6,0.44l1.91 4.61 0.6 1.61 0.05 0c0.24,-0.67 0.43,-1.19 0.59,-1.59l1.92 -4.63c0.11,-0.29 0.31,-0.44 0.61,-0.44l1.96 0c0.1,0 0.15,0.06 0.15,0.16l0 0.65c0,0.1 -0.05,0.15 -0.15,0.15l-0.99 0 0 7.27 0.99 0c0.1,0 0.15,0.06 0.15,0.16l0 0.65c0,0.1 -0.05,0.15 -0.15,0.15z"/>
  <path id="7" class="fil0" d="M96.85 55.64l-6.79 0c-0.11,0 -0.17,-0.05 -0.17,-0.15l0 -0.65c0,-0.1 0.06,-0.16 0.17,-0.16l0.97 0 0 -7.27 -0.97 0c-0.11,0 -0.17,-0.05 -0.17,-0.15l0 -0.65c0,-0.1 0.06,-0.16 0.17,-0.16l6.79 0c0.11,0 0.17,0.06 0.17,0.16l0 2.06c0,0.11 -0.06,0.16 -0.17,0.16l-0.69 0c-0.1,0 -0.15,-0.05 -0.15,-0.16l0 -1.26 -3.87 0 0 3.18 3.24 0c0.11,0 0.17,0.05 0.17,0.15l0 0.65c0,0.11 -0.06,0.16 -0.17,0.16l-3.24 0 0 3.13 3.86 0 0 -1.25c0,-0.1 0.05,-0.15 0.16,-0.15l0.69 0c0.11,0 0.17,0.05 0.17,0.15l0 2.06c0,0.1 -0.06,0.15 -0.17,0.15z"/>
  <path id="8" class="fil0" d="M108.69 55.64l-0.69 0c-0.16,0 -0.29,-0.03 -0.38,-0.09 -0.1,-0.07 -0.19,-0.17 -0.27,-0.3l-3.7 -5.79 -0.64 -1.07 -0.03 0 0 6.29 0.99 0c0.11,0 0.17,0.06 0.17,0.16l0 0.65c0,0.1 -0.06,0.15 -0.17,0.15l-3.07 0c-0.11,0 -0.17,-0.05 -0.17,-0.15l0 -0.65c0,-0.1 0.06,-0.16 0.17,-0.16l0.97 0 0 -7.27 -0.97 0c-0.11,0 -0.17,-0.05 -0.17,-0.15l0 -0.65c0,-0.1 0.06,-0.16 0.17,-0.16l1.79 0c0.25,0 0.46,0.15 0.65,0.44l3.65 5.71 0.73 1.24 0.03 0 0 -6.43 -0.99 0c-0.1,0 -0.15,-0.05 -0.15,-0.15l0 -0.65c0,-0.1 0.05,-0.16 0.15,-0.16l3.08 0c0.11,0 0.16,0.06 0.16,0.16l0 0.65c0,0.1 -0.05,0.15 -0.16,0.15l-0.98 0 0 8.08c0,0.1 -0.06,0.15 -0.17,0.15z"/>
  <path id="9" class="fil0" d="M118.98 55.64l-2.98 0c-0.11,0 -0.17,-0.05 -0.17,-0.16l0 -0.63c0,-0.11 0.06,-0.17 0.17,-0.17l0.97 0 0 -7.27 -2.42 0 0 1.36c0,0.12 -0.06,0.18 -0.18,0.18l-0.71 0c-0.12,0 -0.18,-0.06 -0.18,-0.18l0 -2.15c0,-0.11 0.06,-0.17 0.18,-0.17l7.72 0c0.12,0 0.18,0.06 0.18,0.17l0 2.15c0,0.12 -0.06,0.18 -0.18,0.18l-0.73 0c-0.11,0 -0.17,-0.06 -0.17,-0.18l0 -1.36 -2.39 0 0 7.27 0.89 0c0.12,0 0.18,0.06 0.18,0.17l0 0.63c0,0.11 -0.06,0.16 -0.18,0.16z"/>
 </g>
</svg>
