<?xml version="1.0" encoding="UTF-8"?>
<!DOCTYPE svg PUBLIC "-//W3C//DTD SVG 1.0//EN" "http://www.w3.org/TR/2001/REC-SVG-20010904/DTD/svg10.dtd">
<!-- Creator: CorelDRAW 2019 (64-Bit) -->
<svg xmlns="http://www.w3.org/2000/svg" xml:space="preserve" width="580px" height="259px" version="1.0" style="shape-rendering:geometricPrecision; text-rendering:geometricPrecision; image-rendering:optimizeQuality; fill-rule:evenodd; clip-rule:evenodd"
viewBox="0 0 123.46 55.05"
 xmlns:xlink="http://www.w3.org/1999/xlink"
 xmlns:xodm="http://www.corel.com/coreldraw/odm/2003">
 <defs>
  <style type="text/css">
   <![CDATA[
    .fil0 {fill:#2782C3;fill-rule:nonzero}
    .fil1 {fill:#69BED8;fill-rule:nonzero}
   ]]>
  </style>
 </defs>
 <g id="Text">
  <metadata id="CorelCorpID_0Corel-Layer"/>
  <path class="fil0" d="M13.45 19.75c1.13,0 2.16,-0.16 3.09,-0.49 0.93,-0.34 1.62,-0.66 2.07,-0.98l2.36 4.68c-0.58,0.49 -1.56,0.99 -2.96,1.49 -1.39,0.51 -3.05,0.76 -4.96,0.76 -1.8,0 -3.48,-0.32 -5.05,-0.94 -1.58,-0.63 -2.96,-1.51 -4.16,-2.65 -1.19,-1.14 -2.13,-2.47 -2.81,-4 -0.69,-1.53 -1.03,-3.19 -1.03,-4.98 0,-1.79 0.34,-3.46 1.01,-5.01 0.68,-1.54 1.62,-2.88 2.82,-4.02 1.19,-1.14 2.58,-2.03 4.16,-2.66 1.58,-0.64 3.26,-0.95 5.06,-0.95 1.91,0 3.57,0.25 4.96,0.76 1.4,0.5 2.38,1 2.96,1.49l-2.36 4.68c-0.45,-0.33 -1.14,-0.67 -2.07,-0.99 -0.93,-0.33 -1.96,-0.49 -3.09,-0.49 -1.25,0 -2.35,0.19 -3.28,0.58 -0.93,0.39 -1.71,0.92 -2.34,1.6 -0.63,0.67 -1.09,1.44 -1.4,2.28 -0.31,0.85 -0.46,1.74 -0.46,2.68 0,0.94 0.15,1.84 0.46,2.69 0.31,0.86 0.77,1.62 1.4,2.3 0.63,0.67 1.41,1.2 2.34,1.59 0.93,0.39 2.03,0.58 3.28,0.58z"/>
  <polygon id="1" class="fil0" points="24.32,0.44 39.86,0.44 39.86,5.27 29.81,5.27 29.81,10.23 39.76,10.23 39.76,14.91 29.81,14.91 29.81,19.94 39.86,19.94 39.86,24.76 24.32,24.76 "/>
  <polygon id="2" class="fil0" points="44.17,0.44 49.68,0.44 49.68,19.94 58.5,19.94 58.5,24.76 44.17,24.76 "/>
  <path id="3" class="fil0" d="M70.94 0c1.51,0 2.83,0.17 3.96,0.5 1.13,0.33 2.04,0.68 2.73,1.05 0.69,0.37 1.11,0.61 1.25,0.73l-2.65 4.45c-0.2,-0.15 -0.53,-0.37 -1,-0.65 -0.47,-0.28 -1.03,-0.53 -1.68,-0.75 -0.64,-0.23 -1.32,-0.34 -2.02,-0.34 -0.95,0 -1.71,0.17 -2.29,0.51 -0.58,0.34 -0.88,0.84 -0.88,1.5 0,0.46 0.16,0.86 0.47,1.22 0.32,0.37 0.8,0.71 1.44,1.04 0.65,0.32 1.46,0.68 2.46,1.06 0.91,0.33 1.76,0.72 2.56,1.18 0.8,0.45 1.5,0.99 2.11,1.61 0.61,0.62 1.09,1.34 1.45,2.15 0.35,0.81 0.53,1.73 0.53,2.76 0,1.23 -0.25,2.29 -0.76,3.19 -0.5,0.91 -1.18,1.66 -2.05,2.25 -0.86,0.59 -1.85,1.02 -2.95,1.31 -1.09,0.29 -2.24,0.44 -3.42,0.44 -1.67,0 -3.16,-0.19 -4.48,-0.57 -1.32,-0.39 -2.39,-0.8 -3.2,-1.24 -0.81,-0.44 -1.3,-0.74 -1.46,-0.88l2.75 -4.63c0.15,0.11 0.44,0.29 0.86,0.54 0.42,0.24 0.94,0.49 1.55,0.76 0.62,0.26 1.28,0.49 1.97,0.67 0.69,0.19 1.37,0.28 2.05,0.28 1.13,0 1.98,-0.22 2.54,-0.66 0.57,-0.43 0.85,-1 0.85,-1.72 0,-0.53 -0.18,-1 -0.53,-1.42 -0.36,-0.41 -0.89,-0.81 -1.61,-1.19 -0.71,-0.37 -1.6,-0.77 -2.67,-1.18 -1.07,-0.43 -2.06,-0.95 -2.99,-1.57 -0.93,-0.61 -1.68,-1.38 -2.26,-2.3 -0.58,-0.92 -0.87,-2.07 -0.87,-3.43 0,-1.36 0.39,-2.55 1.16,-3.55 0.77,-1 1.78,-1.77 3.04,-2.31 1.26,-0.54 2.6,-0.81 4.04,-0.81z"/>
  <path id="4" class="fil0" d="M96.76 0.44l5.51 0 0 14.95c0,2 -0.4,3.73 -1.18,5.2 -0.79,1.47 -1.91,2.6 -3.38,3.41 -1.46,0.8 -3.2,1.21 -5.23,1.21 -2.04,0 -3.79,-0.41 -5.27,-1.21 -1.47,-0.81 -2.6,-1.94 -3.38,-3.41 -0.78,-1.47 -1.17,-3.2 -1.17,-5.2l0 -14.95 5.49 0 0 14.65c0,1.11 0.18,2.04 0.53,2.8 0.35,0.76 0.85,1.33 1.5,1.72 0.65,0.39 1.42,0.58 2.3,0.58 0.87,0 1.63,-0.19 2.27,-0.58 0.64,-0.39 1.13,-0.96 1.48,-1.72 0.35,-0.76 0.53,-1.69 0.53,-2.8l0 -14.65z"/>
  <path id="5" class="fil0" d="M115.02 0c1.51,0 2.83,0.17 3.96,0.5 1.13,0.33 2.04,0.68 2.73,1.05 0.68,0.37 1.1,0.61 1.25,0.73l-2.66 4.45c-0.19,-0.15 -0.52,-0.37 -1,-0.65 -0.47,-0.28 -1.03,-0.53 -1.67,-0.75 -0.65,-0.23 -1.32,-0.34 -2.02,-0.34 -0.95,0 -1.71,0.17 -2.29,0.51 -0.59,0.34 -0.88,0.84 -0.88,1.5 0,0.46 0.16,0.86 0.47,1.22 0.31,0.37 0.79,0.71 1.44,1.04 0.64,0.32 1.46,0.68 2.45,1.06 0.91,0.33 1.77,0.72 2.56,1.18 0.8,0.45 1.51,0.99 2.12,1.61 0.61,0.62 1.09,1.34 1.44,2.15 0.36,0.81 0.54,1.73 0.54,2.76 0,1.23 -0.26,2.29 -0.76,3.19 -0.5,0.91 -1.19,1.66 -2.05,2.25 -0.87,0.59 -1.85,1.02 -2.95,1.31 -1.1,0.29 -2.24,0.44 -3.42,0.44 -1.67,0 -3.16,-0.19 -4.48,-0.57 -1.32,-0.39 -2.39,-0.8 -3.2,-1.24 -0.82,-0.44 -1.3,-0.74 -1.46,-0.88l2.75 -4.63c0.14,0.11 0.43,0.29 0.86,0.54 0.42,0.24 0.94,0.49 1.55,0.76 0.61,0.26 1.27,0.49 1.96,0.67 0.7,0.19 1.38,0.28 2.06,0.28 1.13,0 1.97,-0.22 2.54,-0.66 0.56,-0.43 0.85,-1 0.85,-1.72 0,-0.53 -0.18,-1 -0.54,-1.42 -0.35,-0.41 -0.89,-0.81 -1.6,-1.19 -0.71,-0.37 -1.6,-0.77 -2.67,-1.18 -1.07,-0.43 -2.07,-0.95 -2.99,-1.57 -0.93,-0.61 -1.69,-1.38 -2.26,-2.3 -0.58,-0.92 -0.87,-2.07 -0.87,-3.43 0,-1.36 0.39,-2.55 1.15,-3.55 0.77,-1 1.79,-1.77 3.04,-2.31 1.26,-0.54 2.61,-0.81 4.05,-0.81z"/>
  <path class="fil1" d="M6.26 40.19l-3.63 0c-0.1,0 -0.15,-0.05 -0.15,-0.16l0 -0.64c0,-0.1 0.05,-0.15 0.15,-0.15l0.98 0 0 -7.18 -0.98 0c-0.1,0 -0.15,-0.05 -0.15,-0.15l0 -0.65c0,-0.1 0.05,-0.15 0.15,-0.15l3.41 0c1.4,0 2.52,0.4 3.34,1.21 0.83,0.8 1.24,1.91 1.24,3.32 0,1.4 -0.39,2.51 -1.17,3.33 -0.79,0.81 -1.85,1.22 -3.19,1.22zm-1.56 -0.95l1.26 0c2.34,-0.02 3.51,-1.21 3.51,-3.58 0,-1.14 -0.3,-2.02 -0.9,-2.65 -0.61,-0.64 -1.49,-0.95 -2.65,-0.95l-1.22 0 0 7.18z"/>
  <path id="1" class="fil1" d="M15.53 40.19l-3.04 0c-0.11,0 -0.16,-0.05 -0.16,-0.16l0 -0.64c0,-0.1 0.05,-0.15 0.16,-0.15l0.96 0 0 -7.18 -0.96 0c-0.11,0 -0.16,-0.05 -0.16,-0.15l0 -0.65c0,-0.1 0.05,-0.15 0.16,-0.15l3.04 0c0.1,0 0.16,0.05 0.16,0.15l0 0.65c0,0.1 -0.06,0.15 -0.16,0.15l-0.98 0 0 7.18 0.98 0c0.1,0 0.16,0.05 0.16,0.15l0 0.64c0,0.11 -0.06,0.16 -0.16,0.16z"/>
  <path id="2" class="fil1" d="M18.67 40.19l-0.71 0c-0.11,0 -0.16,-0.05 -0.16,-0.16l0 -2.95c0,-0.11 0.05,-0.17 0.16,-0.17l0.8 0c0.1,0 0.15,0.06 0.15,0.17l0 0.26c0,0.16 0.1,0.38 0.29,0.64 0.2,0.27 0.39,0.48 0.58,0.65 0.2,0.17 0.46,0.32 0.78,0.44 0.33,0.12 0.68,0.18 1.06,0.18 0.65,0 1.15,-0.13 1.52,-0.4 0.37,-0.27 0.55,-0.65 0.55,-1.13 0,-0.28 -0.1,-0.51 -0.31,-0.71 -0.21,-0.2 -0.47,-0.36 -0.8,-0.48 -0.33,-0.12 -0.7,-0.22 -1.1,-0.33 -0.4,-0.1 -0.8,-0.21 -1.2,-0.34 -0.4,-0.13 -0.76,-0.29 -1.09,-0.47 -0.33,-0.18 -0.6,-0.44 -0.8,-0.76 -0.21,-0.32 -0.31,-0.71 -0.31,-1.14 0,-0.71 0.27,-1.3 0.8,-1.76 0.54,-0.46 1.25,-0.7 2.16,-0.7 1.13,0 1.97,0.34 2.5,1l-0.03 -0.78c0,-0.1 0.06,-0.15 0.17,-0.15l0.71 0c0.1,0 0.15,0.05 0.15,0.15l0 2.75c0,0.11 -0.05,0.16 -0.15,0.16l-0.8 0c-0.1,0 -0.15,-0.05 -0.15,-0.16l0 -0.35c0,-0.34 -0.2,-0.69 -0.58,-1.05 -0.39,-0.35 -0.96,-0.53 -1.71,-0.53 -0.56,0 -1.01,0.13 -1.35,0.4 -0.34,0.26 -0.51,0.6 -0.51,1.02 0,0.29 0.11,0.54 0.32,0.75 0.21,0.22 0.48,0.38 0.82,0.51 0.34,0.13 0.71,0.24 1.11,0.35 0.41,0.1 0.81,0.22 1.22,0.35 0.4,0.12 0.77,0.27 1.11,0.45 0.33,0.18 0.61,0.42 0.82,0.73 0.21,0.31 0.32,0.67 0.32,1.09 0,0.74 -0.27,1.35 -0.8,1.83 -0.53,0.48 -1.32,0.72 -2.38,0.72 -0.77,0 -1.41,-0.15 -1.92,-0.46 -0.51,-0.31 -0.87,-0.65 -1.1,-1.01l0.01 1.23c0,0.11 -0.05,0.16 -0.15,0.16z"/>
  <path id="3" class="fil1" d="M30.49 40.19l-3.3 0c-0.11,0 -0.16,-0.05 -0.16,-0.16l0 -0.64c0,-0.1 0.05,-0.15 0.16,-0.15l0.96 0 0 -7.18 -0.96 0c-0.11,0 -0.16,-0.05 -0.16,-0.15l0 -0.65c0,-0.1 0.05,-0.15 0.16,-0.15l3.89 0c0.9,0 1.63,0.26 2.2,0.78 0.57,0.52 0.85,1.22 0.85,2.1 0,0.88 -0.28,1.56 -0.83,2.04 -0.56,0.49 -1.34,0.73 -2.35,0.73l-1.7 0 0 2.48 1.24 0c0.1,0 0.15,0.05 0.15,0.15l0 0.64c0,0.11 -0.05,0.16 -0.15,0.16zm-1.24 -4.33l1.65 0c1.41,0 2.12,-0.62 2.12,-1.87 0,-0.65 -0.2,-1.13 -0.6,-1.45 -0.4,-0.32 -0.91,-0.48 -1.51,-0.48l-1.66 0 0 3.8z"/>
  <path id="4" class="fil1" d="M42.78 40.19l-6.92 0c-0.11,0 -0.16,-0.05 -0.16,-0.16l0 -0.64c0,-0.1 0.05,-0.15 0.16,-0.15l0.96 0 0 -7.18 -0.96 0c-0.11,0 -0.16,-0.05 -0.16,-0.15l0 -0.65c0,-0.1 0.05,-0.15 0.16,-0.15l3.02 0c0.11,0 0.17,0.05 0.17,0.16l0 0.62c0,0.11 -0.06,0.17 -0.17,0.17l-0.96 0 0 7.18 4.02 0 0 -1.24c0,-0.1 0.06,-0.15 0.17,-0.15l0.68 0c0.1,0 0.15,0.05 0.15,0.15l0 2.02c0,0.11 -0.05,0.17 -0.16,0.17z"/>
  <path id="5" class="fil1" d="M53.77 40.19l-2.85 0c-0.1,0 -0.15,-0.05 -0.15,-0.16l0 -0.64c0,-0.1 0.05,-0.15 0.15,-0.15l0.88 0 -0.82 -2.19 -3.53 0 -0.82 2.19 0.89 0c0.1,0 0.15,0.05 0.15,0.15l0 0.64c0,0.11 -0.05,0.16 -0.15,0.16l-2.85 0c-0.1,0 -0.15,-0.05 -0.15,-0.16l0 -0.64c0,-0.1 0.05,-0.15 0.15,-0.15l0.85 0 2.72 -7.18 -0.69 0c-0.11,0 -0.16,-0.05 -0.16,-0.15l0 -0.65c0,-0.1 0.05,-0.15 0.16,-0.15l1.72 0c0.21,0 0.36,0.04 0.47,0.13 0.1,0.08 0.19,0.22 0.27,0.41l2.9 7.59 0.86 0c0.11,0 0.16,0.05 0.16,0.15l0 0.64c0,0.11 -0.05,0.16 -0.16,0.16zm-3.13 -4.01l-1.4 -3.76 -0.04 0 -1.42 3.76 2.86 0z"/>
  <path id="6" class="fil1" d="M59.26 40.19l-3.05 0c-0.1,0 -0.15,-0.05 -0.15,-0.16l0 -0.64c0,-0.1 0.05,-0.15 0.15,-0.15l0.98 0 0 -2.71 -0.51 -0.87c-1.1,-1.95 -1.8,-3.15 -2.11,-3.6l-0.86 0c-0.11,0 -0.16,-0.05 -0.16,-0.15l0 -0.65c0,-0.1 0.05,-0.15 0.16,-0.15l2.84 0c0.11,0 0.16,0.05 0.16,0.15l0 0.65c0,0.1 -0.05,0.15 -0.16,0.15l-0.83 0 1.98 3.51 0.08 0 1.97 -3.51 -0.83 0c-0.1,0 -0.15,-0.05 -0.15,-0.15l0 -0.65c0,-0.1 0.05,-0.15 0.15,-0.15l2.85 0c0.11,0 0.16,0.05 0.16,0.15l0 0.65c0,0.1 -0.05,0.15 -0.16,0.15l-0.87 0c-0.41,0.6 -0.95,1.5 -1.61,2.68 -0.66,1.18 -1,1.77 -1,1.78l0 2.72 0.97 0c0.1,0 0.15,0.05 0.15,0.15l0 0.64c0,0.11 -0.05,0.16 -0.15,0.16z"/>
  <path id="7" class="fil1" d="M71.46 40.19l-3.3 0c-0.11,0 -0.17,-0.05 -0.17,-0.16l0 -0.64c0,-0.1 0.06,-0.15 0.17,-0.15l0.96 0 0 -7.18 -0.96 0c-0.11,0 -0.17,-0.05 -0.17,-0.15l0 -0.65c0,-0.1 0.06,-0.15 0.17,-0.15l3.89 0c0.89,0 1.63,0.26 2.19,0.78 0.57,0.52 0.86,1.22 0.86,2.1 0,0.88 -0.28,1.56 -0.84,2.04 -0.55,0.49 -1.34,0.73 -2.35,0.73l-1.69 0 0 2.48 1.24 0c0.1,0 0.15,0.05 0.15,0.15l0 0.64c0,0.11 -0.05,0.16 -0.15,0.16zm-1.24 -4.33l1.64 0c1.42,0 2.13,-0.62 2.13,-1.87 0,-0.65 -0.2,-1.13 -0.6,-1.45 -0.41,-0.32 -0.91,-0.48 -1.52,-0.48l-1.65 0 0 3.8z"/>
  <path id="8" class="fil1" d="M83.74 40.19l-6.91 0c-0.11,0 -0.17,-0.05 -0.17,-0.16l0 -0.64c0,-0.1 0.06,-0.15 0.17,-0.15l0.96 0 0 -7.18 -0.96 0c-0.11,0 -0.17,-0.05 -0.17,-0.15l0 -0.65c0,-0.1 0.06,-0.15 0.17,-0.15l3.02 0c0.11,0 0.16,0.05 0.16,0.16l0 0.62c0,0.11 -0.05,0.17 -0.16,0.17l-0.96 0 0 7.18 4.02 0 0 -1.24c0,-0.1 0.05,-0.15 0.16,-0.15l0.69 0c0.1,0 0.15,0.05 0.15,0.15l0 2.02c0,0.11 -0.06,0.17 -0.17,0.17z"/>
  <path id="9" class="fil1" d="M91.57 36.9l0 -4.84 -0.98 0c-0.1,0 -0.15,-0.05 -0.15,-0.15l0 -0.65c0,-0.1 0.05,-0.15 0.15,-0.15l3.05 0c0.1,0 0.15,0.05 0.15,0.15l0 0.65c0,0.1 -0.05,0.15 -0.15,0.15l-0.97 0 0 4.73c0,1.13 -0.3,2 -0.89,2.59 -0.6,0.6 -1.44,0.89 -2.52,0.89 -1.08,0 -1.92,-0.29 -2.52,-0.89 -0.6,-0.59 -0.9,-1.46 -0.9,-2.59l0 -4.73 -0.96 0c-0.11,0 -0.16,-0.05 -0.16,-0.15l0 -0.65c0,-0.1 0.05,-0.15 0.16,-0.15l3.03 0c0.11,0 0.17,0.05 0.17,0.15l0 0.65c0,0.1 -0.06,0.15 -0.17,0.15l-0.97 0 0 4.76c0,1.62 0.78,2.43 2.33,2.43 0.79,0 1.37,-0.21 1.74,-0.62 0.37,-0.42 0.56,-1 0.56,-1.73z"/>
  <path id="10" class="fil1" d="M103.42 40.19l-0.67 0c-0.11,0 -0.16,-0.05 -0.16,-0.16l0.01 -0.87c-0.74,0.74 -1.73,1.11 -2.96,1.11 -1.24,0 -2.27,-0.42 -3.09,-1.28 -0.83,-0.86 -1.24,-1.99 -1.24,-3.39 0,-0.94 0.21,-1.76 0.62,-2.47 0.42,-0.71 0.95,-1.23 1.6,-1.58 0.64,-0.34 1.34,-0.52 2.09,-0.52 1.29,0 2.22,0.4 2.78,1.2l-0.01 -0.97c-0.02,-0.1 0.03,-0.15 0.15,-0.15l0.71 0c0.11,0 0.16,0.05 0.16,0.15l0 2.61c0,0.1 -0.05,0.15 -0.16,0.15l-0.8 0c-0.1,0 -0.15,-0.05 -0.15,-0.15l0 -0.16c0,-0.37 -0.26,-0.73 -0.77,-1.1 -0.51,-0.36 -1.16,-0.54 -1.95,-0.54 -0.79,0 -1.5,0.33 -2.14,0.98 -0.64,0.65 -0.96,1.53 -0.96,2.62 0,1.09 0.32,1.95 0.97,2.59 0.64,0.63 1.35,0.95 2.14,0.95 0.8,0 1.42,-0.12 1.88,-0.38 0.46,-0.25 0.8,-0.55 1.03,-0.89l0 -0.99 -2.35 0c-0.1,0 -0.15,-0.05 -0.15,-0.16l0 -0.59c0,-0.1 0.05,-0.15 0.15,-0.15l3.27 0c0.11,0 0.16,0.05 0.16,0.15l0 3.83c0,0.11 -0.05,0.16 -0.16,0.16z"/>
  <path id="11" class="fil1" d="M108.93 40.19l-3.03 0c-0.11,0 -0.16,-0.05 -0.16,-0.16l0 -0.64c0,-0.1 0.05,-0.15 0.16,-0.15l0.96 0 0 -7.18 -0.96 0c-0.11,0 -0.16,-0.05 -0.16,-0.15l0 -0.65c0,-0.1 0.05,-0.15 0.16,-0.15l3.03 0c0.11,0 0.17,0.05 0.17,0.15l0 0.65c0,0.1 -0.06,0.15 -0.17,0.15l-0.97 0 0 7.18 0.97 0c0.11,0 0.17,0.05 0.17,0.15l0 0.64c0,0.11 -0.06,0.16 -0.17,0.16z"/>
  <path id="12" class="fil1" d="M119.01 40.19l-0.68 0c-0.16,0 -0.29,-0.04 -0.38,-0.1 -0.1,-0.06 -0.18,-0.16 -0.27,-0.3l-3.65 -5.71 -0.63 -1.06 -0.03 0 0 6.22 0.97 0c0.11,0 0.17,0.05 0.17,0.15l0 0.64c0,0.11 -0.06,0.16 -0.17,0.16l-3.03 0c-0.11,0 -0.16,-0.05 -0.16,-0.16l0 -0.64c0,-0.1 0.05,-0.15 0.16,-0.15l0.96 0 0 -7.18 -0.96 0c-0.11,0 -0.16,-0.05 -0.16,-0.15l0 -0.65c0,-0.1 0.05,-0.15 0.16,-0.15l1.77 0c0.24,0 0.46,0.14 0.65,0.43l3.6 5.64 0.72 1.22 0.02 0 0 -6.34 -0.97 0c-0.1,0 -0.15,-0.05 -0.15,-0.15l0 -0.65c0,-0.1 0.05,-0.15 0.15,-0.15l3.05 0c0.1,0 0.15,0.05 0.15,0.15l0 0.65c0,0.1 -0.05,0.15 -0.15,0.15l-0.98 0 0 7.97c0,0.11 -0.05,0.16 -0.16,0.16z"/>
  <path class="fil0" d="M6.21 54.96l-3.49 0c-0.11,0 -0.16,-0.05 -0.16,-0.15l0 -0.65c0,-0.1 0.05,-0.15 0.16,-0.15l0.96 0 0 -7.18 -0.96 0c-0.11,0 -0.16,-0.05 -0.16,-0.15l0 -0.65c0,-0.1 0.05,-0.15 0.16,-0.15l6.49 0c0.11,0 0.16,0.05 0.16,0.15l0 2.04c0,0.11 -0.05,0.16 -0.16,0.16l-0.69 0c-0.1,0 -0.15,-0.05 -0.15,-0.16l0 -1.24 -3.59 0 0 3.13 2.97 0c0.11,0 0.17,0.06 0.17,0.16l0 0.64c0,0.1 -0.06,0.15 -0.17,0.15l-2.97 0 0 3.1 1.43 0c0.1,0 0.15,0.05 0.15,0.15l0 0.65c0,0.1 -0.05,0.15 -0.15,0.15z"/>
  <path id="1" class="fil0" d="M23.42 50.38c0,1.38 -0.42,2.51 -1.25,3.37 -0.83,0.86 -1.87,1.3 -3.13,1.3 -1.26,0 -2.31,-0.44 -3.15,-1.31 -0.85,-0.87 -1.27,-2 -1.27,-3.38 0,-1.38 0.44,-2.48 1.3,-3.31 0.87,-0.83 1.91,-1.24 3.11,-1.24 1.21,0 2.24,0.41 3.1,1.24 0.86,0.83 1.29,1.94 1.29,3.33zm-6.64 2.68c0.64,0.64 1.39,0.96 2.25,0.96 0.86,0 1.61,-0.32 2.25,-0.96 0.64,-0.65 0.96,-1.53 0.96,-2.66 0,-1.12 -0.32,-2 -0.98,-2.64 -0.65,-0.64 -1.39,-0.96 -2.23,-0.96 -0.83,0 -1.58,0.32 -2.23,0.96 -0.66,0.64 -0.99,1.52 -0.99,2.64 0,1.13 0.32,2.01 0.97,2.66z"/>
  <path id="2" class="fil0" d="M36.36 54.96l-1.1 0c-0.31,0 -0.56,-0.2 -0.76,-0.61l-1.19 -2.41c-0.1,-0.21 -0.21,-0.37 -0.32,-0.47 -0.12,-0.1 -0.28,-0.16 -0.48,-0.17l-1.6 0 0 2.71 1.13 0c0.11,0 0.16,0.05 0.16,0.15l0 0.65c0,0.1 -0.05,0.15 -0.16,0.15l-3.19 0c-0.11,0 -0.17,-0.05 -0.17,-0.15l0 -0.65c0,-0.1 0.06,-0.15 0.17,-0.15l0.96 0 0 -7.18 -0.96 0c-0.11,0 -0.17,-0.05 -0.17,-0.15l0 -0.65c0,-0.1 0.06,-0.15 0.17,-0.15l3.89 0c0.9,0 1.63,0.24 2.2,0.72 0.56,0.47 0.85,1.14 0.85,2.01 0,1.33 -0.62,2.15 -1.86,2.48 0.16,0.13 0.36,0.41 0.59,0.85l1.06 2.07 0.78 0c0.1,0 0.15,0.05 0.15,0.15l0 0.65c0,0.1 -0.05,0.15 -0.15,0.15zm-5.45 -4.55l1.61 0c1.44,0 2.15,-0.59 2.15,-1.76 0,-1.21 -0.71,-1.82 -2.15,-1.82l-1.61 0 0 3.58z"/>
  <path id="3" class="fil0" d="M50.02 54.96l-3.62 0c-0.11,0 -0.16,-0.05 -0.16,-0.15l0 -0.65c0,-0.1 0.05,-0.15 0.16,-0.15l0.97 0 0 -7.18 -0.97 0c-0.11,0 -0.16,-0.05 -0.16,-0.15l0 -0.65c0,-0.1 0.05,-0.15 0.16,-0.15l3.41 0c1.4,0 2.51,0.4 3.34,1.21 0.82,0.8 1.23,1.91 1.23,3.32 0,1.4 -0.39,2.51 -1.17,3.33 -0.78,0.81 -1.85,1.22 -3.19,1.22zm-1.55 -0.95l1.25 0c2.34,-0.02 3.51,-1.21 3.51,-3.58 0,-1.14 -0.3,-2.02 -0.9,-2.65 -0.6,-0.63 -1.48,-0.95 -2.65,-0.95l-1.21 0 0 7.18z"/>
  <path id="4" class="fil0" d="M67.5 54.96l-1.1 0c-0.31,0 -0.56,-0.2 -0.76,-0.61l-1.19 -2.41c-0.1,-0.21 -0.21,-0.37 -0.32,-0.47 -0.12,-0.1 -0.27,-0.16 -0.48,-0.17l-1.6 0 0 2.71 1.14 0c0.1,0 0.15,0.05 0.15,0.15l0 0.65c0,0.1 -0.05,0.15 -0.15,0.15l-3.2 0c-0.11,0 -0.17,-0.05 -0.17,-0.15l0 -0.65c0,-0.1 0.06,-0.15 0.17,-0.15l0.96 0 0 -7.18 -0.96 0c-0.11,0 -0.17,-0.05 -0.17,-0.15l0 -0.65c0,-0.1 0.06,-0.15 0.17,-0.15l3.89 0c0.9,0 1.64,0.24 2.2,0.72 0.57,0.47 0.85,1.14 0.85,2.01 0,1.33 -0.62,2.15 -1.86,2.48 0.16,0.13 0.36,0.41 0.59,0.85l1.07 2.07 0.77 0c0.1,0 0.15,0.05 0.15,0.15l0 0.65c0,0.1 -0.05,0.15 -0.15,0.15zm-5.45 -4.55l1.62 0c1.43,0 2.15,-0.59 2.15,-1.76 0,-1.21 -0.72,-1.82 -2.15,-1.82l-1.62 0 0 3.58z"/>
  <path id="5" class="fil0" d="M79.47 51.67l0 -4.84 -0.97 0c-0.1,0 -0.15,-0.05 -0.15,-0.15l0 -0.65c0,-0.1 0.05,-0.15 0.15,-0.15l3.04 0c0.11,0 0.16,0.05 0.16,0.15l0 0.65c0,0.1 -0.05,0.15 -0.16,0.15l-0.97 0 0 4.73c0,1.14 -0.3,2 -0.89,2.6 -0.59,0.59 -1.43,0.89 -2.52,0.89 -1.08,0 -1.92,-0.3 -2.52,-0.89 -0.6,-0.6 -0.89,-1.46 -0.89,-2.6l0 -4.73 -0.97 0c-0.11,0 -0.16,-0.05 -0.16,-0.15l0 -0.65c0,-0.1 0.05,-0.15 0.16,-0.15l3.04 0c0.11,0 0.16,0.05 0.16,0.15l0 0.65c0,0.1 -0.05,0.15 -0.16,0.15l-0.98 0 0 4.77c0,1.61 0.78,2.42 2.33,2.42 0.79,0 1.37,-0.21 1.75,-0.62 0.37,-0.42 0.55,-1 0.55,-1.73z"/>
  <path id="6" class="fil0" d="M90.65 54.96l-3.3 0c-0.11,0 -0.16,-0.05 -0.16,-0.15l0 -0.65c0,-0.1 0.05,-0.15 0.16,-0.15l0.96 0 0 -7.18 -0.96 0c-0.11,0 -0.16,-0.05 -0.16,-0.15l0 -0.65c0,-0.1 0.05,-0.15 0.16,-0.15l3.89 0c0.9,0 1.63,0.26 2.2,0.78 0.57,0.52 0.85,1.22 0.85,2.1 0,0.88 -0.28,1.56 -0.83,2.05 -0.56,0.48 -1.34,0.72 -2.36,0.72l-1.69 0 0 2.48 1.24 0c0.1,0 0.15,0.05 0.15,0.15l0 0.65c0,0.1 -0.05,0.15 -0.15,0.15zm-1.24 -4.33l1.64 0c1.42,0 2.13,-0.62 2.13,-1.87 0,-0.65 -0.2,-1.13 -0.6,-1.45 -0.4,-0.32 -0.91,-0.48 -1.51,-0.48l-1.66 0 0 3.8z"/>
  <path id="7" class="fil0" d="M107.4 54.96l-2.85 0c-0.11,0 -0.16,-0.05 -0.16,-0.15l0 -0.65c0,-0.1 0.05,-0.15 0.16,-0.15l0.88 0 -0.82 -2.19 -3.53 0 -0.82 2.19 0.89 0c0.1,0 0.15,0.05 0.15,0.15l0 0.65c0,0.1 -0.05,0.15 -0.15,0.15l-2.85 0c-0.1,0 -0.15,-0.05 -0.15,-0.15l0 -0.65c0,-0.1 0.05,-0.15 0.15,-0.15l0.85 0 2.72 -7.18 -0.69 0c-0.11,0 -0.16,-0.05 -0.16,-0.15l0 -0.65c0,-0.1 0.05,-0.15 0.16,-0.15l1.72 0c0.2,0 0.36,0.04 0.46,0.13 0.11,0.08 0.2,0.22 0.28,0.41l2.9 7.59 0.86 0c0.1,0 0.15,0.05 0.15,0.15l0 0.65c0,0.1 -0.05,0.15 -0.15,0.15zm-3.13 -4.01l-1.41 -3.75 -0.03 0 -1.42 3.75 2.86 0z"/>
  <path id="8" class="fil0" d="M119.71 54.96l-6.92 0c-0.11,0 -0.16,-0.05 -0.16,-0.15l0 -0.65c0,-0.1 0.05,-0.15 0.16,-0.15l0.96 0 0 -7.18 -0.96 0c-0.11,0 -0.16,-0.05 -0.16,-0.15l0 -0.65c0,-0.1 0.05,-0.15 0.16,-0.15l3.02 0c0.11,0 0.17,0.06 0.17,0.17l0 0.62c0,0.1 -0.06,0.16 -0.17,0.16l-0.96 0 0 7.18 4.02 0 0 -1.24c0,-0.1 0.06,-0.15 0.17,-0.15l0.68 0c0.1,0 0.15,0.05 0.15,0.15l0 2.02c0,0.11 -0.05,0.17 -0.16,0.17z"/>
 </g>
</svg>
