<?xml version="1.0" encoding="UTF-8"?>
<!DOCTYPE svg PUBLIC "-//W3C//DTD SVG 1.0//EN" "http://www.w3.org/TR/2001/REC-SVG-20010904/DTD/svg10.dtd">
<!-- Creator: CorelDRAW 2019 (64-Bit) -->
<svg xmlns="http://www.w3.org/2000/svg" xml:space="preserve" width="582px" height="261px" version="1.0" style="shape-rendering:geometricPrecision; text-rendering:geometricPrecision; image-rendering:optimizeQuality; fill-rule:evenodd; clip-rule:evenodd"
viewBox="0 0 290.78 130.29"
 xmlns:xlink="http://www.w3.org/1999/xlink"
 xmlns:xodm="http://www.corel.com/coreldraw/odm/2003">
 <defs>
  <style type="text/css">
   <![CDATA[
    .str0 {stroke:#CCCCCC;stroke-width:1.04;stroke-miterlimit:2.61313}
    .fil0 {fill:none}
    .fil1 {fill:#2782C3;fill-rule:nonzero}
   ]]>
  </style>
 </defs>
 <g id="Boxes">
  <metadata id="CorelCorpID_0Corel-Layer"/>
  <g id="_1961310525056">
   <rect class="fil0 str0" x="0.52" y="0.52" width="289.74" height="59.15"/>
   <rect class="fil0 str0" x="4.95" y="73.35" width="277.27" height="21.69"/>
   <rect class="fil0 str0" x="4.22" y="108.08" width="277.27" height="21.69"/>
  </g>
 </g>
 <g id="Text">
  <metadata id="CorelCorpID_1Corel-Layer"/>
  <path class="fil1" d="M32.09 46.88c2.65,0 5.07,-0.39 7.25,-1.17 2.18,-0.78 3.79,-1.54 4.86,-2.29l5.53 10.98c-1.35,1.15 -3.66,2.32 -6.93,3.5 -3.27,1.19 -7.16,1.78 -11.66,1.78 -4.21,0 -8.16,-0.74 -11.85,-2.21 -3.69,-1.47 -6.93,-3.55 -9.75,-6.21 -2.81,-2.67 -5.01,-5.8 -6.61,-9.39 -1.6,-3.59 -2.41,-7.48 -2.41,-11.69 0,-4.21 0.79,-8.13 2.38,-11.74 1.59,-3.62 3.79,-6.76 6.6,-9.45 2.81,-2.68 6.07,-4.77 9.77,-6.25 3.71,-1.49 7.66,-2.22 11.87,-2.22 4.5,0 8.39,0.59 11.66,1.77 3.27,1.18 5.58,2.35 6.93,3.5l-5.53 10.99c-1.07,-0.78 -2.68,-1.56 -4.86,-2.32 -2.18,-0.77 -4.6,-1.14 -7.25,-1.14 -2.94,0 -5.51,0.45 -7.7,1.35 -2.19,0.91 -4.02,2.17 -5.49,3.75 -1.47,1.59 -2.57,3.37 -3.29,5.36 -0.72,1.99 -1.08,4.08 -1.08,6.27 0,2.22 0.36,4.33 1.08,6.33 0.72,2.01 1.82,3.81 3.29,5.39 1.47,1.59 3.3,2.83 5.49,3.74 2.19,0.9 4.76,1.37 7.7,1.37z"/>
  <polygon id="1" class="fil1" points="57.6,1.56 94.06,1.56 94.06,12.89 70.49,12.89 70.49,24.52 93.84,24.52 93.84,35.5 70.49,35.5 70.49,47.31 94.06,47.31 94.06,58.64 57.6,58.64 "/>
  <polygon id="2" class="fil1" points="104.18,1.56 117.11,1.56 117.11,47.31 137.82,47.31 137.82,58.64 104.18,58.64 "/>
  <path id="3" class="fil1" d="M167.01 0.52c3.55,0 6.64,0.39 9.3,1.17 2.65,0.78 4.78,1.6 6.4,2.46 1.61,0.87 2.59,1.44 2.94,1.73l-6.23 10.42c-0.46,-0.34 -1.24,-0.85 -2.35,-1.51 -1.11,-0.66 -2.42,-1.25 -3.93,-1.77 -1.52,-0.52 -3.1,-0.78 -4.75,-0.78 -2.22,0 -4,0.39 -5.37,1.18 -1.37,0.79 -2.07,1.97 -2.07,3.53 0,1.07 0.38,2.02 1.12,2.87 0.73,0.85 1.85,1.66 3.37,2.42 1.51,0.77 3.43,1.6 5.76,2.5 2.14,0.77 4.14,1.7 6.01,2.76 1.88,1.07 3.54,2.32 4.96,3.78 1.43,1.46 2.55,3.14 3.39,5.04 0.84,1.91 1.25,4.07 1.25,6.49 0,2.88 -0.59,5.38 -1.77,7.5 -1.18,2.12 -2.78,3.87 -4.81,5.26 -2.04,1.38 -4.34,2.41 -6.92,3.08 -2.58,0.68 -5.26,1.03 -8.03,1.03 -3.92,0 -7.42,-0.45 -10.52,-1.34 -3.1,-0.9 -5.61,-1.86 -7.51,-2.9 -1.91,-1.04 -3.04,-1.73 -3.42,-2.08l6.44 -10.85c0.35,0.26 1.03,0.68 2.02,1.25 1,0.58 2.21,1.17 3.65,1.79 1.44,0.62 2.98,1.15 4.61,1.59 1.63,0.43 3.23,0.64 4.82,0.64 2.65,0 4.64,-0.52 5.96,-1.54 1.33,-1.02 1.99,-2.36 1.99,-4.03 0,-1.24 -0.42,-2.35 -1.25,-3.33 -0.84,-0.98 -2.09,-1.92 -3.76,-2.8 -1.68,-0.88 -3.77,-1.8 -6.27,-2.78 -2.51,-1.01 -4.85,-2.24 -7.02,-3.68 -2.18,-1.44 -3.95,-3.24 -5.31,-5.4 -1.35,-2.17 -2.03,-4.85 -2.03,-8.05 0,-3.2 0.91,-5.98 2.71,-8.33 1.8,-2.35 4.18,-4.15 7.13,-5.42 2.96,-1.27 6.12,-1.9 9.49,-1.9z"/>
  <path id="4" class="fil1" d="M227.59 1.56l12.93 0 0 35.07c0,4.7 -0.92,8.76 -2.76,12.21 -1.85,3.44 -4.49,6.11 -7.92,8 -3.43,1.88 -7.52,2.84 -12.28,2.84 -4.78,0 -8.91,-0.96 -12.37,-2.84 -3.46,-1.89 -6.09,-4.56 -7.92,-8 -1.84,-3.45 -2.76,-7.51 -2.76,-12.21l0 -35.07 12.89 0 0 34.38c0,2.59 0.42,4.78 1.24,6.57 0.82,1.79 1.99,3.13 3.52,4.03 1.52,0.91 3.33,1.37 5.4,1.37 2.05,0 3.82,-0.46 5.32,-1.37 1.5,-0.9 2.67,-2.24 3.49,-4.03 0.82,-1.79 1.22,-3.98 1.22,-6.57l0 -34.38z"/>
  <path id="5" class="fil1" d="M270.45 0.52c3.54,0 6.64,0.39 9.3,1.17 2.65,0.78 4.78,1.6 6.4,2.46 1.61,0.87 2.59,1.44 2.94,1.73l-6.23 10.42c-0.46,-0.34 -1.24,-0.85 -2.35,-1.51 -1.11,-0.66 -2.42,-1.25 -3.94,-1.77 -1.51,-0.52 -3.09,-0.78 -4.74,-0.78 -2.22,0 -4.01,0.39 -5.37,1.18 -1.37,0.79 -2.07,1.97 -2.07,3.53 0,1.07 0.38,2.02 1.11,2.87 0.74,0.85 1.86,1.66 3.38,2.42 1.51,0.77 3.43,1.6 5.76,2.5 2.14,0.77 4.14,1.7 6.01,2.76 1.88,1.07 3.54,2.32 4.96,3.78 1.43,1.46 2.55,3.14 3.39,5.04 0.84,1.91 1.25,4.07 1.25,6.49 0,2.88 -0.59,5.38 -1.77,7.5 -1.18,2.12 -2.78,3.87 -4.81,5.26 -2.04,1.38 -4.34,2.41 -6.92,3.08 -2.58,0.68 -5.26,1.03 -8.03,1.03 -3.92,0 -7.43,-0.45 -10.52,-1.34 -3.1,-0.9 -5.61,-1.86 -7.51,-2.9 -1.91,-1.04 -3.05,-1.73 -3.42,-2.08l6.44 -10.85c0.35,0.26 1.03,0.68 2.02,1.25 1,0.58 2.21,1.17 3.65,1.79 1.44,0.62 2.98,1.15 4.61,1.59 1.63,0.43 3.23,0.64 4.81,0.64 2.66,0 4.65,-0.52 5.97,-1.54 1.33,-1.02 1.99,-2.36 1.99,-4.03 0,-1.24 -0.42,-2.35 -1.25,-3.33 -0.84,-0.98 -2.09,-1.92 -3.76,-2.8 -1.68,-0.88 -3.77,-1.8 -6.27,-2.78 -2.51,-1.01 -4.85,-2.24 -7.02,-3.68 -2.18,-1.44 -3.95,-3.24 -5.31,-5.4 -1.35,-2.17 -2.03,-4.85 -2.03,-8.05 0,-3.2 0.91,-5.98 2.71,-8.33 1.8,-2.35 4.18,-4.15 7.13,-5.42 2.96,-1.27 6.12,-1.9 9.49,-1.9z"/>
  <path class="fil1" d="M8.96 129.77l-1.66 0c-0.26,0 -0.39,-0.12 -0.39,-0.35l0 -6.95c0,-0.25 0.13,-0.38 0.39,-0.38l1.87 0c0.24,0 0.36,0.13 0.36,0.38l0 0.63c0,0.37 0.22,0.87 0.68,1.5 0.45,0.62 0.91,1.13 1.36,1.52 0.46,0.4 1.07,0.74 1.83,1.03 0.76,0.28 1.58,0.43 2.47,0.43 1.53,0 2.72,-0.32 3.58,-0.95 0.86,-0.63 1.29,-1.51 1.29,-2.64 0,-0.65 -0.24,-1.21 -0.73,-1.68 -0.48,-0.46 -1.11,-0.83 -1.88,-1.11 -0.77,-0.28 -1.63,-0.53 -2.57,-0.77 -0.94,-0.24 -1.88,-0.51 -2.82,-0.82 -0.94,-0.3 -1.79,-0.67 -2.56,-1.1 -0.77,-0.42 -1.4,-1.01 -1.89,-1.78 -0.48,-0.76 -0.72,-1.65 -0.72,-2.68 0,-1.66 0.62,-3.04 1.88,-4.12 1.26,-1.09 2.94,-1.64 5.06,-1.64 2.67,0 4.63,0.79 5.87,2.35l-0.06 -1.84c0,-0.24 0.13,-0.36 0.39,-0.36l1.66 0c0.24,0 0.36,0.12 0.36,0.36l0 6.47c0,0.23 -0.12,0.35 -0.36,0.35l-1.87 0c-0.24,0 -0.35,-0.12 -0.35,-0.35l0 -0.83c0,-0.82 -0.46,-1.64 -1.37,-2.47 -0.91,-0.83 -2.24,-1.24 -4,-1.24 -1.31,0 -2.36,0.31 -3.16,0.93 -0.8,0.62 -1.2,1.42 -1.2,2.39 0,0.69 0.24,1.29 0.74,1.78 0.49,0.49 1.13,0.89 1.93,1.19 0.79,0.29 1.66,0.56 2.61,0.81 0.95,0.25 1.89,0.52 2.84,0.82 0.95,0.29 1.82,0.65 2.62,1.07 0.79,0.41 1.43,0.98 1.92,1.7 0.5,0.72 0.74,1.58 0.74,2.57 0,1.74 -0.62,3.17 -1.86,4.3 -1.25,1.13 -3.11,1.69 -5.58,1.69 -1.82,0 -3.32,-0.36 -4.51,-1.1 -1.19,-0.73 -2.05,-1.52 -2.58,-2.37l0.03 2.91c0,0.23 -0.12,0.35 -0.36,0.35z"/>
  <path id="1" class="fil1" d="M41.19 122.06l0 -11.36 -2.29 0c-0.23,0 -0.35,-0.12 -0.35,-0.36l0 -1.51c0,-0.24 0.12,-0.36 0.35,-0.36l7.15 0c0.24,0 0.36,0.12 0.36,0.36l0 1.51c0,0.24 -0.12,0.36 -0.36,0.36l-2.28 0 0 11.09c0,2.67 -0.7,4.71 -2.09,6.1 -1.4,1.39 -3.37,2.09 -5.91,2.09 -2.54,0 -4.51,-0.7 -5.92,-2.09 -1.4,-1.39 -2.1,-3.43 -2.1,-6.1l0 -11.09 -2.26 0c-0.25,0 -0.38,-0.12 -0.38,-0.36l0 -1.51c0,-0.24 0.13,-0.36 0.38,-0.36l7.12 0c0.26,0 0.39,0.12 0.39,0.36l0 1.51c0,0.24 -0.13,0.36 -0.39,0.36l-2.28 0 0 11.18c0,3.8 1.82,5.7 5.46,5.7 1.86,0 3.22,-0.49 4.09,-1.47 0.87,-0.98 1.31,-2.33 1.31,-4.05z"/>
  <path id="2" class="fil1" d="M65.82 129.77l-1.61 0c-0.37,0 -0.67,-0.07 -0.89,-0.22 -0.21,-0.15 -0.42,-0.38 -0.62,-0.7l-8.57 -13.41 -1.49 -2.49 -0.06 0 0 14.6 2.29 0c0.26,0 0.39,0.12 0.39,0.35l0 1.52c0,0.23 -0.13,0.35 -0.39,0.35l-7.12 0c-0.26,0 -0.39,-0.12 -0.39,-0.35l0 -1.52c0,-0.23 0.13,-0.35 0.39,-0.35l2.25 0 0 -16.85 -2.25 0c-0.26,0 -0.39,-0.12 -0.39,-0.36l0 -1.51c0,-0.24 0.13,-0.36 0.39,-0.36l4.15 0c0.58,0 1.08,0.34 1.52,1.01l8.45 13.23 1.69 2.88 0.06 0 0 -14.89 -2.28 0c-0.24,0 -0.36,-0.12 -0.36,-0.36l0 -1.51c0,-0.24 0.12,-0.36 0.36,-0.36l7.15 0c0.23,0 0.35,0.12 0.35,0.36l0 1.51c0,0.24 -0.12,0.36 -0.35,0.36l-2.29 0 0 18.72c0,0.23 -0.13,0.35 -0.38,0.35z"/>
  <path id="3" class="fil1" d="M86.12 122.06l0 -11.36 -2.29 0c-0.24,0 -0.36,-0.12 -0.36,-0.36l0 -1.51c0,-0.24 0.12,-0.36 0.36,-0.36l7.15 0c0.24,0 0.36,0.12 0.36,0.36l0 1.51c0,0.24 -0.12,0.36 -0.36,0.36l-2.28 0 0 11.09c0,2.67 -0.7,4.71 -2.1,6.1 -1.39,1.39 -3.36,2.09 -5.9,2.09 -2.54,0 -4.51,-0.7 -5.92,-2.09 -1.4,-1.39 -2.1,-3.43 -2.1,-6.1l0 -11.09 -2.26 0c-0.26,0 -0.38,-0.12 -0.38,-0.36l0 -1.51c0,-0.24 0.12,-0.36 0.38,-0.36l7.12 0c0.26,0 0.39,0.12 0.39,0.36l0 1.51c0,0.24 -0.13,0.36 -0.39,0.36l-2.28 0 0 11.18c0,3.8 1.82,5.7 5.46,5.7 1.85,0 3.22,-0.49 4.09,-1.47 0.87,-0.98 1.31,-2.33 1.31,-4.05z"/>
  <path id="4" class="fil1" d="M116.35 129.77l-6.85 0c-0.24,0 -0.36,-0.12 -0.36,-0.35l0 -1.52c0,-0.23 0.12,-0.35 0.36,-0.35l1.99 0 0 -14.78 -0.03 0 -5.64 14.01c-0.24,0.59 -0.67,0.89 -1.3,0.89 -0.64,0 -1.07,-0.3 -1.31,-0.89l-5.64 -14.01 -0.06 0 0 14.78 1.99 0c0.26,0 0.39,0.12 0.39,0.35l0 1.52c0,0.23 -0.13,0.35 -0.39,0.35l-6.82 0c-0.26,0 -0.39,-0.12 -0.39,-0.35l0 -1.52c0,-0.23 0.13,-0.35 0.39,-0.35l2.25 0 0 -16.85 -2.25 0c-0.26,0 -0.39,-0.12 -0.39,-0.36l0 -1.51c0,-0.24 0.13,-0.36 0.39,-0.36l4.57 0c0.67,0 1.13,0.34 1.39,1.01l4.42 10.68 1.4 3.74 0.11 0c0.56,-1.54 1.01,-2.77 1.37,-3.68l4.45 -10.74c0.26,-0.67 0.73,-1.01 1.42,-1.01l4.54 0c0.24,0 0.36,0.12 0.36,0.36l0 1.51c0,0.24 -0.12,0.36 -0.36,0.36l-2.28 0 0 16.85 2.28 0c0.24,0 0.36,0.12 0.36,0.35l0 1.52c0,0.23 -0.12,0.35 -0.36,0.35z"/>
  <path id="5" class="fil1" d="M143.92 129.77l-15.75 0c-0.26,0 -0.39,-0.12 -0.39,-0.35l0 -1.52c0,-0.23 0.13,-0.35 0.39,-0.35l2.25 0 0 -16.85 -2.25 0c-0.26,0 -0.39,-0.12 -0.39,-0.36l0 -1.51c0,-0.24 0.13,-0.36 0.39,-0.36l15.75 0c0.26,0 0.38,0.12 0.38,0.36l0 4.77c0,0.26 -0.12,0.39 -0.38,0.39l-1.6 0c-0.24,0 -0.36,-0.13 -0.36,-0.39l0 -2.9 -8.96 0 0 7.35 7.51 0c0.25,0 0.38,0.12 0.38,0.36l0 1.51c0,0.24 -0.13,0.36 -0.38,0.36l-7.51 0 0 7.27 8.93 0 0 -2.91c0,-0.24 0.13,-0.36 0.39,-0.36l1.6 0c0.26,0 0.38,0.12 0.38,0.36l0 4.78c0,0.23 -0.12,0.35 -0.38,0.35z"/>
  <path id="6" class="fil1" d="M165.49 129.77l-2.58 0c-0.71,0 -1.3,-0.47 -1.78,-1.42l-2.79 -5.67c-0.15,-0.31 -0.3,-0.56 -0.43,-0.74 -0.12,-0.18 -0.4,-0.35 -0.83,-0.53 -0.42,-0.18 -0.95,-0.27 -1.58,-0.27l-4.19 0 0 6.41 2.73 0c0.26,0 0.39,0.12 0.39,0.35l0 1.52c0,0.23 -0.13,0.35 -0.39,0.35l-7.56 0c-0.26,0 -0.39,-0.12 -0.39,-0.35l0 -1.52c0,-0.23 0.13,-0.35 0.39,-0.35l2.25 0 0 -16.85 -2.25 0c-0.26,0 -0.39,-0.12 -0.39,-0.36l0 -1.51c0,-0.24 0.13,-0.36 0.39,-0.36l6.64 0c0.24,0 0.36,0.12 0.36,0.36l0 1.51c0,0.24 -0.12,0.36 -0.36,0.36l-1.81 0 0 8.33 3.12 0c2.09,0 3.65,-0.61 4.67,-1.85 1.02,-1.24 1.53,-3.4 1.53,-6.48l-2.02 0c-0.24,0 -0.36,-0.12 -0.36,-0.36l0 -1.51c0,-0.24 0.12,-0.36 0.36,-0.36l6.62 0c0.23,0 0.35,0.12 0.35,0.36l0 1.51c0,0.24 -0.12,0.36 -0.35,0.36l-2.05 0c0,4.76 -1.35,7.88 -4.04,9.34 0.46,0.22 0.82,0.5 1.07,0.85 0.26,0.34 0.56,0.85 0.89,1.53l2.58 5.13 1.81 0c0.24,0 0.36,0.12 0.36,0.35l0 1.52c0,0.23 -0.12,0.35 -0.36,0.35z"/>
  <path id="7" class="fil1" d="M183.33 129.77l-16.23 0c-0.26,0 -0.38,-0.12 -0.38,-0.35l0 -1.52c0,-0.23 0.12,-0.35 0.38,-0.35l2.26 0 0 -16.85 -2.26 0c-0.26,0 -0.38,-0.12 -0.38,-0.36l0 -1.51c0,-0.24 0.12,-0.36 0.38,-0.36l7.09 0c0.26,0 0.39,0.13 0.39,0.39l0 1.45c0,0.26 -0.13,0.39 -0.39,0.39l-2.25 0 0 16.85 9.43 0 0 -2.91c0,-0.24 0.13,-0.36 0.39,-0.36l1.6 0c0.24,0 0.36,0.12 0.36,0.36l0 4.75c0,0.25 -0.13,0.38 -0.39,0.38z"/>
  <path id="8" class="fil1" d="M200.51 129.77l-15.75 0c-0.26,0 -0.39,-0.12 -0.39,-0.35l0 -1.52c0,-0.23 0.13,-0.35 0.39,-0.35l2.25 0 0 -16.85 -2.25 0c-0.26,0 -0.39,-0.12 -0.39,-0.36l0 -1.51c0,-0.24 0.13,-0.36 0.39,-0.36l15.75 0c0.26,0 0.39,0.12 0.39,0.36l0 4.77c0,0.26 -0.13,0.39 -0.39,0.39l-1.6 0c-0.24,0 -0.36,-0.13 -0.36,-0.39l0 -2.9 -8.95 0 0 7.35 7.5 0c0.26,0 0.39,0.12 0.39,0.36l0 1.51c0,0.24 -0.13,0.36 -0.39,0.36l-7.5 0 0 7.27 8.93 0 0 -2.91c0,-0.24 0.12,-0.36 0.38,-0.36l1.6 0c0.26,0 0.39,0.12 0.39,0.36l0 4.78c0,0.23 -0.13,0.35 -0.39,0.35z"/>
  <path id="9" class="fil1" d="M221.14 129.77l-1.6 0c-0.38,0 -0.68,-0.07 -0.89,-0.22 -0.22,-0.15 -0.43,-0.38 -0.63,-0.7l-8.57 -13.41 -1.48 -2.49 -0.06 0 0 14.6 2.28 0c0.26,0 0.39,0.12 0.39,0.35l0 1.52c0,0.23 -0.13,0.35 -0.39,0.35l-7.12 0c-0.26,0 -0.39,-0.12 -0.39,-0.35l0 -1.52c0,-0.23 0.13,-0.35 0.39,-0.35l2.25 0 0 -16.85 -2.25 0c-0.26,0 -0.39,-0.12 -0.39,-0.36l0 -1.51c0,-0.24 0.13,-0.36 0.39,-0.36l4.15 0c0.58,0 1.08,0.34 1.52,1.01l8.45 13.23 1.69 2.88 0.06 0 0 -14.89 -2.28 0c-0.24,0 -0.36,-0.12 -0.36,-0.36l0 -1.51c0,-0.24 0.12,-0.36 0.36,-0.36l7.15 0c0.24,0 0.35,0.12 0.35,0.36l0 1.51c0,0.24 -0.11,0.36 -0.35,0.36l-2.29 0 0 18.72c0,0.23 -0.13,0.35 -0.38,0.35z"/>
  <path id="10" class="fil1" d="M238.17 129.77l-6.91 0c-0.26,0 -0.39,-0.13 -0.39,-0.38l0 -1.46c0,-0.25 0.13,-0.38 0.39,-0.38l2.26 0 0 -16.85 -5.61 0 0 3.14c0,0.28 -0.14,0.42 -0.42,0.42l-1.66 0c-0.28,0 -0.41,-0.14 -0.41,-0.42l0 -4.98c0,-0.26 0.13,-0.39 0.41,-0.39l17.89 0c0.28,0 0.42,0.13 0.42,0.39l0 4.98c0,0.28 -0.14,0.42 -0.42,0.42l-1.69 0c-0.26,0 -0.39,-0.14 -0.39,-0.42l0 -3.14 -5.54 0 0 16.85 2.07 0c0.28,0 0.42,0.13 0.42,0.38l0 1.46c0,0.25 -0.14,0.38 -0.42,0.38z"/>
  <path id="11" class="fil1" d="M253.43 129.77l-7.12 0c-0.26,0 -0.39,-0.12 -0.39,-0.35l0 -1.52c0,-0.23 0.13,-0.35 0.39,-0.35l2.25 0 0 -16.85 -2.25 0c-0.26,0 -0.39,-0.12 -0.39,-0.36l0 -1.51c0,-0.24 0.13,-0.36 0.39,-0.36l7.12 0c0.25,0 0.38,0.12 0.38,0.36l0 1.51c0,0.24 -0.13,0.36 -0.38,0.36l-2.29 0 0 16.85 2.29 0c0.25,0 0.38,0.12 0.38,0.35l0 1.52c0,0.23 -0.13,0.35 -0.38,0.35zm-2.44 -26.15c0.3,0.31 0.45,0.68 0.45,1.11 0,0.44 -0.15,0.8 -0.45,1.1 -0.29,0.3 -0.66,0.45 -1.09,0.45 -0.44,0 -0.8,-0.15 -1.1,-0.45 -0.3,-0.3 -0.45,-0.66 -0.45,-1.1 0,-0.43 0.15,-0.8 0.45,-1.11 0.3,-0.31 0.66,-0.46 1.1,-0.46 0.43,0 0.8,0.15 1.09,0.46z"/>
  <path id="12" class="fil1" d="M257.65 129.77l-1.67 0c-0.25,0 -0.38,-0.12 -0.38,-0.35l0 -6.95c0,-0.25 0.13,-0.38 0.38,-0.38l1.87 0c0.24,0 0.36,0.13 0.36,0.38l0 0.63c0,0.37 0.23,0.87 0.68,1.5 0.46,0.62 0.91,1.13 1.37,1.52 0.45,0.4 1.06,0.74 1.82,1.03 0.76,0.28 1.59,0.43 2.48,0.43 1.52,0 2.71,-0.32 3.57,-0.95 0.86,-0.63 1.29,-1.51 1.29,-2.64 0,-0.65 -0.24,-1.21 -0.72,-1.68 -0.49,-0.46 -1.12,-0.83 -1.89,-1.11 -0.77,-0.28 -1.62,-0.53 -2.56,-0.77 -0.94,-0.24 -1.88,-0.51 -2.82,-0.82 -0.94,-0.3 -1.8,-0.67 -2.57,-1.1 -0.77,-0.42 -1.4,-1.01 -1.88,-1.78 -0.49,-0.76 -0.73,-1.65 -0.73,-2.68 0,-1.66 0.63,-3.04 1.89,-4.12 1.25,-1.09 2.94,-1.64 5.05,-1.64 2.67,0 4.63,0.79 5.88,2.35l-0.06 -1.84c0,-0.24 0.13,-0.36 0.38,-0.36l1.67 0c0.23,0 0.35,0.12 0.35,0.36l0 6.47c0,0.23 -0.12,0.35 -0.35,0.35l-1.87 0c-0.24,0 -0.36,-0.12 -0.36,-0.35l0 -0.83c0,-0.82 -0.45,-1.64 -1.36,-2.47 -0.91,-0.83 -2.25,-1.24 -4.01,-1.24 -1.3,0 -2.36,0.31 -3.16,0.93 -0.8,0.62 -1.2,1.42 -1.2,2.39 0,0.69 0.25,1.29 0.74,1.78 0.5,0.49 1.14,0.89 1.93,1.19 0.79,0.29 1.66,0.56 2.61,0.81 0.95,0.25 1.9,0.52 2.85,0.82 0.95,0.29 1.82,0.65 2.61,1.07 0.79,0.41 1.43,0.98 1.93,1.7 0.49,0.72 0.74,1.58 0.74,2.57 0,1.74 -0.62,3.17 -1.87,4.3 -1.25,1.13 -3.1,1.69 -5.58,1.69 -1.82,0 -3.32,-0.36 -4.51,-1.1 -1.18,-0.73 -2.04,-1.52 -2.58,-2.37l0.03 2.91c0,0.23 -0.12,0.35 -0.35,0.35z"/>
  <path id="13" class="fil1" d="M281.59 129.77l-7.12 0c-0.25,0 -0.38,-0.12 -0.38,-0.35l0 -1.52c0,-0.23 0.13,-0.35 0.38,-0.35l2.26 0 0 -16.85 -2.26 0c-0.25,0 -0.38,-0.12 -0.38,-0.36l0 -1.51c0,-0.24 0.13,-0.36 0.38,-0.36l7.12 0c0.26,0 0.39,0.12 0.39,0.36l0 1.51c0,0.24 -0.13,0.36 -0.39,0.36l-2.28 0 0 16.85 2.28 0c0.26,0 0.39,0.12 0.39,0.35l0 1.52c0,0.23 -0.13,0.35 -0.39,0.35zm-2.43 -26.15c0.3,0.31 0.45,0.68 0.45,1.11 0,0.44 -0.15,0.8 -0.45,1.1 -0.3,0.3 -0.66,0.45 -1.1,0.45 -0.43,0 -0.8,-0.15 -1.09,-0.45 -0.3,-0.3 -0.45,-0.66 -0.45,-1.1 0,-0.43 0.15,-0.8 0.45,-1.11 0.29,-0.31 0.66,-0.46 1.09,-0.46 0.44,0 0.8,0.15 1.1,0.46z"/>
 </g>
</svg>
