<?xml version="1.0" encoding="UTF-8"?>
<!DOCTYPE svg PUBLIC "-//W3C//DTD SVG 1.1//EN" "http://www.w3.org/Graphics/SVG/1.1/DTD/svg11.dtd">
<!-- Creator: CorelDRAW 2019 (64-Bit) -->
<svg xmlns="http://www.w3.org/2000/svg" xml:space="preserve" width="655px" height="731px" version="1.1" style="shape-rendering:geometricPrecision; text-rendering:geometricPrecision; image-rendering:optimizeQuality; fill-rule:evenodd; clip-rule:evenodd"
viewBox="0 0 237.96 265.75"
 xmlns:xlink="http://www.w3.org/1999/xlink"
 xmlns:xodm="http://www.corel.com/coreldraw/odm/2003">
 <defs>
  <style type="text/css">
   <![CDATA[
    .fil0 {fill:#2782C3}
    .fil1 {fill:#69BED8}
    .fil2 {fill:#80CAE7}
   ]]>
  </style>
 </defs>
 <g id="Logo">
  <metadata id="CorelCorpID_0Corel-Layer"/>
  <g id="Color_x0020_Logo">
   <path class="fil0" d="M97.9 10.19c2.35,1.63 4.54,3.16 6.77,4.72 0.19,-0.14 0.37,-0.26 0.54,-0.39 3.23,-2.74 6.46,-5.48 9.71,-8.2 0.48,-0.39 0.63,-0.81 0.62,-1.4 -0.04,-1.55 -0.01,-3.11 -0.01,-4.74 0.78,0.19 1.17,0.82 1.72,1.23 0.56,0.42 1.09,0.9 1.73,1.44 1.08,-0.91 2.16,-1.81 3.34,-2.79 0.05,0.33 0.11,0.53 0.12,0.73 0,1.45 0.01,2.91 0,4.36 -0.01,0.42 0.09,0.73 0.43,1.01 3.39,2.85 6.76,5.71 10.14,8.57 0.08,0.06 0.17,0.1 0.3,0.17 2.2,-1.53 4.41,-3.07 6.75,-4.71 0,2.61 0,5.01 0,7.54 -0.85,0.05 -1.7,0.1 -2.6,0.16 0,22.1 0,44.16 0,66.3 6.71,0 13.41,0 20.16,0 0,-22.12 0,-44.19 0,-66.39 -1.33,0 -2.63,0 -4.01,0 -0.01,-1.6 0.12,-3.03 0.41,-4.46 1.04,-5.08 4.05,-8.54 8.73,-10.63 2.89,-1.29 5.95,-1.92 9.07,-2.3 3.35,-0.4 6.71,-0.47 10.07,-0.37 4.02,0.12 8,0.52 11.85,1.74 1.58,0.5 3.09,1.14 4.5,2 4.04,2.45 6.23,6.09 6.87,10.71 0.14,1.04 0.18,2.1 0.27,3.27 -1.87,0 -3.6,0 -5.31,0 -0.22,0.77 -0.28,64.99 -0.09,66.43 6.7,0 13.4,0 20.17,0 0,-22.1 0,-44.16 0,-66.37 -2.22,-0.08 -4.43,0.01 -6.68,-0.06 0,-2.31 0,-4.53 0,-6.81 5.87,0 11.7,0 17.61,0 0,2.25 0,4.48 0,6.83 -0.86,0 -1.69,0 -2.58,0 0,22.18 0,44.25 0,66.42 2.66,0.15 5.33,-0.03 8.03,0.1 0,2.3 0,4.52 0,6.86 -1.76,0 -3.52,0 -5.37,0 0,5.03 0,9.93 0,14.92 -0.92,0 -1.74,0 -2.55,0 -0.21,0.78 -0.27,64.16 -0.07,65.6 2.94,0 5.9,0 8.78,0 0.81,1.28 0.62,2.59 0.62,3.88 0.01,3.65 0,7.3 0,10.96 0,0.34 0,0.69 0,1.09 -17.04,0 -33.96,0 -50.89,0 -0.2,-0.74 -0.28,-13.02 -0.1,-15.53 0.42,-0.14 0.85,-0.28 1.27,-0.42 0,-21.87 0,-43.65 0,-65.52 -0.87,0 -1.7,0 -2.65,0 -0.05,-1.29 -0.02,-2.51 -0.03,-3.72 0,-1.26 0,-2.52 0,-3.79 0,-1.22 0,-2.45 0,-3.68 0,-1.22 0,-2.44 0,-3.76 -1.13,0 -2.18,0 -3.3,0 0,-2.34 0,-4.58 0,-6.93 3.14,0 6.23,0 9.37,0 0,-22.17 0,-44.23 0,-66.29 -0.69,-0.23 -23.7,-0.33 -25.62,-0.11 0,22.09 0,44.18 0,66.37 2.2,0 4.38,0 6.69,0 0.07,2.34 0.02,4.58 0.03,6.9 -1.81,0 -3.54,0 -5.4,0 -0.05,1.29 -0.02,2.51 -0.02,3.72 -0.01,1.26 -0.01,2.52 -0.01,3.78 0,1.23 0,2.46 0,3.69 0,1.22 0,2.44 0,3.75 -0.9,0 -1.73,0 -2.53,0 -0.22,0.75 -0.28,65.11 -0.08,66.54 1.26,0 2.54,0 3.79,0 0.22,0.79 0.3,12.92 0.12,14.87 -0.66,0.22 -14.21,0.29 -15.59,0.08 0,-4.92 0,-9.85 0,-14.88 1.06,0 2.11,0 3.12,0 0.25,-0.79 0.32,-65.25 0.09,-66.51 -6.67,0 -13.34,0 -20.09,0 0,22.13 0,44.25 0,66.47 1.32,0 2.6,0 3.94,0 0,5.02 0,9.95 0,14.95 -5.18,0 -10.34,0 -15.5,0 -0.21,-0.66 -0.25,-13.74 -0.03,-14.95 1.03,0 2.08,0 3.18,0 0,-22.2 0,-44.3 0,-66.49 -0.84,0 -1.67,0 -2.62,0 -0.09,-1.06 -0.03,-2.05 -0.04,-3.04 -0.01,-0.97 -0.01,-1.94 -0.01,-2.91 0,-1 0,-2 0,-3.01 0,-0.97 0,-1.94 0,-2.91 0,-0.99 0,-1.99 0,-3.04 -4.03,0 -7.99,0 -12.08,0 0,4.93 0,9.85 0,14.86 -0.96,0 -1.78,0 -2.67,0 0,22.19 0,44.29 0,66.5 1.05,0 2.1,0 3.12,0 0.22,0.81 0.3,12.95 0.12,14.89 -0.66,0.21 -14.25,0.28 -15.6,0.07 0,-4.92 0,-9.85 0,-14.88 1.3,0 2.58,0 3.82,0 0.24,-0.76 0.32,-64.88 0.11,-66.51 -6.67,0 -13.35,0 -20.02,0 -0.2,0.73 -0.24,65.38 -0.02,66.47 1.03,0 2.08,0 3.18,0 0,5.03 0,9.96 0,14.96 -5.19,0 -10.35,0 -15.51,0 -0.19,-0.7 -0.27,-12.74 -0.08,-14.92 1.28,0 2.58,0 3.94,0 0,-22.23 0,-44.33 0,-66.55 -0.84,0 -1.7,0 -2.63,0 0,-5.02 0,-9.92 0,-14.91 -1.82,0 -3.55,0 -5.25,0 -0.24,-0.74 -0.31,-5.26 -0.12,-6.95 2.19,0 4.4,0 6.66,0 0,-22.2 0,-44.26 0,-66.32 -0.73,-0.2 -24.39,-0.26 -25.64,-0.06 0,22.08 0,44.17 0,66.37 3.14,0 6.23,0 9.37,0 0,2.32 0,4.54 0,6.88 -1.1,0.09 -2.22,0.03 -3.33,0.04 -1.1,0.01 -2.19,0 -3.37,0 0,4.99 0,9.89 0,14.92 -0.94,0 -1.79,0 -2.69,0 0,21.91 0,43.68 0,65.58 1.1,0 2.18,0 3.31,0 0,5.37 0,10.62 0,15.92 -16.52,0 -32.99,0 -49.46,0 -0.2,-0.68 -0.27,-14.35 -0.07,-15.88 3.09,0 6.21,0 9.38,0 0,-21.9 0,-43.67 0,-65.57 -0.86,0 -1.71,0 -2.66,0 0,-5.03 0,-9.92 0,-14.92 -1.82,0 -3.55,0 -5.41,0 -0.1,-2.34 -0.03,-4.58 -0.04,-6.96 2.73,-0.04 5.39,0.01 8.1,-0.03 0,-22.16 0,-44.23 0,-66.43 -0.88,0 -1.73,0 -2.62,0 0,-2.36 0,-4.58 0,-6.86 5.87,0 11.7,0 17.61,0 0,2.22 0,4.44 0,6.71 -0.69,0.26 -1.44,0.09 -2.16,0.12 -0.74,0.03 -1.48,0.01 -2.23,0.01 -0.74,0 -1.47,0 -2.27,0 0,22.17 0,44.23 0,66.3 0.68,0.2 18.34,0.29 20.11,0.1 0.19,-0.69 0.24,-65.17 0.03,-66.38 -1.71,0 -3.44,0 -5.28,0 0,-0.67 -0.03,-1.24 0.01,-1.8 0.23,-3.33 1.15,-6.42 3.31,-9.04 1.77,-2.16 4.05,-3.58 6.61,-4.61 2.62,-1.05 5.37,-1.6 8.17,-1.94 3.41,-0.41 6.84,-0.48 10.26,-0.37 4.37,0.14 8.7,0.59 12.85,2.12 1.89,0.7 3.66,1.63 5.22,2.92 2.82,2.33 4.37,5.37 4.97,8.94 0.2,1.21 0.27,2.42 0.24,3.75 -1.34,0 -2.62,0 -3.87,0 -0.23,0.78 -0.28,65.29 -0.07,66.42 6.69,0 13.4,0 20.15,0 0,-22.12 0,-44.18 0,-66.3 -0.89,-0.06 -1.74,-0.11 -2.63,-0.17 0,-2.49 0,-4.91 0,-7.54zm98.69 95.97c-0.19,1.54 -0.12,64.78 0.07,65.48 1.92,0.2 22.82,0.11 23.49,-0.1 0,-21.78 0,-43.55 0,-65.38 -7.87,0 -15.68,0 -23.56,0zm-178.78 65.5c6.76,0 13.46,0 20.22,0 0,-21.85 0,-43.65 0,-65.49 -6.76,0 -13.46,0 -20.22,0 0,21.84 0,43.64 0,65.49zm91.11 -153.59c0,22.11 0,44.1 0,66.13 6.74,0 13.41,0 20.13,0 0,-22.05 0,-44.04 0,-66.12 -0.37,0 -0.68,-0.01 -1,0.01 -2.02,0.11 -4.05,0.35 -6.07,0.31 -2.29,-0.05 -4.57,0.13 -6.86,-0.12 -2.01,-0.22 -4.06,-0.15 -6.2,-0.21z"/>
   <path class="fil0" d="M0.08 212.77c0,-4.95 0,-9.86 0,-14.76 0.02,-0.02 0.04,-0.04 0.07,-0.07 0.02,-0.02 0.04,-0.05 0.07,-0.06 79.01,-0.01 158.01,-0.02 237.02,-0.04 0.19,0 0.38,0.03 0.63,0.05 0,4.96 0,9.89 0,14.88 -79.23,0 -158.45,0 -237.79,0z"/>
   <path class="fil1" d="M29.43 240.48c0,-5.02 0,-9.93 0,-14.81 0.06,-0.05 0.08,-0.07 0.11,-0.09 0.02,-0.02 0.05,-0.05 0.07,-0.06 0.16,-0.02 0.32,-0.04 0.48,-0.04 59.35,0 118.7,0 178.04,0.01 0.1,0 0.19,0.04 0.27,0.06 0.21,0.7 0.25,13.77 0.05,14.93 -59.64,0 -119.29,0 -179.02,0z"/>
   <path class="fil2" d="M67.73 265.63c0,-4.99 0,-9.92 0,-14.91 34.16,0 68.25,0 102.34,0 0.23,0.65 0.33,13.35 0.11,14.86 -0.68,0.18 -101.11,0.24 -102.45,0.05z"/>
  </g>
 </g>
</svg>
