<?xml version="1.0" encoding="UTF-8"?>
<!DOCTYPE svg PUBLIC "-//W3C//DTD SVG 1.0//EN" "http://www.w3.org/TR/2001/REC-SVG-20010904/DTD/svg10.dtd">
<!-- Creator: CorelDRAW 2019 (64-Bit) -->
<svg xmlns="http://www.w3.org/2000/svg" xml:space="preserve" width="580px" height="189px" version="1.0" style="shape-rendering:geometricPrecision; text-rendering:geometricPrecision; image-rendering:optimizeQuality; fill-rule:evenodd; clip-rule:evenodd"
viewBox="0 0 552.07 180.1"
 xmlns:xlink="http://www.w3.org/1999/xlink"
 xmlns:xodm="http://www.corel.com/coreldraw/odm/2003">
 <defs>
  <style type="text/css">
   <![CDATA[
    .fil0 {fill:#2782C3;fill-rule:nonzero}
    .fil1 {fill:#69BED8;fill-rule:nonzero}
   ]]>
  </style>
 </defs>
 <g id="Text">
  <metadata id="CorelCorpID_0Corel-Layer"/>
  <path class="fil0" d="M60.15 88.33c5.06,0 9.67,-0.74 13.82,-2.22 4.14,-1.49 7.22,-2.94 9.25,-4.37l10.55 20.93c-2.58,2.2 -6.98,4.42 -13.21,6.67 -6.24,2.26 -13.65,3.38 -22.22,3.38 -8.02,0 -15.55,-1.4 -22.58,-4.2 -7.03,-2.8 -13.21,-6.76 -18.57,-11.84 -5.35,-5.08 -9.55,-11.04 -12.6,-17.88 -3.05,-6.84 -4.59,-14.25 -4.59,-22.27 0,-8.02 1.51,-15.5 4.53,-22.39 3.02,-6.89 7.23,-12.88 12.58,-17.99 5.36,-5.11 11.57,-9.09 18.62,-11.92 7.06,-2.83 14.59,-4.23 22.61,-4.23 8.57,0 15.98,1.13 22.22,3.38 6.23,2.25 10.63,4.48 13.21,6.67l-10.55 20.93c-2.03,-1.48 -5.11,-2.96 -9.25,-4.42 -4.15,-1.46 -8.76,-2.17 -13.82,-2.17 -5.6,0 -10.49,0.85 -14.67,2.58 -4.17,1.73 -7.66,4.12 -10.46,7.14 -2.8,3.02 -4.89,6.43 -6.26,10.22 -1.38,3.79 -2.06,7.77 -2.06,11.95 0,4.23 0.68,8.24 2.06,12.06 1.37,3.81 3.46,7.25 6.26,10.27 2.8,3.02 6.29,5.38 10.46,7.11 4.18,1.73 9.07,2.61 14.67,2.61z"/>
  <polygon id="1" class="fil0" points="108.77,1.98 178.23,1.98 178.23,23.57 133.32,23.57 133.32,45.73 177.82,45.73 177.82,66.66 133.32,66.66 133.32,89.16 178.23,89.16 178.23,110.74 108.77,110.74 "/>
  <polygon id="2" class="fil0" points="197.51,1.98 222.15,1.98 222.15,89.16 261.62,89.16 261.62,110.74 197.51,110.74 "/>
  <path id="3" class="fil0" d="M317.24 0c6.75,0 12.66,0.74 17.71,2.22 5.06,1.49 9.12,3.05 12.2,4.7 3.07,1.65 4.94,2.75 5.6,3.3l-11.87 19.86c-0.87,-0.66 -2.36,-1.62 -4.47,-2.89 -2.12,-1.26 -4.62,-2.39 -7.5,-3.38 -2.89,-0.99 -5.91,-1.48 -9.04,-1.48 -4.23,0 -7.63,0.74 -10.24,2.25 -2.61,1.51 -3.93,3.77 -3.93,6.73 0,2.03 0.71,3.85 2.11,5.47 1.41,1.62 3.55,3.16 6.43,4.61 2.89,1.46 6.54,3.05 10.99,4.75 4.06,1.49 7.88,3.24 11.45,5.28 3.57,2.03 6.73,4.42 9.45,7.19 2.72,2.78 4.86,5.99 6.45,9.62 1.6,3.62 2.39,7.74 2.39,12.36 0,5.49 -1.12,10.24 -3.37,14.28 -2.26,4.04 -5.31,7.39 -9.18,10.02 -3.87,2.64 -8.27,4.59 -13.18,5.88 -4.92,1.29 -10.03,1.95 -15.3,1.95 -7.47,0 -14.15,-0.85 -20.05,-2.55 -5.91,-1.71 -10.68,-3.55 -14.31,-5.52 -3.63,-1.98 -5.8,-3.3 -6.51,-3.96l12.28 -20.68c0.66,0.49 1.95,1.29 3.84,2.39 1.9,1.1 4.2,2.22 6.95,3.4 2.75,1.19 5.69,2.2 8.79,3.03 3.1,0.82 6.15,1.23 9.17,1.23 5.06,0 8.85,-0.99 11.37,-2.94 2.53,-1.95 3.8,-4.5 3.8,-7.69 0,-2.36 -0.8,-4.47 -2.39,-6.34 -1.6,-1.87 -3.99,-3.66 -7.17,-5.33 -3.19,-1.68 -7.17,-3.43 -11.95,-5.3 -4.78,-1.92 -9.23,-4.26 -13.38,-7.01 -4.14,-2.74 -7.52,-6.18 -10.1,-10.3 -2.59,-4.12 -3.88,-9.22 -3.88,-15.32 0,-6.1 1.73,-11.4 5.17,-15.88 3.43,-4.47 7.96,-7.91 13.59,-10.32 5.63,-2.42 11.65,-3.63 18.08,-3.63z"/>
  <path id="4" class="fil0" d="M432.68 1.98l24.63 0 0 66.82c0,8.96 -1.75,16.7 -5.27,23.27 -3.52,6.56 -8.54,11.64 -15.08,15.24 -6.54,3.6 -14.34,5.41 -23.4,5.41 -9.12,0 -16.97,-1.81 -23.57,-5.41 -6.59,-3.6 -11.61,-8.68 -15.1,-15.24 -3.49,-6.57 -5.25,-14.31 -5.25,-23.27l0 -66.82 24.56 0 0 65.5c0,4.95 0.79,9.12 2.36,12.53 1.56,3.4 3.79,5.96 6.7,7.69 2.91,1.73 6.34,2.61 10.3,2.61 3.9,0 7.28,-0.88 10.13,-2.61 2.86,-1.73 5.09,-4.29 6.65,-7.69 1.57,-3.41 2.34,-7.58 2.34,-12.53l0 -65.5z"/>
  <path id="5" class="fil0" d="M514.33 0c6.76,0 12.67,0.74 17.72,2.22 5.05,1.49 9.12,3.05 12.2,4.7 3.07,1.65 4.94,2.75 5.6,3.3l-11.87 19.86c-0.88,-0.66 -2.36,-1.62 -4.47,-2.89 -2.12,-1.26 -4.62,-2.39 -7.5,-3.38 -2.89,-0.99 -5.91,-1.48 -9.04,-1.48 -4.23,0 -7.64,0.74 -10.24,2.25 -2.61,1.51 -3.93,3.77 -3.93,6.73 0,2.03 0.71,3.85 2.11,5.47 1.4,1.62 3.55,3.16 6.43,4.61 2.88,1.46 6.54,3.05 10.99,4.75 4.06,1.49 7.88,3.24 11.45,5.28 3.57,2.03 6.73,4.42 9.45,7.19 2.72,2.78 4.86,5.99 6.45,9.62 1.6,3.62 2.39,7.74 2.39,12.36 0,5.49 -1.12,10.24 -3.37,14.28 -2.26,4.04 -5.31,7.39 -9.18,10.02 -3.87,2.64 -8.27,4.59 -13.18,5.88 -4.92,1.29 -10.03,1.95 -15.3,1.95 -7.47,0 -14.15,-0.85 -20.05,-2.55 -5.91,-1.71 -10.69,-3.55 -14.31,-5.52 -3.63,-1.98 -5.8,-3.3 -6.51,-3.96l12.27 -20.68c0.66,0.49 1.96,1.29 3.85,2.39 1.9,1.1 4.2,2.22 6.95,3.4 2.75,1.19 5.68,2.2 8.79,3.03 3.1,0.82 6.15,1.23 9.17,1.23 5.06,0 8.85,-0.99 11.37,-2.94 2.53,-1.95 3.79,-4.5 3.79,-7.69 0,-2.36 -0.79,-4.47 -2.39,-6.34 -1.59,-1.87 -3.98,-3.66 -7.17,-5.33 -3.18,-1.68 -7.16,-3.43 -11.94,-5.3 -4.78,-1.92 -9.23,-4.26 -13.38,-7.01 -4.15,-2.74 -7.52,-6.18 -10.11,-10.3 -2.58,-4.12 -3.87,-9.22 -3.87,-15.32 0,-6.1 1.73,-11.4 5.17,-15.88 3.43,-4.47 7.96,-7.91 13.59,-10.32 5.63,-2.42 11.65,-3.63 18.07,-3.63z"/>
  <path class="fil1" d="M29.97 179.7l-16.23 0c-0.45,0 -0.68,-0.22 -0.68,-0.68l0 -2.88c0,-0.45 0.23,-0.68 0.68,-0.68l4.35 0 0 -32.11 -4.35 0c-0.45,0 -0.68,-0.22 -0.68,-0.67l0 -2.89c0,-0.45 0.23,-0.68 0.68,-0.68l15.26 0c6.26,0 11.24,1.8 14.93,5.4 3.69,3.6 5.54,8.55 5.54,14.84 0,6.3 -1.75,11.26 -5.26,14.9 -3.5,3.64 -8.25,5.45 -14.24,5.45zm-6.96 -4.24l5.6 0c10.48,-0.07 15.71,-5.4 15.71,-15.99 0,-5.09 -1.34,-9.05 -4.04,-11.88 -2.69,-2.82 -6.64,-4.24 -11.84,-4.24l-5.43 0 0 32.11z"/>
  <path id="1" class="fil1" d="M96.38 179.7l-12.77 0c-0.46,0 -0.68,-0.22 -0.68,-0.68l0 -2.88c0,-0.45 0.22,-0.68 0.68,-0.68l3.95 0 -3.67 -9.78 -15.77 0 -3.68 9.78 3.96 0c0.45,0 0.68,0.23 0.68,0.68l0 2.88c0,0.46 -0.23,0.68 -0.68,0.68l-12.72 0c-0.45,0 -0.68,-0.22 -0.68,-0.68l0 -2.88c0,-0.45 0.23,-0.68 0.68,-0.68l3.79 0 12.15 -32.11 -3.05 0c-0.49,0 -0.74,-0.22 -0.74,-0.67l0 -2.89c0,-0.45 0.25,-0.68 0.74,-0.68l7.69 0c0.9,0 1.59,0.19 2.06,0.57 0.47,0.38 0.88,1 1.22,1.87l13 33.91 3.84 0c0.45,0 0.68,0.23 0.68,0.68l0 2.88c0,0.46 -0.23,0.68 -0.68,0.68zm-14.02 -17.92l-6.27 -16.79 -0.17 0 -6.33 16.79 12.77 0z"/>
  <path id="2" class="fil1" d="M123.29 179.7l-13.18 0c-0.49,0 -0.73,-0.24 -0.73,-0.73l0 -2.77c0,-0.49 0.24,-0.74 0.73,-0.74l4.3 0 0 -32.11 -10.68 0 0 6c0,0.52 -0.27,0.79 -0.8,0.79l-3.16 0c-0.53,0 -0.79,-0.27 -0.79,-0.79l0 -9.5c0,-0.49 0.26,-0.74 0.79,-0.74l34.09 0c0.52,0 0.79,0.25 0.79,0.74l0 9.5c0,0.52 -0.27,0.79 -0.79,0.79l-3.23 0c-0.49,0 -0.73,-0.27 -0.73,-0.79l0 -6 -10.57 0 0 32.11 3.96 0c0.52,0 0.79,0.25 0.79,0.74l0 2.77c0,0.49 -0.27,0.73 -0.79,0.73z"/>
  <path id="3" class="fil1" d="M176.93 179.7l-30.02 0c-0.49,0 -0.74,-0.22 -0.74,-0.68l0 -2.88c0,-0.45 0.25,-0.68 0.74,-0.68l4.3 0 0 -32.11 -4.3 0c-0.49,0 -0.74,-0.22 -0.74,-0.67l0 -2.89c0,-0.45 0.25,-0.68 0.74,-0.68l30.02 0c0.49,0 0.73,0.23 0.73,0.68l0 9.1c0,0.49 -0.24,0.74 -0.73,0.74l-3.06 0c-0.45,0 -0.67,-0.25 -0.67,-0.74l0 -5.54 -17.08 0 0 14.02 14.31 0c0.49,0 0.73,0.23 0.73,0.68l0 2.89c0,0.45 -0.24,0.67 -0.73,0.67l-14.31 0 0 13.85 17.02 0 0 -5.54c0,-0.45 0.24,-0.67 0.73,-0.67l3.06 0c0.49,0 0.73,0.22 0.73,0.67l0 9.1c0,0.46 -0.24,0.68 -0.73,0.68z"/>
  <path id="4" class="fil1" d="M224.75 179.7l-3.06 0c-0.71,0 -1.28,-0.14 -1.69,-0.42 -0.42,-0.28 -0.81,-0.73 -1.19,-1.33l-16.34 -25.55 -2.82 -4.75 -0.12 0 0 27.81 4.36 0c0.49,0 0.73,0.23 0.73,0.68l0 2.88c0,0.46 -0.24,0.68 -0.73,0.68l-13.57 0c-0.49,0 -0.74,-0.22 -0.74,-0.68l0 -2.88c0,-0.45 0.25,-0.68 0.74,-0.68l4.29 0 0 -32.11 -4.29 0c-0.49,0 -0.74,-0.22 -0.74,-0.67l0 -2.89c0,-0.45 0.25,-0.68 0.74,-0.68l7.91 0c1.1,0 2.06,0.65 2.89,1.93l16.11 25.21 3.22 5.48 0.11 0 0 -28.38 -4.35 0c-0.45,0 -0.68,-0.22 -0.68,-0.67l0 -2.89c0,-0.45 0.23,-0.68 0.68,-0.68l13.62 0c0.46,0 0.68,0.23 0.68,0.68l0 2.89c0,0.45 -0.22,0.67 -0.68,0.67l-4.35 0 0 35.67c0,0.46 -0.24,0.68 -0.73,0.68z"/>
  <path id="5" class="fil1" d="M273.3 179.7l-30.92 0c-0.49,0 -0.74,-0.22 -0.74,-0.68l0 -2.88c0,-0.45 0.25,-0.68 0.74,-0.68l4.29 0 0 -32.11 -4.29 0c-0.49,0 -0.74,-0.22 -0.74,-0.67l0 -2.89c0,-0.45 0.25,-0.68 0.74,-0.68l13.51 0c0.49,0 0.73,0.25 0.73,0.74l0 2.77c0,0.49 -0.24,0.73 -0.73,0.73l-4.3 0 0 32.11 17.98 0 0 -5.54c0,-0.45 0.24,-0.67 0.73,-0.67l3.06 0c0.45,0 0.67,0.22 0.67,0.67l0 9.05c0,0.49 -0.24,0.73 -0.73,0.73z"/>
  <path id="6" class="fil1" d="M314.56 179.7l-30.02 0c-0.49,0 -0.73,-0.22 -0.73,-0.68l0 -2.88c0,-0.45 0.24,-0.68 0.73,-0.68l4.3 0 0 -32.11 -4.3 0c-0.49,0 -0.73,-0.22 -0.73,-0.67l0 -2.89c0,-0.45 0.24,-0.68 0.73,-0.68l30.02 0c0.49,0 0.73,0.23 0.73,0.68l0 9.1c0,0.49 -0.24,0.74 -0.73,0.74l-3.05 0c-0.46,0 -0.68,-0.25 -0.68,-0.74l0 -5.54 -17.07 0 0 14.02 14.3 0c0.49,0 0.73,0.23 0.73,0.68l0 2.89c0,0.45 -0.24,0.67 -0.73,0.67l-14.3 0 0 13.85 17.01 0 0 -5.54c0,-0.45 0.25,-0.67 0.74,-0.67l3.05 0c0.49,0 0.73,0.22 0.73,0.67l0 9.1c0,0.46 -0.24,0.68 -0.73,0.68z"/>
  <path id="7" class="fil1" d="M341.52 179.7l-13.57 0c-0.49,0 -0.73,-0.22 -0.73,-0.68l0 -2.88c0,-0.45 0.24,-0.68 0.73,-0.68l4.3 0 0 -32.11 -4.3 0c-0.49,0 -0.73,-0.22 -0.73,-0.67l0 -2.89c0,-0.45 0.24,-0.68 0.73,-0.68l13.57 0c0.49,0 0.73,0.23 0.73,0.68l0 2.89c0,0.45 -0.24,0.67 -0.73,0.67l-4.35 0 0 32.11 4.35 0c0.49,0 0.73,0.23 0.73,0.68l0 2.88c0,0.46 -0.24,0.68 -0.73,0.68z"/>
  <path id="8" class="fil1" d="M378.48 179.7l-13.17 0c-0.49,0 -0.73,-0.24 -0.73,-0.73l0 -2.77c0,-0.49 0.24,-0.74 0.73,-0.74l4.3 0 0 -32.11 -10.69 0 0 6c0,0.52 -0.26,0.79 -0.79,0.79l-3.16 0c-0.53,0 -0.8,-0.27 -0.8,-0.79l0 -9.5c0,-0.49 0.27,-0.74 0.8,-0.74l34.08 0c0.53,0 0.8,0.25 0.8,0.74l0 9.5c0,0.52 -0.27,0.79 -0.8,0.79l-3.22 0c-0.49,0 -0.73,-0.27 -0.73,-0.79l0 -6 -10.57 0 0 32.11 3.95 0c0.53,0 0.79,0.25 0.79,0.74l0 2.77c0,0.49 -0.26,0.73 -0.79,0.73z"/>
  <path id="9" class="fil1" d="M432.01 165.01l0 -21.66 -4.35 0c-0.45,0 -0.68,-0.22 -0.68,-0.67l0 -2.89c0,-0.45 0.23,-0.68 0.68,-0.68l13.62 0c0.45,0 0.68,0.23 0.68,0.68l0 2.89c0,0.45 -0.23,0.67 -0.68,0.67l-4.35 0 0 21.15c0,5.08 -1.33,8.96 -3.99,11.61 -2.65,2.66 -6.4,3.99 -11.25,3.99 -4.84,0 -8.6,-1.33 -11.27,-3.99 -2.68,-2.65 -4.02,-6.53 -4.02,-11.61l0 -21.15 -4.29 0c-0.49,0 -0.74,-0.22 -0.74,-0.67l0 -2.89c0,-0.45 0.25,-0.68 0.74,-0.68l13.56 0c0.49,0 0.74,0.23 0.74,0.68l0 2.89c0,0.45 -0.25,0.67 -0.74,0.67l-4.35 0 0 21.32c0,7.23 3.47,10.85 10.4,10.85 3.54,0 6.15,-0.93 7.8,-2.8 1.66,-1.86 2.49,-4.44 2.49,-7.71z"/>
  <path id="10" class="fil1" d="M487.46 179.7l-3.05 0c-0.72,0 -1.28,-0.14 -1.7,-0.42 -0.41,-0.28 -0.81,-0.73 -1.19,-1.33l-16.33 -25.55 -2.83 -4.75 -0.11 0 0 27.81 4.35 0c0.49,0 0.74,0.23 0.74,0.68l0 2.88c0,0.46 -0.25,0.68 -0.74,0.68l-13.57 0c-0.49,0 -0.73,-0.22 -0.73,-0.68l0 -2.88c0,-0.45 0.24,-0.68 0.73,-0.68l4.3 0 0 -32.11 -4.3 0c-0.49,0 -0.73,-0.22 -0.73,-0.67l0 -2.89c0,-0.45 0.24,-0.68 0.73,-0.68l7.92 0c1.09,0 2.05,0.65 2.88,1.93l16.11 25.21 3.22 5.48 0.12 0 0 -28.38 -4.36 0c-0.45,0 -0.67,-0.22 -0.67,-0.67l0 -2.89c0,-0.45 0.22,-0.68 0.67,-0.68l13.63 0c0.45,0 0.68,0.23 0.68,0.68l0 2.89c0,0.45 -0.23,0.67 -0.68,0.67l-4.36 0 0 35.67c0,0.46 -0.24,0.68 -0.73,0.68z"/>
  <path id="11" class="fil1" d="M538.33 179.7l-2.99 0c-0.49,0 -0.74,-0.22 -0.74,-0.68l0.06 -3.9c-3.32,3.32 -7.74,4.98 -13.26,4.98 -5.52,0 -10.13,-1.92 -13.82,-5.77 -3.69,-3.84 -5.54,-8.89 -5.54,-15.15 0,-4.18 0.93,-7.86 2.8,-11.02 1.86,-3.17 4.24,-5.52 7.12,-7.07 2.88,-1.54 6,-2.31 9.36,-2.31 5.76,0 9.91,1.79 12.43,5.37l-0.05 -4.36c-0.08,-0.45 0.15,-0.68 0.67,-0.68l3.17 0c0.49,0 0.74,0.23 0.74,0.68l0 11.65c0,0.45 -0.25,0.68 -0.74,0.68l-3.56 0c-0.45,0 -0.68,-0.23 -0.68,-0.68l0 -0.68c0,-1.66 -1.14,-3.3 -3.42,-4.92 -2.28,-1.62 -5.19,-2.43 -8.73,-2.43 -3.55,0 -6.74,1.46 -9.58,4.38 -2.85,2.92 -4.27,6.82 -4.27,11.7 0,4.88 1.43,8.75 4.29,11.59 2.87,2.85 6.07,4.27 9.61,4.27 3.55,0 6.34,-0.56 8.4,-1.7 2.05,-1.13 3.59,-2.46 4.61,-4.01l0 -4.41 -10.52 0c-0.45,0 -0.68,-0.24 -0.68,-0.73l0 -2.6c0,-0.46 0.23,-0.68 0.68,-0.68l14.64 0c0.45,0 0.68,0.22 0.68,0.68l0 17.12c0,0.46 -0.23,0.68 -0.68,0.68z"/>
 </g>
</svg>
