<?xml version="1.0" encoding="UTF-8"?>
<!DOCTYPE svg PUBLIC "-//W3C//DTD SVG 1.0//EN" "http://www.w3.org/TR/2001/REC-SVG-20010904/DTD/svg10.dtd">
<!-- Creator: CorelDRAW 2019 (64-Bit) -->
<svg xmlns="http://www.w3.org/2000/svg" xml:space="preserve" width="580px" height="259px" version="1.0" style="shape-rendering:geometricPrecision; text-rendering:geometricPrecision; image-rendering:optimizeQuality; fill-rule:evenodd; clip-rule:evenodd"
viewBox="0 0 282.24 125.84"
 xmlns:xlink="http://www.w3.org/1999/xlink"
 xmlns:xodm="http://www.corel.com/coreldraw/odm/2003">
 <defs>
  <style type="text/css">
   <![CDATA[
    .fil0 {fill:#2782C3;fill-rule:nonzero}
    .fil1 {fill:#69BED8;fill-rule:nonzero}
   ]]>
  </style>
 </defs>
 <g id="Text">
  <metadata id="CorelCorpID_0Corel-Layer"/>
  <path class="fil0" d="M30.75 45.16c2.58,0 4.94,-0.38 7.06,-1.14 2.12,-0.76 3.7,-1.5 4.74,-2.23l5.39 10.7c-1.32,1.12 -3.57,2.26 -6.76,3.41 -3.18,1.15 -6.97,1.73 -11.36,1.73 -4.1,0 -7.94,-0.72 -11.54,-2.15 -3.59,-1.43 -6.75,-3.46 -9.49,-6.05 -2.74,-2.6 -4.89,-5.65 -6.45,-9.14 -1.55,-3.5 -2.34,-7.29 -2.34,-11.39 0,-4.1 0.77,-7.92 2.32,-11.45 1.54,-3.52 3.69,-6.58 6.43,-9.19 2.74,-2.62 5.91,-4.65 9.52,-6.1 3.61,-1.44 7.45,-2.16 11.55,-2.16 4.39,0 8.18,0.58 11.36,1.73 3.19,1.15 5.44,2.29 6.76,3.41l-5.39 10.7c-1.04,-0.76 -2.62,-1.52 -4.74,-2.26 -2.12,-0.75 -4.48,-1.11 -7.06,-1.11 -2.86,0 -5.36,0.43 -7.5,1.32 -2.13,0.88 -3.91,2.1 -5.35,3.65 -1.43,1.54 -2.5,3.29 -3.2,5.22 -0.7,1.94 -1.05,3.98 -1.05,6.11 0,2.16 0.35,4.21 1.05,6.17 0.7,1.95 1.77,3.7 3.2,5.25 1.44,1.54 3.22,2.75 5.35,3.63 2.14,0.89 4.64,1.34 7.5,1.34z"/>
  <polygon id="1" class="fil0" points="55.6,1.01 91.12,1.01 91.12,12.05 68.16,12.05 68.16,23.38 90.9,23.38 90.9,34.08 68.16,34.08 68.16,45.58 91.12,45.58 91.12,56.62 55.6,56.62 "/>
  <polygon id="2" class="fil0" points="100.97,1.01 113.57,1.01 113.57,45.58 133.75,45.58 133.75,56.62 100.97,56.62 "/>
  <path id="3" class="fil0" d="M162.18 0c3.45,0 6.47,0.38 9.06,1.14 2.58,0.76 4.66,1.56 6.23,2.4 1.57,0.84 2.53,1.4 2.87,1.68l-6.07 10.16c-0.45,-0.34 -1.21,-0.83 -2.29,-1.48 -1.08,-0.64 -2.36,-1.22 -3.83,-1.73 -1.48,-0.5 -3.02,-0.75 -4.62,-0.75 -2.16,0 -3.91,0.37 -5.24,1.15 -1.33,0.77 -2.01,1.92 -2.01,3.44 0,1.04 0.37,1.96 1.08,2.79 0.72,0.83 1.81,1.62 3.29,2.36 1.47,0.74 3.34,1.56 5.62,2.43 2.07,0.76 4.03,1.66 5.85,2.7 1.83,1.03 3.44,2.26 4.83,3.67 1.39,1.42 2.49,3.07 3.3,4.92 0.82,1.85 1.22,3.96 1.22,6.32 0,2.81 -0.57,5.24 -1.72,7.3 -1.16,2.06 -2.71,3.78 -4.69,5.12 -1.98,1.35 -4.23,2.35 -6.74,3.01 -2.52,0.66 -5.13,1 -7.83,1 -3.81,0 -7.23,-0.44 -10.25,-1.31 -3.01,-0.87 -5.46,-1.81 -7.31,-2.82 -1.85,-1.01 -2.96,-1.69 -3.33,-2.02l6.28 -10.58c0.33,0.26 0.99,0.66 1.96,1.22 0.97,0.57 2.15,1.14 3.56,1.75 1.4,0.6 2.9,1.12 4.49,1.54 1.59,0.42 3.14,0.63 4.69,0.63 2.58,0 4.52,-0.5 5.81,-1.5 1.29,-1 1.94,-2.3 1.94,-3.93 0,-1.21 -0.41,-2.29 -1.22,-3.25 -0.82,-0.95 -2.04,-1.86 -3.67,-2.72 -1.63,-0.86 -3.66,-1.76 -6.1,-2.71 -2.45,-0.98 -4.72,-2.18 -6.84,-3.58 -2.12,-1.4 -3.85,-3.16 -5.17,-5.27 -1.32,-2.1 -1.98,-4.71 -1.98,-7.83 0,-3.12 0.88,-5.83 2.64,-8.12 1.75,-2.29 4.07,-4.04 6.95,-5.28 2.88,-1.23 5.95,-1.85 9.24,-1.85z"/>
  <path id="4" class="fil0" d="M221.2 1.01l12.59 0 0 34.16c0,4.58 -0.9,8.54 -2.69,11.9 -1.8,3.35 -4.37,5.95 -7.71,7.79 -3.35,1.84 -7.33,2.77 -11.97,2.77 -4.66,0 -8.67,-0.93 -12.04,-2.77 -3.37,-1.84 -5.94,-4.44 -7.73,-7.79 -1.78,-3.36 -2.68,-7.32 -2.68,-11.9l0 -34.16 12.55 0 0 33.49c0,2.53 0.41,4.66 1.21,6.4 0.8,1.74 1.94,3.05 3.43,3.93 1.49,0.89 3.24,1.34 5.26,1.34 2,0 3.72,-0.45 5.18,-1.34 1.46,-0.88 2.6,-2.19 3.4,-3.93 0.8,-1.74 1.2,-3.87 1.2,-6.4l0 -33.49z"/>
  <path id="5" class="fil0" d="M262.94 0c3.46,0 6.47,0.38 9.06,1.14 2.58,0.76 4.66,1.56 6.23,2.4 1.58,0.84 2.53,1.4 2.87,1.68l-6.07 10.16c-0.45,-0.34 -1.21,-0.83 -2.29,-1.48 -1.08,-0.64 -2.36,-1.22 -3.83,-1.73 -1.48,-0.5 -3.02,-0.75 -4.62,-0.75 -2.16,0 -3.9,0.37 -5.24,1.15 -1.33,0.77 -2.01,1.92 -2.01,3.44 0,1.04 0.37,1.96 1.09,2.79 0.71,0.83 1.81,1.62 3.28,2.36 1.48,0.74 3.34,1.56 5.62,2.43 2.08,0.76 4.03,1.66 5.85,2.7 1.83,1.03 3.44,2.26 4.83,3.67 1.39,1.42 2.49,3.07 3.3,4.92 0.82,1.85 1.23,3.96 1.23,6.32 0,2.81 -0.58,5.24 -1.73,7.3 -1.15,2.06 -2.71,3.78 -4.69,5.12 -1.98,1.35 -4.23,2.35 -6.74,3.01 -2.52,0.66 -5.13,1 -7.82,1 -3.82,0 -7.23,-0.44 -10.25,-1.31 -3.02,-0.87 -5.47,-1.81 -7.32,-2.82 -1.85,-1.01 -2.96,-1.69 -3.33,-2.02l6.28 -10.58c0.34,0.26 1,0.66 1.96,1.22 0.97,0.57 2.15,1.14 3.56,1.75 1.4,0.6 2.9,1.12 4.49,1.54 1.59,0.42 3.15,0.63 4.69,0.63 2.58,0 4.52,-0.5 5.81,-1.5 1.3,-1 1.94,-2.3 1.94,-3.93 0,-1.21 -0.41,-2.29 -1.22,-3.25 -0.81,-0.95 -2.04,-1.86 -3.66,-2.72 -1.63,-0.86 -3.67,-1.76 -6.11,-2.71 -2.45,-0.98 -4.72,-2.18 -6.84,-3.58 -2.12,-1.4 -3.85,-3.16 -5.17,-5.27 -1.32,-2.1 -1.98,-4.71 -1.98,-7.83 0,-3.12 0.89,-5.83 2.64,-8.12 1.76,-2.29 4.07,-4.04 6.95,-5.28 2.88,-1.23 5.96,-1.85 9.24,-1.85z"/>
  <path class="fil1" d="M23.36 91.87l-2.52 0c-0.69,0 -1.27,-0.46 -1.73,-1.39l-2.72 -5.52c-0.23,-0.48 -0.48,-0.83 -0.74,-1.07 -0.26,-0.23 -0.62,-0.35 -1.08,-0.37l-3.67 0 0 6.18 2.6 0c0.23,0 0.35,0.12 0.35,0.35l0 1.47c0,0.24 -0.12,0.35 -0.35,0.35l-7.31 0c-0.25,0 -0.38,-0.11 -0.38,-0.35l0 -1.47c0,-0.23 0.13,-0.35 0.38,-0.35l2.2 0 0 -16.41 -2.2 0c-0.25,0 -0.38,-0.12 -0.38,-0.35l0 -1.47c0,-0.23 0.13,-0.35 0.38,-0.35l8.9 0c2.06,0 3.74,0.55 5.03,1.63 1.29,1.09 1.94,2.63 1.94,4.61 0,3.03 -1.42,4.92 -4.25,5.67 0.36,0.29 0.82,0.93 1.36,1.93l2.42 4.74 1.77 0c0.23,0 0.34,0.12 0.34,0.35l0 1.47c0,0.24 -0.11,0.35 -0.34,0.35zm-12.46 -10.4l3.7 0c3.27,0 4.91,-1.34 4.91,-4.02 0,-2.77 -1.64,-4.16 -4.91,-4.16l-3.7 0 0 8.18z"/>
  <path id="1" class="fil1" d="M46.92 91.87l-6.53 0c-0.23,0 -0.35,-0.11 -0.35,-0.35l0 -1.47c0,-0.23 0.12,-0.35 0.35,-0.35l2.02 0 -1.88 -5 -8.06 0 -1.88 5 2.02 0c0.24,0 0.35,0.12 0.35,0.35l0 1.47c0,0.24 -0.11,0.35 -0.35,0.35l-6.5 0c-0.23,0 -0.35,-0.11 -0.35,-0.35l0 -1.47c0,-0.23 0.12,-0.35 0.35,-0.35l1.94 0 6.21 -16.41 -1.56 0c-0.25,0 -0.38,-0.12 -0.38,-0.35l0 -1.47c0,-0.23 0.13,-0.35 0.38,-0.35l3.93 0c0.46,0 0.82,0.1 1.06,0.29 0.24,0.19 0.44,0.51 0.62,0.95l6.64 17.34 1.97 0c0.23,0 0.35,0.12 0.35,0.35l0 1.47c0,0.24 -0.12,0.35 -0.35,0.35zm-7.17 -9.16l-3.21 -8.58 -0.08 0 -3.24 8.58 6.53 0z"/>
  <path id="2" class="fil1" d="M57.65 91.87l-8.29 0c-0.24,0 -0.35,-0.11 -0.35,-0.35l0 -1.47c0,-0.23 0.11,-0.35 0.35,-0.35l2.22 0 0 -16.41 -2.22 0c-0.24,0 -0.35,-0.12 -0.35,-0.35l0 -1.47c0,-0.23 0.11,-0.35 0.35,-0.35l7.8 0c3.2,0 5.74,0.92 7.63,2.76 1.89,1.84 2.83,4.37 2.83,7.59 0,3.21 -0.89,5.75 -2.69,7.61 -1.79,1.86 -4.22,2.79 -7.28,2.79zm-3.55 -2.17l2.86 0c5.35,-0.03 8.03,-2.76 8.03,-8.17 0,-2.61 -0.69,-4.63 -2.06,-6.07 -1.38,-1.45 -3.4,-2.17 -6.06,-2.17l-2.77 0 0 16.41z"/>
  <path id="3" class="fil1" d="M82.08 91.87l-6.96 0c-0.24,0 -0.35,-0.11 -0.35,-0.35l0 -1.47c0,-0.23 0.11,-0.35 0.35,-0.35l2.22 0 0 -6.18 -1.16 -1.99c-2.5,-4.46 -4.11,-7.2 -4.82,-8.24l-1.97 0c-0.25,0 -0.37,-0.12 -0.37,-0.35l0 -1.47c0,-0.23 0.12,-0.35 0.37,-0.35l6.51 0c0.23,0 0.34,0.12 0.34,0.35l0 1.47c0,0.23 -0.11,0.35 -0.34,0.35l-1.91 0 4.54 8.03 0.17 0 4.51 -8.03 -1.91 0c-0.23,0 -0.35,-0.12 -0.35,-0.35l0 -1.47c0,-0.23 0.12,-0.35 0.35,-0.35l6.53 0c0.23,0 0.35,0.12 0.35,0.35l0 1.47c0,0.23 -0.12,0.35 -0.35,0.35l-1.99 0c-0.95,1.39 -2.17,3.43 -3.69,6.13 -1.51,2.69 -2.28,4.05 -2.29,4.07l0 6.21 2.22 0c0.23,0 0.35,0.12 0.35,0.35l0 1.47c0,0.24 -0.12,0.35 -0.35,0.35z"/>
  <path id="4" class="fil1" d="M110.15 81.39c0,3.17 -0.95,5.75 -2.84,7.72 -1.9,1.98 -4.29,2.96 -7.17,2.96 -2.88,0 -5.29,-0.99 -7.21,-2.99 -1.93,-1.99 -2.89,-4.56 -2.89,-7.71 0,-3.15 0.99,-5.68 2.97,-7.58 1.99,-1.89 4.36,-2.84 7.11,-2.84 2.76,0 5.12,0.95 7.08,2.84 1.97,1.9 2.95,4.44 2.95,7.6zm-15.18 6.13c1.47,1.48 3.19,2.21 5.15,2.21 1.97,0 3.68,-0.73 5.15,-2.21 1.46,-1.47 2.19,-3.5 2.19,-6.07 0,-2.57 -0.74,-4.58 -2.24,-6.04 -1.49,-1.45 -3.19,-2.18 -5.1,-2.18 -1.9,0 -3.61,0.73 -5.11,2.18 -1.5,1.46 -2.26,3.47 -2.26,6.04 0,2.57 0.74,4.6 2.22,6.07z"/>
  <path id="5" class="fil1" d="M130.8 91.87l-7.55 0c-0.25,0 -0.37,-0.11 -0.37,-0.35l0 -1.47c0,-0.23 0.12,-0.35 0.37,-0.35l2.2 0 0 -16.41 -2.2 0c-0.25,0 -0.37,-0.12 -0.37,-0.35l0 -1.47c0,-0.23 0.12,-0.35 0.37,-0.35l8.9 0c2.05,0 3.72,0.59 5.02,1.78 1.3,1.18 1.95,2.78 1.95,4.8 0,2.01 -0.64,3.57 -1.91,4.68 -1.27,1.11 -3.06,1.66 -5.37,1.66l-3.88 0 0 5.66 2.84 0c0.23,0 0.34,0.12 0.34,0.35l0 1.47c0,0.24 -0.11,0.35 -0.34,0.35zm-2.84 -9.88l3.76 0c3.24,0 4.86,-1.43 4.86,-4.28 0,-1.48 -0.46,-2.59 -1.38,-3.32 -0.91,-0.74 -2.06,-1.1 -3.45,-1.1l-3.79 0 0 8.7z"/>
  <path id="6" class="fil1" d="M159.07 91.87l-2.51 0c-0.7,0 -1.28,-0.46 -1.74,-1.39l-2.72 -5.52c-0.23,-0.48 -0.47,-0.83 -0.73,-1.07 -0.26,-0.23 -0.62,-0.35 -1.09,-0.37l-3.67 0 0 6.18 2.6 0c0.24,0 0.35,0.12 0.35,0.35l0 1.47c0,0.24 -0.11,0.35 -0.35,0.35l-7.31 0c-0.25,0 -0.37,-0.11 -0.37,-0.35l0 -1.47c0,-0.23 0.12,-0.35 0.37,-0.35l2.2 0 0 -16.41 -2.2 0c-0.25,0 -0.37,-0.12 -0.37,-0.35l0 -1.47c0,-0.23 0.12,-0.35 0.37,-0.35l8.9 0c2.07,0 3.74,0.55 5.03,1.63 1.29,1.09 1.94,2.63 1.94,4.61 0,3.03 -1.42,4.92 -4.25,5.67 0.37,0.29 0.82,0.93 1.36,1.93l2.43 4.74 1.76 0c0.23,0 0.35,0.12 0.35,0.35l0 1.47c0,0.24 -0.12,0.35 -0.35,0.35zm-12.46 -10.4l3.7 0c3.28,0 4.92,-1.34 4.92,-4.02 0,-2.77 -1.64,-4.16 -4.92,-4.16l-3.7 0 0 8.18z"/>
  <path id="7" class="fil1" d="M181.71 81.39c0,3.17 -0.95,5.75 -2.85,7.72 -1.9,1.98 -4.29,2.96 -7.17,2.96 -2.88,0 -5.28,-0.99 -7.21,-2.99 -1.92,-1.99 -2.89,-4.56 -2.89,-7.71 0,-3.15 1,-5.68 2.98,-7.58 1.98,-1.89 4.35,-2.84 7.11,-2.84 2.75,0 5.12,0.95 7.08,2.84 1.97,1.9 2.95,4.44 2.95,7.6zm-15.19 6.13c1.48,1.48 3.19,2.21 5.16,2.21 1.96,0 3.68,-0.73 5.14,-2.21 1.47,-1.47 2.2,-3.5 2.2,-6.07 0,-2.57 -0.75,-4.58 -2.24,-6.04 -1.49,-1.45 -3.19,-2.18 -5.1,-2.18 -1.91,0 -3.61,0.73 -5.12,2.18 -1.5,1.46 -2.25,3.47 -2.25,6.04 0,2.57 0.74,4.6 2.21,6.07z"/>
  <path id="8" class="fil1" d="M204 91.87l-1.53 0c-0.25,0 -0.38,-0.11 -0.38,-0.35l0.03 -1.99c-1.69,1.7 -3.95,2.54 -6.78,2.54 -2.82,0 -5.17,-0.98 -7.06,-2.94 -1.89,-1.97 -2.83,-4.55 -2.83,-7.75 0,-2.14 0.47,-4.02 1.43,-5.64 0.95,-1.61 2.16,-2.82 3.64,-3.61 1.47,-0.79 3.07,-1.18 4.78,-1.18 2.95,0 5.07,0.91 6.36,2.74l-0.03 -2.22c-0.04,-0.23 0.08,-0.35 0.35,-0.35l1.61 0c0.26,0 0.38,0.12 0.38,0.35l0 5.95c0,0.23 -0.12,0.35 -0.38,0.35l-1.82 0c-0.23,0 -0.34,-0.12 -0.34,-0.35l0 -0.35c0,-0.84 -0.59,-1.68 -1.75,-2.51 -1.17,-0.83 -2.65,-1.24 -4.47,-1.24 -1.81,0 -3.44,0.74 -4.89,2.24 -1.46,1.49 -2.19,3.48 -2.19,5.98 0,2.49 0.74,4.47 2.2,5.92 1.46,1.46 3.1,2.19 4.91,2.19 1.81,0 3.24,-0.29 4.29,-0.87 1.05,-0.58 1.84,-1.26 2.36,-2.05l0 -2.26 -5.38 0c-0.23,0 -0.34,-0.12 -0.34,-0.37l0 -1.33c0,-0.23 0.11,-0.35 0.34,-0.35l7.49 0c0.23,0 0.35,0.12 0.35,0.35l0 8.75c0,0.24 -0.12,0.35 -0.35,0.35z"/>
  <path id="9" class="fil1" d="M225.66 91.87l-2.52 0c-0.69,0 -1.27,-0.46 -1.73,-1.39l-2.72 -5.52c-0.23,-0.48 -0.48,-0.83 -0.74,-1.07 -0.26,-0.23 -0.62,-0.35 -1.08,-0.37l-3.67 0 0 6.18 2.6 0c0.23,0 0.35,0.12 0.35,0.35l0 1.47c0,0.24 -0.12,0.35 -0.35,0.35l-7.31 0c-0.25,0 -0.38,-0.11 -0.38,-0.35l0 -1.47c0,-0.23 0.13,-0.35 0.38,-0.35l2.19 0 0 -16.41 -2.19 0c-0.25,0 -0.38,-0.12 -0.38,-0.35l0 -1.47c0,-0.23 0.13,-0.35 0.38,-0.35l8.9 0c2.06,0 3.74,0.55 5.03,1.63 1.29,1.09 1.93,2.63 1.93,4.61 0,3.03 -1.41,4.92 -4.24,5.67 0.36,0.29 0.82,0.93 1.35,1.93l2.43 4.74 1.77 0c0.23,0 0.34,0.12 0.34,0.35l0 1.47c0,0.24 -0.11,0.35 -0.34,0.35zm-12.46 -10.4l3.7 0c3.27,0 4.91,-1.34 4.91,-4.02 0,-2.77 -1.64,-4.16 -4.91,-4.16l-3.7 0 0 8.18z"/>
  <path id="10" class="fil1" d="M249.22 91.87l-6.53 0c-0.24,0 -0.35,-0.11 -0.35,-0.35l0 -1.47c0,-0.23 0.11,-0.35 0.35,-0.35l2.02 0 -1.88 -5 -8.06 0 -1.88 5 2.02 0c0.23,0 0.35,0.12 0.35,0.35l0 1.47c0,0.24 -0.12,0.35 -0.35,0.35l-6.5 0c-0.23,0 -0.35,-0.11 -0.35,-0.35l0 -1.47c0,-0.23 0.12,-0.35 0.35,-0.35l1.94 0 6.21 -16.41 -1.56 0c-0.25,0 -0.38,-0.12 -0.38,-0.35l0 -1.47c0,-0.23 0.13,-0.35 0.38,-0.35l3.93 0c0.46,0 0.81,0.1 1.05,0.29 0.24,0.19 0.45,0.51 0.63,0.95l6.64 17.34 1.97 0c0.23,0 0.34,0.12 0.34,0.35l0 1.47c0,0.24 -0.11,0.35 -0.34,0.35zm-7.17 -9.16l-3.21 -8.58 -0.08 0 -3.24 8.58 6.53 0z"/>
  <path id="11" class="fil1" d="M274.89 91.87l-6.68 0c-0.23,0 -0.34,-0.11 -0.34,-0.35l0 -1.47c0,-0.23 0.11,-0.35 0.34,-0.35l1.94 0 0 -14.39 -0.03 0 -5.49 13.64c-0.23,0.58 -0.65,0.87 -1.27,0.87 -0.62,0 -1.04,-0.29 -1.27,-0.87l-5.49 -13.64 -0.06 0 0 14.39 1.94 0c0.25,0 0.37,0.12 0.37,0.35l0 1.47c0,0.24 -0.12,0.35 -0.37,0.35l-6.65 0c-0.25,0 -0.38,-0.11 -0.38,-0.35l0 -1.47c0,-0.23 0.13,-0.35 0.38,-0.35l2.19 0 0 -16.41 -2.19 0c-0.25,0 -0.38,-0.12 -0.38,-0.35l0 -1.47c0,-0.23 0.13,-0.35 0.38,-0.35l4.45 0c0.65,0 1.11,0.33 1.36,0.98l4.3 10.41 1.36 3.64 0.12 0c0.54,-1.5 0.98,-2.7 1.33,-3.58l4.33 -10.47c0.25,-0.65 0.71,-0.98 1.39,-0.98l4.42 0c0.23,0 0.35,0.12 0.35,0.35l0 1.47c0,0.23 -0.12,0.35 -0.35,0.35l-2.22 0 0 16.41 2.22 0c0.23,0 0.35,0.12 0.35,0.35l0 1.47c0,0.24 -0.12,0.35 -0.35,0.35z"/>
  <path class="fil0" d="M18.91 125.64l-6.96 0c-0.24,0 -0.35,-0.11 -0.35,-0.35l0 -1.47c0,-0.23 0.11,-0.35 0.35,-0.35l2.22 0 0 -6.18 -1.15 -2c-2.51,-4.45 -4.12,-7.19 -4.83,-8.23l-1.97 0c-0.25,0 -0.37,-0.12 -0.37,-0.35l0 -1.47c0,-0.23 0.12,-0.35 0.37,-0.35l6.51 0c0.23,0 0.34,0.12 0.34,0.35l0 1.47c0,0.23 -0.11,0.35 -0.34,0.35l-1.91 0 4.54 8.03 0.17 0 4.51 -8.03 -1.91 0c-0.23,0 -0.35,-0.12 -0.35,-0.35l0 -1.47c0,-0.23 0.12,-0.35 0.35,-0.35l6.53 0c0.23,0 0.35,0.12 0.35,0.35l0 1.47c0,0.23 -0.12,0.35 -0.35,0.35l-1.99 0c-0.95,1.39 -2.17,3.43 -3.69,6.12 -1.51,2.7 -2.27,4.06 -2.29,4.08l0 6.21 2.22 0c0.23,0 0.35,0.12 0.35,0.35l0 1.47c0,0.24 -0.12,0.35 -0.35,0.35z"/>
  <path id="1" class="fil0" d="M33.63 100.95c0.24,0.24 0.36,0.53 0.36,0.88 0,0.34 -0.12,0.63 -0.36,0.86 -0.24,0.24 -0.54,0.35 -0.88,0.35 -0.35,0 -0.64,-0.11 -0.87,-0.35 -0.23,-0.23 -0.35,-0.52 -0.35,-0.86 0,-0.35 0.12,-0.64 0.35,-0.88 0.23,-0.24 0.52,-0.37 0.87,-0.37 0.34,0 0.64,0.13 0.88,0.37zm4.56 0c0.24,0.24 0.36,0.53 0.36,0.88 0,0.34 -0.12,0.63 -0.36,0.86 -0.24,0.24 -0.53,0.35 -0.88,0.35 -0.35,0 -0.63,-0.11 -0.87,-0.35 -0.23,-0.23 -0.34,-0.52 -0.34,-0.86 0,-0.35 0.11,-0.64 0.34,-0.88 0.24,-0.24 0.52,-0.37 0.87,-0.37 0.35,0 0.64,0.13 0.88,0.37zm6.9 14.21c0,3.17 -0.95,5.75 -2.85,7.72 -1.9,1.98 -4.29,2.96 -7.17,2.96 -2.88,0 -5.28,-0.99 -7.21,-2.99 -1.93,-1.99 -2.89,-4.56 -2.89,-7.71 0,-3.15 0.99,-5.68 2.98,-7.58 1.98,-1.89 4.35,-2.84 7.11,-2.84 2.75,0 5.11,0.95 7.08,2.84 1.96,1.9 2.95,4.43 2.95,7.6zm-15.19 6.13c1.47,1.47 3.19,2.21 5.16,2.21 1.96,0 3.68,-0.74 5.14,-2.21 1.47,-1.47 2.2,-3.5 2.2,-6.07 0,-2.57 -0.75,-4.58 -2.24,-6.04 -1.5,-1.45 -3.2,-2.18 -5.1,-2.18 -1.91,0 -3.62,0.73 -5.12,2.18 -1.5,1.46 -2.25,3.47 -2.25,6.04 0,2.57 0.73,4.6 2.21,6.07z"/>
  <path id="2" class="fil0" d="M63.49 125.64l-1.56 0c-0.37,0 -0.66,-0.07 -0.87,-0.22 -0.21,-0.14 -0.42,-0.37 -0.61,-0.68l-8.35 -13.06 -1.45 -2.43 -0.05 0 0 14.22 2.22 0c0.25,0 0.38,0.12 0.38,0.35l0 1.47c0,0.24 -0.13,0.35 -0.38,0.35l-6.93 0c-0.25,0 -0.38,-0.11 -0.38,-0.35l0 -1.47c0,-0.23 0.13,-0.35 0.38,-0.35l2.19 0 0 -16.41 -2.19 0c-0.25,0 -0.38,-0.12 -0.38,-0.35l0 -1.47c0,-0.23 0.13,-0.35 0.38,-0.35l4.04 0c0.56,0 1.05,0.33 1.48,0.98l8.23 12.89 1.65 2.81 0.06 0 0 -14.51 -2.23 0c-0.23,0 -0.35,-0.12 -0.35,-0.35l0 -1.47c0,-0.23 0.12,-0.35 0.35,-0.35l6.97 0c0.23,0 0.34,0.12 0.34,0.35l0 1.47c0,0.23 -0.11,0.35 -0.34,0.35l-2.23 0 0 18.23c0,0.24 -0.12,0.35 -0.37,0.35z"/>
  <path id="3" class="fil0" d="M83.5 125.64l-15.34 0c-0.25,0 -0.38,-0.11 -0.38,-0.35l0 -1.47c0,-0.23 0.13,-0.35 0.38,-0.35l2.19 0 0 -16.41 -2.19 0c-0.25,0 -0.38,-0.12 -0.38,-0.35l0 -1.47c0,-0.23 0.13,-0.35 0.38,-0.35l15.34 0c0.25,0 0.38,0.12 0.38,0.35l0 4.65c0,0.25 -0.13,0.38 -0.38,0.38l-1.56 0c-0.23,0 -0.34,-0.13 -0.34,-0.38l0 -2.83 -8.73 0 0 7.17 7.31 0c0.25,0 0.38,0.11 0.38,0.34l0 1.48c0,0.23 -0.13,0.34 -0.38,0.34l-7.31 0 0 7.08 8.7 0 0 -2.83c0,-0.23 0.12,-0.35 0.37,-0.35l1.56 0c0.25,0 0.38,0.12 0.38,0.35l0 4.65c0,0.24 -0.13,0.35 -0.38,0.35z"/>
  <path id="4" class="fil0" d="M98.06 125.64l-6.73 0c-0.25,0 -0.38,-0.12 -0.38,-0.37l0 -1.42c0,-0.25 0.13,-0.38 0.38,-0.38l2.19 0 0 -16.41 -5.46 0 0 3.06c0,0.27 -0.13,0.41 -0.4,0.41l-1.62 0c-0.27,0 -0.41,-0.14 -0.41,-0.41l0 -4.85c0,-0.25 0.14,-0.38 0.41,-0.38l17.42 0c0.27,0 0.41,0.13 0.41,0.38l0 4.85c0,0.27 -0.14,0.41 -0.41,0.41l-1.64 0c-0.25,0 -0.38,-0.14 -0.38,-0.41l0 -3.06 -5.4 0 0 16.41 2.02 0c0.27,0 0.4,0.13 0.4,0.38l0 1.42c0,0.25 -0.13,0.37 -0.4,0.37z"/>
  <path id="5" class="fil0" d="M112.73 125.64l-6.93 0c-0.25,0 -0.38,-0.11 -0.38,-0.35l0 -1.47c0,-0.23 0.13,-0.35 0.38,-0.35l2.19 0 0 -16.41 -2.19 0c-0.25,0 -0.38,-0.12 -0.38,-0.35l0 -1.47c0,-0.23 0.13,-0.35 0.38,-0.35l6.93 0c0.25,0 0.38,0.12 0.38,0.35l0 1.47c0,0.23 -0.13,0.35 -0.38,0.35l-2.22 0 0 16.41 2.22 0c0.25,0 0.38,0.12 0.38,0.35l0 1.47c0,0.24 -0.13,0.35 -0.38,0.35zm-2.37 -25.47c0.29,0.29 0.44,0.66 0.44,1.08 0,0.42 -0.15,0.78 -0.44,1.07 -0.29,0.29 -0.64,0.43 -1.07,0.43 -0.42,0 -0.78,-0.14 -1.07,-0.43 -0.29,-0.29 -0.43,-0.65 -0.43,-1.07 0,-0.42 0.14,-0.79 0.43,-1.08 0.29,-0.3 0.65,-0.45 1.07,-0.45 0.43,0 0.78,0.15 1.07,0.45z"/>
  <path id="6" class="fil0" d="M138.15 125.64l-6.67 0c-0.23,0 -0.35,-0.11 -0.35,-0.35l0 -1.47c0,-0.23 0.12,-0.35 0.35,-0.35l1.93 0 0 -14.39 -0.02 0 -5.5 13.64c-0.23,0.58 -0.65,0.87 -1.27,0.87 -0.61,0 -1.04,-0.29 -1.27,-0.87l-5.49 -13.64 -0.06 0 0 14.39 1.94 0c0.25,0 0.38,0.12 0.38,0.35l0 1.47c0,0.24 -0.13,0.35 -0.38,0.35l-6.65 0c-0.25,0 -0.37,-0.11 -0.37,-0.35l0 -1.47c0,-0.23 0.12,-0.35 0.37,-0.35l2.2 0 0 -16.41 -2.2 0c-0.25,0 -0.37,-0.12 -0.37,-0.35l0 -1.47c0,-0.23 0.12,-0.35 0.37,-0.35l4.45 0c0.66,0 1.11,0.33 1.36,0.98l4.31 10.41 1.36 3.64 0.11 0c0.54,-1.5 0.98,-2.7 1.33,-3.58l4.34 -10.47c0.25,-0.65 0.71,-0.98 1.38,-0.98l4.42 0c0.24,0 0.35,0.12 0.35,0.35l0 1.47c0,0.23 -0.11,0.35 -0.35,0.35l-2.22 0 0 16.41 2.22 0c0.24,0 0.35,0.12 0.35,0.35l0 1.47c0,0.24 -0.11,0.35 -0.35,0.35z"/>
  <path id="7" class="fil0" d="M162.36 125.64l-6.96 0c-0.23,0 -0.35,-0.11 -0.35,-0.35l0 -1.47c0,-0.23 0.12,-0.35 0.35,-0.35l2.22 0 0 -6.18 -1.15 -2c-2.51,-4.45 -4.12,-7.19 -4.83,-8.23l-1.96 0c-0.25,0 -0.38,-0.12 -0.38,-0.35l0 -1.47c0,-0.23 0.13,-0.35 0.38,-0.35l6.5 0c0.23,0 0.35,0.12 0.35,0.35l0 1.47c0,0.23 -0.12,0.35 -0.35,0.35l-1.91 0 4.54 8.03 0.17 0 4.51 -8.03 -1.91 0c-0.23,0 -0.34,-0.12 -0.34,-0.35l0 -1.47c0,-0.23 0.11,-0.35 0.34,-0.35l6.53 0c0.24,0 0.35,0.12 0.35,0.35l0 1.47c0,0.23 -0.11,0.35 -0.35,0.35l-1.99 0c-0.94,1.39 -2.17,3.43 -3.68,6.12 -1.52,2.7 -2.28,4.06 -2.3,4.08l0 6.21 2.22 0c0.23,0 0.35,0.12 0.35,0.35l0 1.47c0,0.24 -0.12,0.35 -0.35,0.35z"/>
  <path id="8" class="fil0" d="M187.15 125.64l-6.53 0c-0.23,0 -0.35,-0.11 -0.35,-0.35l0 -1.47c0,-0.23 0.12,-0.35 0.35,-0.35l2.02 0 -1.88 -5 -8.06 0 -1.88 5 2.02 0c0.24,0 0.35,0.12 0.35,0.35l0 1.47c0,0.24 -0.11,0.35 -0.35,0.35l-6.5 0c-0.23,0 -0.34,-0.11 -0.34,-0.35l0 -1.47c0,-0.23 0.11,-0.35 0.34,-0.35l1.94 0 6.21 -16.41 -1.56 0c-0.25,0 -0.37,-0.12 -0.37,-0.35l0 -1.47c0,-0.23 0.12,-0.35 0.37,-0.35l3.93 0c0.46,0 0.82,0.1 1.06,0.29 0.24,0.19 0.44,0.51 0.62,0.95l6.65 17.34 1.96 0c0.23,0 0.35,0.12 0.35,0.35l0 1.47c0,0.24 -0.12,0.35 -0.35,0.35zm-7.17 -9.16l-3.2 -8.58 -0.09 0 -3.24 8.58 6.53 0z"/>
  <path id="9" class="fil0" d="M203.12 125.64l-14.97 0c-0.27,0 -0.4,-0.12 -0.4,-0.37l0 -1.25c0,-0.19 0.19,-0.52 0.58,-0.98l11.73 -15.98 -9.88 0 0 2.34c0,0.27 -0.14,0.4 -0.41,0.4l-1.62 0c-0.27,0 -0.4,-0.13 -0.4,-0.4l0 -4.13c0,-0.25 0.13,-0.38 0.4,-0.38l14.97 0c0.25,0 0.38,0.13 0.38,0.38l0 1.07c0,0.32 -0.19,0.72 -0.58,1.18l-11.73 15.95 9.91 0 0 -2.34c0,-0.27 0.12,-0.4 0.38,-0.4l1.64 0c0.25,0 0.38,0.13 0.38,0.4l0 4.14c0,0.25 -0.13,0.37 -0.38,0.37z"/>
  <path id="10" class="fil0" d="M212.56 125.64l-6.93 0c-0.25,0 -0.38,-0.11 -0.38,-0.35l0 -1.47c0,-0.23 0.13,-0.35 0.38,-0.35l2.19 0 0 -16.41 -2.19 0c-0.25,0 -0.38,-0.12 -0.38,-0.35l0 -1.47c0,-0.23 0.13,-0.35 0.38,-0.35l6.93 0c0.25,0 0.38,0.12 0.38,0.35l0 1.47c0,0.23 -0.13,0.35 -0.38,0.35l-2.22 0 0 16.41 2.22 0c0.25,0 0.38,0.12 0.38,0.35l0 1.47c0,0.24 -0.13,0.35 -0.38,0.35z"/>
  <path id="11" class="fil0" d="M230.73 125.64l-15.81 0c-0.25,0 -0.37,-0.11 -0.37,-0.35l0 -1.47c0,-0.23 0.12,-0.35 0.37,-0.35l2.2 0 0 -16.41 -2.2 0c-0.25,0 -0.37,-0.12 -0.37,-0.35l0 -1.47c0,-0.23 0.12,-0.35 0.37,-0.35l6.91 0c0.25,0 0.38,0.13 0.38,0.38l0 1.41c0,0.25 -0.13,0.38 -0.38,0.38l-2.2 0 0 16.41 9.19 0 0 -2.83c0,-0.23 0.13,-0.35 0.38,-0.35l1.56 0c0.23,0 0.35,0.12 0.35,0.35l0 4.63c0,0.25 -0.13,0.37 -0.38,0.37z"/>
  <path id="12" class="fil0" d="M239.07 125.64l-6.93 0c-0.25,0 -0.38,-0.11 -0.38,-0.35l0 -1.47c0,-0.23 0.13,-0.35 0.38,-0.35l2.19 0 0 -16.41 -2.19 0c-0.25,0 -0.38,-0.12 -0.38,-0.35l0 -1.47c0,-0.23 0.13,-0.35 0.38,-0.35l6.93 0c0.25,0 0.38,0.12 0.38,0.35l0 1.47c0,0.23 -0.13,0.35 -0.38,0.35l-2.22 0 0 16.41 2.22 0c0.25,0 0.38,0.12 0.38,0.35l0 1.47c0,0.24 -0.13,0.35 -0.38,0.35z"/>
  <path id="13" class="fil0" d="M264.5 125.64l-6.68 0c-0.23,0 -0.35,-0.11 -0.35,-0.35l0 -1.47c0,-0.23 0.12,-0.35 0.35,-0.35l1.94 0 0 -14.39 -0.03 0 -5.49 13.64c-0.23,0.58 -0.66,0.87 -1.27,0.87 -0.62,0 -1.04,-0.29 -1.28,-0.87l-5.49 -13.64 -0.05 0 0 14.39 1.93 0c0.25,0 0.38,0.12 0.38,0.35l0 1.47c0,0.24 -0.13,0.35 -0.38,0.35l-6.65 0c-0.25,0 -0.37,-0.11 -0.37,-0.35l0 -1.47c0,-0.23 0.12,-0.35 0.37,-0.35l2.2 0 0 -16.41 -2.2 0c-0.25,0 -0.37,-0.12 -0.37,-0.35l0 -1.47c0,-0.23 0.12,-0.35 0.37,-0.35l4.45 0c0.66,0 1.11,0.33 1.36,0.98l4.31 10.41 1.36 3.64 0.11 0c0.54,-1.5 0.99,-2.7 1.33,-3.58l4.34 -10.47c0.25,-0.65 0.71,-0.98 1.38,-0.98l4.43 0c0.23,0 0.34,0.12 0.34,0.35l0 1.47c0,0.23 -0.11,0.35 -0.34,0.35l-2.23 0 0 16.41 2.23 0c0.23,0 0.34,0.12 0.34,0.35l0 1.47c0,0.24 -0.11,0.35 -0.34,0.35z"/>
  <path id="14" class="fil0" d="M273.76 125.64l-6.93 0c-0.25,0 -0.38,-0.11 -0.38,-0.35l0 -1.47c0,-0.23 0.13,-0.35 0.38,-0.35l2.19 0 0 -16.41 -2.19 0c-0.25,0 -0.38,-0.12 -0.38,-0.35l0 -1.47c0,-0.23 0.13,-0.35 0.38,-0.35l6.93 0c0.26,0 0.38,0.12 0.38,0.35l0 1.47c0,0.23 -0.12,0.35 -0.38,0.35l-2.22 0 0 16.41 2.22 0c0.26,0 0.38,0.12 0.38,0.35l0 1.47c0,0.24 -0.12,0.35 -0.38,0.35z"/>
 </g>
</svg>
