<?xml version="1.0" encoding="UTF-8"?>
<!DOCTYPE svg PUBLIC "-//W3C//DTD SVG 1.1//EN" "http://www.w3.org/Graphics/SVG/1.1/DTD/svg11.dtd">
<!-- Creator: CorelDRAW 2019 (64-Bit) -->
<svg xmlns="http://www.w3.org/2000/svg" xml:space="preserve" width="580px" height="259px" version="1.1" style="shape-rendering:geometricPrecision; text-rendering:geometricPrecision; image-rendering:optimizeQuality; fill-rule:evenodd; clip-rule:evenodd"
viewBox="0 0 289.26 129.25"
 xmlns:xlink="http://www.w3.org/1999/xlink"
 xmlns:xodm="http://www.corel.com/coreldraw/odm/2003">
 <defs>
  <style type="text/css">
   <![CDATA[
    .fil0 {fill:#2782C3;fill-rule:nonzero}
    .fil1 {fill:#69BED8;fill-rule:nonzero}
   ]]>
  </style>
 </defs>
 <g id="Text">
  <metadata id="CorelCorpID_0Corel-Layer"/>
  <path class="fil0" d="M31.52 46.28c2.64,0 5.06,-0.39 7.23,-1.16 2.18,-0.78 3.79,-1.54 4.85,-2.29l5.53 10.96c-1.35,1.15 -3.66,2.32 -6.92,3.5 -3.27,1.18 -7.15,1.77 -11.64,1.77 -4.21,0 -8.15,-0.73 -11.83,-2.2 -3.69,-1.47 -6.92,-3.54 -9.73,-6.2 -2.81,-2.67 -5.01,-5.79 -6.61,-9.37 -1.59,-3.59 -2.4,-7.47 -2.4,-11.67 0,-4.21 0.79,-8.12 2.37,-11.73 1.59,-3.61 3.79,-6.75 6.6,-9.43 2.8,-2.67 6.05,-4.76 9.75,-6.24 3.7,-1.49 7.64,-2.22 11.85,-2.22 4.49,0 8.37,0.59 11.64,1.77 3.26,1.18 5.57,2.35 6.92,3.5l-5.53 10.96c-1.06,-0.77 -2.67,-1.55 -4.85,-2.31 -2.17,-0.77 -4.59,-1.14 -7.23,-1.14 -2.94,0 -5.5,0.45 -7.69,1.35 -2.19,0.91 -4.01,2.16 -5.48,3.74 -1.47,1.59 -2.56,3.37 -3.28,5.36 -0.72,1.98 -1.08,4.07 -1.08,6.26 0,2.21 0.36,4.31 1.08,6.31 0.72,2 1.81,3.8 3.28,5.39 1.47,1.58 3.29,2.82 5.48,3.72 2.19,0.91 4.75,1.37 7.69,1.37z"/>
  <polygon id="1" class="fil0" points="56.99,1.04 93.38,1.04 93.38,12.35 69.85,12.35 69.85,23.96 93.17,23.96 93.17,34.93 69.85,34.93 69.85,46.71 93.38,46.71 93.38,58.02 56.99,58.02 "/>
  <polygon id="2" class="fil0" points="103.48,1.04 116.39,1.04 116.39,46.71 137.07,46.71 137.07,58.02 103.48,58.02 "/>
  <path id="3" class="fil0" d="M166.21 0c3.54,0 6.64,0.39 9.29,1.17 2.64,0.77 4.77,1.59 6.39,2.46 1.61,0.86 2.59,1.44 2.93,1.72l-6.22 10.41c-0.46,-0.35 -1.23,-0.85 -2.34,-1.51 -1.11,-0.67 -2.42,-1.26 -3.93,-1.77 -1.51,-0.52 -3.09,-0.78 -4.73,-0.78 -2.22,0 -4.01,0.39 -5.37,1.18 -1.37,0.79 -2.06,1.97 -2.06,3.53 0,1.06 0.37,2.01 1.11,2.86 0.73,0.85 1.85,1.65 3.36,2.42 1.52,0.76 3.43,1.59 5.76,2.49 2.13,0.77 4.13,1.69 6,2.76 1.87,1.06 3.53,2.32 4.95,3.77 1.43,1.45 2.55,3.14 3.38,5.04 0.84,1.9 1.26,4.05 1.26,6.47 0,2.88 -0.59,5.37 -1.77,7.49 -1.18,2.11 -2.78,3.87 -4.81,5.25 -2.03,1.38 -4.33,2.4 -6.91,3.08 -2.57,0.67 -5.25,1.02 -8.01,1.02 -3.92,0 -7.41,-0.45 -10.51,-1.34 -3.09,-0.89 -5.6,-1.85 -7.5,-2.89 -1.9,-1.04 -3.03,-1.73 -3.41,-2.07l6.44 -10.84c0.34,0.26 1.02,0.68 2.01,1.25 0.99,0.58 2.2,1.17 3.64,1.79 1.44,0.62 2.98,1.15 4.61,1.58 1.62,0.43 3.22,0.65 4.8,0.65 2.65,0 4.64,-0.52 5.96,-1.54 1.32,-1.02 1.99,-2.36 1.99,-4.03 0,-1.24 -0.42,-2.35 -1.26,-3.33 -0.83,-0.97 -2.08,-1.91 -3.75,-2.79 -1.67,-0.88 -3.76,-1.8 -6.26,-2.78 -2.51,-1 -4.84,-2.23 -7.01,-3.67 -2.17,-1.43 -3.94,-3.23 -5.3,-5.39 -1.35,-2.16 -2.02,-4.84 -2.02,-8.03 0,-3.2 0.9,-5.97 2.7,-8.32 1.8,-2.35 4.17,-4.14 7.12,-5.41 2.95,-1.27 6.11,-1.9 9.47,-1.9z"/>
  <path id="4" class="fil0" d="M226.7 1.04l12.91 0 0 35.01c0,4.69 -0.92,8.75 -2.77,12.19 -1.84,3.44 -4.47,6.1 -7.9,7.98 -3.42,1.89 -7.51,2.84 -12.26,2.84 -4.78,0 -8.89,-0.95 -12.35,-2.84 -3.45,-1.88 -6.08,-4.54 -7.91,-7.98 -1.83,-3.44 -2.75,-7.5 -2.75,-12.19l0 -35.01 12.87 0 0 34.32c0,2.59 0.41,4.78 1.23,6.56 0.82,1.78 1.99,3.12 3.52,4.03 1.52,0.91 3.32,1.37 5.39,1.37 2.05,0 3.82,-0.46 5.31,-1.37 1.5,-0.91 2.66,-2.25 3.48,-4.03 0.83,-1.78 1.23,-3.97 1.23,-6.56l0 -34.32z"/>
  <path id="5" class="fil0" d="M269.48 0c3.54,0 6.64,0.39 9.28,1.17 2.65,0.77 4.78,1.59 6.39,2.46 1.62,0.86 2.59,1.44 2.94,1.72l-6.22 10.41c-0.46,-0.35 -1.24,-0.85 -2.34,-1.51 -1.11,-0.67 -2.42,-1.26 -3.93,-1.77 -1.51,-0.52 -3.1,-0.78 -4.74,-0.78 -2.21,0 -4,0.39 -5.36,1.18 -1.37,0.79 -2.06,1.97 -2.06,3.53 0,1.06 0.37,2.01 1.11,2.86 0.73,0.85 1.85,1.65 3.36,2.42 1.51,0.76 3.43,1.59 5.76,2.49 2.13,0.77 4.13,1.69 6,2.76 1.87,1.06 3.53,2.32 4.95,3.77 1.43,1.45 2.55,3.14 3.38,5.04 0.84,1.9 1.26,4.05 1.26,6.47 0,2.88 -0.59,5.37 -1.77,7.49 -1.18,2.11 -2.78,3.87 -4.81,5.25 -2.03,1.38 -4.33,2.4 -6.91,3.08 -2.58,0.67 -5.25,1.02 -8.02,1.02 -3.91,0 -7.41,-0.45 -10.5,-1.34 -3.09,-0.89 -5.6,-1.85 -7.5,-2.89 -1.9,-1.04 -3.03,-1.73 -3.41,-2.07l6.43 -10.84c0.35,0.26 1.03,0.68 2.02,1.25 0.99,0.58 2.2,1.17 3.64,1.79 1.44,0.62 2.98,1.15 4.6,1.58 1.63,0.43 3.23,0.65 4.81,0.65 2.65,0 4.64,-0.52 5.96,-1.54 1.32,-1.02 1.99,-2.36 1.99,-4.03 0,-1.24 -0.42,-2.35 -1.26,-3.33 -0.83,-0.97 -2.08,-1.91 -3.75,-2.79 -1.67,-0.88 -3.76,-1.8 -6.26,-2.78 -2.51,-1 -4.84,-2.23 -7.01,-3.67 -2.17,-1.43 -3.94,-3.23 -5.3,-5.39 -1.35,-2.16 -2.03,-4.84 -2.03,-8.03 0,-3.2 0.91,-5.97 2.71,-8.32 1.8,-2.35 4.17,-4.14 7.12,-5.41 2.95,-1.27 6.1,-1.9 9.47,-1.9z"/>
  <path class="fil1" d="M25.59 94.15l-2.58 0c-0.71,0 -1.3,-0.47 -1.77,-1.42l-2.79 -5.65c-0.16,-0.32 -0.3,-0.57 -0.43,-0.74 -0.13,-0.18 -0.4,-0.36 -0.83,-0.54 -0.42,-0.18 -0.95,-0.26 -1.58,-0.26l-4.18 0 0 6.39 2.73 0c0.25,0 0.38,0.12 0.38,0.36l0 1.51c0,0.24 -0.13,0.35 -0.38,0.35l-7.56 0c-0.25,0 -0.38,-0.11 -0.38,-0.35l0 -1.51c0,-0.24 0.13,-0.36 0.38,-0.36l2.26 0 0 -16.82 -2.26 0c-0.25,0 -0.38,-0.12 -0.38,-0.36l0 -1.51c0,-0.23 0.13,-0.35 0.38,-0.35l6.64 0c0.24,0 0.35,0.12 0.35,0.35l0 1.51c0,0.24 -0.11,0.36 -0.35,0.36l-1.81 0 0 8.32 3.11 0c2.1,0 3.65,-0.61 4.67,-1.85 1.01,-1.23 1.52,-3.39 1.52,-6.47l-2.01 0c-0.24,0 -0.36,-0.12 -0.36,-0.36l0 -1.51c0,-0.23 0.12,-0.35 0.36,-0.35l6.6 0c0.24,0 0.36,0.12 0.36,0.35l0 1.51c0,0.24 -0.12,0.36 -0.36,0.36l-2.04 0c0,4.76 -1.34,7.87 -4.03,9.33 0.46,0.22 0.81,0.5 1.07,0.84 0.25,0.35 0.55,0.86 0.89,1.53l2.57 5.12 1.81 0c0.24,0 0.36,0.12 0.36,0.36l0 1.51c0,0.24 -0.12,0.35 -0.36,0.35z"/>
  <path id="1" class="fil1" d="M42.12 86.45l0 -11.34 -2.28 0c-0.24,0 -0.36,-0.12 -0.36,-0.36l0 -1.51c0,-0.23 0.12,-0.35 0.36,-0.35l7.14 0c0.23,0 0.35,0.12 0.35,0.35l0 1.51c0,0.24 -0.12,0.36 -0.35,0.36l-2.28 0 0 11.08c0,2.66 -0.7,4.69 -2.09,6.08 -1.39,1.4 -3.36,2.09 -5.9,2.09 -2.53,0 -4.5,-0.69 -5.9,-2.09 -1.41,-1.39 -2.11,-3.42 -2.11,-6.08l0 -11.08 -2.25 0c-0.26,0 -0.38,-0.12 -0.38,-0.36l0 -1.51c0,-0.23 0.12,-0.35 0.38,-0.35l7.11 0c0.26,0 0.38,0.12 0.38,0.35l0 1.51c0,0.24 -0.12,0.36 -0.38,0.36l-2.28 0 0 11.17c0,3.79 1.82,5.68 5.45,5.68 1.85,0 3.22,-0.49 4.09,-1.46 0.87,-0.98 1.3,-2.33 1.3,-4.05z"/>
  <path id="2" class="fil1" d="M64.13 94.15l-16.2 0c-0.26,0 -0.39,-0.11 -0.39,-0.35l0 -1.51c0,-0.24 0.13,-0.36 0.39,-0.36l2.25 0 0 -16.82 -2.25 0c-0.26,0 -0.39,-0.12 -0.39,-0.36l0 -1.51c0,-0.23 0.13,-0.35 0.39,-0.35l7.08 0c0.25,0 0.38,0.13 0.38,0.38l0 1.45c0,0.26 -0.13,0.39 -0.38,0.39l-2.26 0 0 16.82 9.42 0 0 -2.9c0,-0.24 0.13,-0.36 0.39,-0.36l1.6 0c0.23,0 0.35,0.12 0.35,0.36l0 4.74c0,0.26 -0.13,0.38 -0.38,0.38z"/>
  <path id="3" class="fil1" d="M81.01 94.15l-16.2 0c-0.25,0 -0.38,-0.11 -0.38,-0.35l0 -1.51c0,-0.24 0.13,-0.36 0.38,-0.36l2.25 0 0 -16.82 -2.25 0c-0.25,0 -0.38,-0.12 -0.38,-0.36l0 -1.51c0,-0.23 0.13,-0.35 0.38,-0.35l7.08 0c0.26,0 0.39,0.13 0.39,0.38l0 1.45c0,0.26 -0.13,0.39 -0.39,0.39l-2.25 0 0 16.82 9.42 0 0 -2.9c0,-0.24 0.13,-0.36 0.38,-0.36l1.6 0c0.24,0 0.36,0.12 0.36,0.36l0 4.74c0,0.26 -0.13,0.38 -0.39,0.38z"/>
  <path id="4" class="fil1" d="M102.87 94.15l-6.69 0c-0.24,0 -0.36,-0.11 -0.36,-0.35l0 -1.51c0,-0.24 0.12,-0.36 0.36,-0.36l2.07 0 -1.92 -5.12 -8.26 0 -1.93 5.12 2.07 0c0.24,0 0.36,0.12 0.36,0.36l0 1.51c0,0.24 -0.12,0.35 -0.36,0.35l-6.66 0c-0.24,0 -0.36,-0.11 -0.36,-0.35l0 -1.51c0,-0.24 0.12,-0.36 0.36,-0.36l1.98 0 6.37 -16.82 -1.6 0c-0.25,0 -0.38,-0.12 -0.38,-0.36l0 -1.51c0,-0.23 0.13,-0.35 0.38,-0.35l4.03 0c0.47,0 0.83,0.1 1.08,0.29 0.25,0.2 0.46,0.53 0.64,0.98l6.81 17.77 2.01 0c0.24,0 0.36,0.12 0.36,0.36l0 1.51c0,0.24 -0.12,0.35 -0.36,0.35zm-7.34 -9.38l-3.29 -8.8 -0.09 0 -3.31 8.8 6.69 0z"/>
  <path id="5" class="fil1" d="M120.88 94.15l-1.59 0c-0.38,0 -0.68,-0.07 -0.89,-0.22 -0.22,-0.15 -0.43,-0.38 -0.63,-0.69l-8.56 -13.39 -1.48 -2.49 -0.06 0 0 14.57 2.29 0c0.25,0 0.38,0.12 0.38,0.36l0 1.51c0,0.24 -0.13,0.35 -0.38,0.35l-7.11 0c-0.26,0 -0.39,-0.11 -0.39,-0.35l0 -1.51c0,-0.24 0.13,-0.36 0.39,-0.36l2.25 0 0 -16.82 -2.25 0c-0.26,0 -0.39,-0.12 -0.39,-0.36l0 -1.51c0,-0.23 0.13,-0.35 0.39,-0.35l4.14 0c0.58,0 1.08,0.33 1.51,1.01l8.44 13.21 1.69 2.87 0.06 0 0 -14.87 -2.28 0c-0.24,0 -0.35,-0.12 -0.35,-0.36l0 -1.51c0,-0.23 0.11,-0.35 0.35,-0.35l7.14 0c0.24,0 0.36,0.12 0.36,0.35l0 1.51c0,0.24 -0.12,0.36 -0.36,0.36l-2.28 0 0 18.69c0,0.24 -0.13,0.35 -0.39,0.35z"/>
  <path id="6" class="fil1" d="M132.02 94.15l-7.11 0c-0.25,0 -0.38,-0.11 -0.38,-0.35l0 -1.51c0,-0.24 0.13,-0.36 0.38,-0.36l2.26 0 0 -16.82 -2.26 0c-0.25,0 -0.38,-0.12 -0.38,-0.36l0 -1.51c0,-0.23 0.13,-0.35 0.38,-0.35l7.11 0c0.26,0 0.39,0.12 0.39,0.35l0 1.51c0,0.24 -0.13,0.36 -0.39,0.36l-2.28 0 0 16.82 2.28 0c0.26,0 0.39,0.12 0.39,0.36l0 1.51c0,0.24 -0.13,0.35 -0.39,0.35z"/>
  <path id="7" class="fil1" d="M151.69 88.79c0.1,0.08 0.15,0.18 0.15,0.28 0,0.11 -0.04,0.26 -0.13,0.45 -0.09,0.19 -0.24,0.43 -0.45,0.74 -0.2,0.31 -0.58,0.73 -1.11,1.26 -0.53,0.53 -1.11,0.99 -1.75,1.38 -0.63,0.38 -1.46,0.72 -2.5,1.02 -1.03,0.29 -2.15,0.44 -3.33,0.44 -2.88,0 -5.29,-1.01 -7.21,-3.02 -1.93,-2.01 -2.89,-4.65 -2.89,-7.92 0,-3.27 0.97,-5.87 2.92,-7.81 1.94,-1.93 4.29,-2.9 7.03,-2.9 3.06,0 5.28,1.06 6.67,3.17l-0.03 -2.64c-0.04,-0.23 0.07,-0.35 0.35,-0.35l1.66 0c0.26,0 0.39,0.12 0.39,0.35l0 6.46c0,0.26 -0.13,0.39 -0.39,0.39l-1.87 0c-0.23,0 -0.35,-0.13 -0.35,-0.39l0 -0.27c0,-0.9 -0.62,-1.85 -1.85,-2.82 -1.24,-0.98 -2.77,-1.47 -4.61,-1.47 -1.83,0 -3.49,0.72 -4.96,2.18 -1.47,1.45 -2.21,3.5 -2.21,6.16 0,2.65 0.74,4.72 2.23,6.19 1.48,1.47 3.21,2.2 5.21,2.2 2.15,0 3.85,-0.48 5.09,-1.45 0.97,-0.75 1.68,-1.51 2.14,-2.28 0.15,-0.29 0.34,-0.35 0.56,-0.18l1.24 0.83z"/>
  <path id="8" class="fil1" d="M159.81 94.15l-7.11 0c-0.26,0 -0.38,-0.11 -0.38,-0.35l0 -1.51c0,-0.24 0.12,-0.36 0.38,-0.36l2.25 0 0 -16.82 -2.25 0c-0.26,0 -0.38,-0.12 -0.38,-0.36l0 -1.51c0,-0.23 0.12,-0.35 0.38,-0.35l7.11 0c0.26,0 0.39,0.12 0.39,0.35l0 1.51c0,0.24 -0.13,0.36 -0.39,0.36l-2.28 0 0 16.82 2.28 0c0.26,0 0.39,0.12 0.39,0.36l0 1.51c0,0.24 -0.13,0.35 -0.39,0.35z"/>
  <path id="9" class="fil1" d="M187.09 94.15l-16.2 0c-0.26,0 -0.39,-0.11 -0.39,-0.35l0 -1.51c0,-0.24 0.13,-0.36 0.39,-0.36l2.25 0 0 -16.82 -2.25 0c-0.26,0 -0.39,-0.12 -0.39,-0.36l0 -1.51c0,-0.23 0.13,-0.35 0.39,-0.35l7.08 0c0.25,0 0.38,0.13 0.38,0.38l0 1.45c0,0.26 -0.13,0.39 -0.38,0.39l-2.25 0 0 16.82 9.42 0 0 -2.9c0,-0.24 0.12,-0.36 0.38,-0.36l1.6 0c0.24,0 0.36,0.12 0.36,0.36l0 4.74c0,0.26 -0.13,0.38 -0.39,0.38z"/>
  <path id="10" class="fil1" d="M194.88 94.15l-7.11 0c-0.25,0 -0.38,-0.11 -0.38,-0.35l0 -1.51c0,-0.24 0.13,-0.36 0.38,-0.36l2.25 0 0 -16.82 -2.25 0c-0.25,0 -0.38,-0.12 -0.38,-0.36l0 -1.51c0,-0.23 0.13,-0.35 0.38,-0.35l7.11 0c0.26,0 0.39,0.12 0.39,0.35l0 1.51c0,0.24 -0.13,0.36 -0.39,0.36l-2.28 0 0 16.82 2.28 0c0.26,0 0.39,0.12 0.39,0.36l0 1.51c0,0.24 -0.13,0.35 -0.39,0.35zm-2.43 -26.1c0.3,0.3 0.45,0.67 0.45,1.11 0,0.43 -0.15,0.8 -0.45,1.09 -0.29,0.3 -0.66,0.45 -1.09,0.45 -0.44,0 -0.8,-0.15 -1.1,-0.45 -0.29,-0.29 -0.44,-0.66 -0.44,-1.09 0,-0.44 0.15,-0.81 0.44,-1.11 0.3,-0.31 0.66,-0.46 1.1,-0.46 0.43,0 0.8,0.15 1.09,0.46z"/>
  <path id="11" class="fil1" d="M198.35 94.15l-1.66 0c-0.26,0 -0.38,-0.11 -0.38,-0.35l0 -6.93c0,-0.26 0.12,-0.39 0.38,-0.39l1.87 0c0.23,0 0.35,0.13 0.35,0.39l0 0.62c0,0.38 0.23,0.87 0.68,1.5 0.46,0.62 0.91,1.13 1.37,1.52 0.45,0.4 1.06,0.74 1.82,1.02 0.76,0.29 1.58,0.43 2.47,0.43 1.52,0 2.71,-0.31 3.57,-0.95 0.86,-0.63 1.29,-1.51 1.29,-2.63 0,-0.65 -0.24,-1.21 -0.73,-1.67 -0.48,-0.47 -1.11,-0.84 -1.88,-1.12 -0.77,-0.27 -1.62,-0.53 -2.56,-0.77 -0.94,-0.23 -1.88,-0.5 -2.81,-0.81 -0.94,-0.31 -1.8,-0.67 -2.57,-1.1 -0.77,-0.42 -1.39,-1.01 -1.88,-1.77 -0.48,-0.76 -0.72,-1.66 -0.72,-2.68 0,-1.66 0.62,-3.03 1.88,-4.12 1.25,-1.09 2.94,-1.63 5.05,-1.63 2.66,0 4.62,0.78 5.86,2.34l-0.06 -1.84c0,-0.23 0.13,-0.35 0.39,-0.35l1.66 0c0.23,0 0.35,0.12 0.35,0.35l0 6.46c0,0.24 -0.12,0.36 -0.35,0.36l-1.87 0c-0.24,0 -0.35,-0.12 -0.35,-0.36l0 -0.83c0,-0.81 -0.46,-1.63 -1.37,-2.46 -0.91,-0.83 -2.24,-1.24 -4,-1.24 -1.3,0 -2.35,0.31 -3.15,0.93 -0.8,0.62 -1.2,1.42 -1.2,2.39 0,0.69 0.25,1.28 0.74,1.77 0.49,0.5 1.14,0.89 1.93,1.19 0.79,0.29 1.66,0.57 2.6,0.81 0.95,0.25 1.9,0.52 2.85,0.82 0.94,0.29 1.81,0.65 2.6,1.06 0.79,0.42 1.43,0.99 1.93,1.71 0.49,0.72 0.74,1.57 0.74,2.56 0,1.74 -0.62,3.17 -1.87,4.29 -1.24,1.13 -3.1,1.69 -5.57,1.69 -1.81,0 -3.31,-0.36 -4.5,-1.09 -1.18,-0.73 -2.04,-1.52 -2.57,-2.37l0.03 2.9c0,0.24 -0.12,0.35 -0.36,0.35z"/>
  <path id="12" class="fil1" d="M233.75 94.15l-6.7 0c-0.24,0 -0.35,-0.11 -0.35,-0.35l0 -1.51c0,-0.24 0.11,-0.36 0.35,-0.36l2.08 0 -1.93 -5.12 -8.26 0 -1.93 5.12 2.07 0c0.24,0 0.36,0.12 0.36,0.36l0 1.51c0,0.24 -0.12,0.35 -0.36,0.35l-6.66 0c-0.24,0 -0.36,-0.11 -0.36,-0.35l0 -1.51c0,-0.24 0.12,-0.36 0.36,-0.36l1.98 0 6.37 -16.82 -1.6 0c-0.25,0 -0.38,-0.12 -0.38,-0.36l0 -1.51c0,-0.23 0.13,-0.35 0.38,-0.35l4.03 0c0.48,0 0.84,0.1 1.08,0.29 0.25,0.2 0.46,0.53 0.64,0.98l6.81 17.77 2.02 0c0.23,0 0.35,0.12 0.35,0.36l0 1.51c0,0.24 -0.12,0.35 -0.35,0.35zm-7.35 -9.38l-3.29 -8.8 -0.09 0 -3.31 8.8 6.69 0z"/>
  <path id="13" class="fil1" d="M251.76 94.15l-1.6 0c-0.38,0 -0.68,-0.07 -0.89,-0.22 -0.22,-0.15 -0.43,-0.38 -0.62,-0.69l-8.56 -13.39 -1.48 -2.49 -0.06 0 0 14.57 2.28 0c0.25,0 0.38,0.12 0.38,0.36l0 1.51c0,0.24 -0.13,0.35 -0.38,0.35l-7.11 0c-0.26,0 -0.39,-0.11 -0.39,-0.35l0 -1.51c0,-0.24 0.13,-0.36 0.39,-0.36l2.25 0 0 -16.82 -2.25 0c-0.26,0 -0.39,-0.12 -0.39,-0.36l0 -1.51c0,-0.23 0.13,-0.35 0.39,-0.35l4.15 0c0.57,0 1.07,0.33 1.51,1.01l8.44 13.21 1.68 2.87 0.06 0 0 -14.87 -2.28 0c-0.23,0 -0.35,-0.12 -0.35,-0.36l0 -1.51c0,-0.23 0.12,-0.35 0.35,-0.35l7.14 0c0.24,0 0.36,0.12 0.36,0.35l0 1.51c0,0.24 -0.12,0.36 -0.36,0.36l-2.28 0 0 18.69c0,0.24 -0.13,0.35 -0.38,0.35z"/>
  <path id="14" class="fil1" d="M257.77 94.15l-1.66 0c-0.25,0 -0.38,-0.11 -0.38,-0.35l0 -6.93c0,-0.26 0.13,-0.39 0.38,-0.39l1.87 0c0.24,0 0.35,0.13 0.35,0.39l0 0.62c0,0.38 0.23,0.87 0.68,1.5 0.46,0.62 0.91,1.13 1.37,1.52 0.45,0.4 1.06,0.74 1.82,1.02 0.76,0.29 1.58,0.43 2.47,0.43 1.52,0 2.71,-0.31 3.57,-0.95 0.86,-0.63 1.29,-1.51 1.29,-2.63 0,-0.65 -0.24,-1.21 -0.73,-1.67 -0.48,-0.47 -1.11,-0.84 -1.88,-1.12 -0.77,-0.27 -1.62,-0.53 -2.56,-0.77 -0.94,-0.23 -1.88,-0.5 -2.81,-0.81 -0.94,-0.31 -1.79,-0.67 -2.56,-1.1 -0.77,-0.42 -1.4,-1.01 -1.89,-1.77 -0.48,-0.76 -0.72,-1.66 -0.72,-2.68 0,-1.66 0.63,-3.03 1.88,-4.12 1.25,-1.09 2.94,-1.63 5.05,-1.63 2.66,0 4.62,0.78 5.86,2.34l-0.06 -1.84c0,-0.23 0.13,-0.35 0.39,-0.35l1.66 0c0.24,0 0.35,0.12 0.35,0.35l0 6.46c0,0.24 -0.11,0.36 -0.35,0.36l-1.87 0c-0.23,0 -0.35,-0.12 -0.35,-0.36l0 -0.83c0,-0.81 -0.46,-1.63 -1.37,-2.46 -0.9,-0.83 -2.24,-1.24 -3.99,-1.24 -1.31,0 -2.36,0.31 -3.16,0.93 -0.8,0.62 -1.2,1.42 -1.2,2.39 0,0.69 0.25,1.28 0.74,1.77 0.5,0.5 1.14,0.89 1.93,1.19 0.79,0.29 1.66,0.57 2.6,0.81 0.95,0.25 1.9,0.52 2.85,0.82 0.95,0.29 1.81,0.65 2.6,1.06 0.79,0.42 1.44,0.99 1.93,1.71 0.49,0.72 0.74,1.57 0.74,2.56 0,1.74 -0.62,3.17 -1.87,4.29 -1.24,1.13 -3.1,1.69 -5.56,1.69 -1.82,0 -3.32,-0.36 -4.51,-1.09 -1.18,-0.73 -2.04,-1.52 -2.57,-2.37l0.03 2.9c0,0.24 -0.12,0.35 -0.36,0.35z"/>
  <path id="15" class="fil1" d="M280.94 94.15l-7.11 0c-0.26,0 -0.39,-0.11 -0.39,-0.35l0 -1.51c0,-0.24 0.13,-0.36 0.39,-0.36l2.25 0 0 -16.82 -2.25 0c-0.26,0 -0.39,-0.12 -0.39,-0.36l0 -1.51c0,-0.23 0.13,-0.35 0.39,-0.35l7.11 0c0.25,0 0.38,0.12 0.38,0.35l0 1.51c0,0.24 -0.13,0.36 -0.38,0.36l-2.29 0 0 16.82 2.29 0c0.25,0 0.38,0.12 0.38,0.36l0 1.51c0,0.24 -0.13,0.35 -0.38,0.35z"/>
  <path class="fil0" d="M19.77 129.04l-7.14 0c-0.24,0 -0.35,-0.12 -0.35,-0.35l0 -1.51c0,-0.24 0.11,-0.36 0.35,-0.36l2.28 0 0 -6.34 -1.18 -2.04c-2.57,-4.56 -4.22,-7.38 -4.95,-8.44l-2.01 0c-0.26,0 -0.39,-0.12 -0.39,-0.36l0 -1.51c0,-0.24 0.13,-0.35 0.39,-0.35l6.66 0c0.24,0 0.36,0.11 0.36,0.35l0 1.51c0,0.24 -0.12,0.36 -0.36,0.36l-1.95 0 4.65 8.23 0.17 0 4.63 -8.23 -1.96 0c-0.24,0 -0.35,-0.12 -0.35,-0.36l0 -1.51c0,-0.24 0.11,-0.35 0.35,-0.35l6.69 0c0.24,0 0.36,0.11 0.36,0.35l0 1.51c0,0.24 -0.12,0.36 -0.36,0.36l-2.04 0c-0.97,1.42 -2.23,3.51 -3.78,6.28 -1.55,2.76 -2.33,4.15 -2.35,4.17l0 6.37 2.28 0c0.24,0 0.36,0.12 0.36,0.36l0 1.51c0,0.23 -0.12,0.35 -0.36,0.35z"/>
  <path id="1" class="fil0" d="M53.22 103.73c0.25,0.25 0.37,0.55 0.37,0.91 0,0.35 -0.12,0.65 -0.37,0.88 -0.24,0.24 -0.55,0.36 -0.9,0.36 -0.36,0 -0.65,-0.12 -0.89,-0.36 -0.24,-0.23 -0.35,-0.53 -0.35,-0.88 0,-0.36 0.11,-0.66 0.35,-0.91 0.24,-0.24 0.53,-0.37 0.89,-0.37 0.35,0 0.66,0.13 0.9,0.37zm4.68 0c0.25,0.25 0.37,0.55 0.37,0.91 0,0.35 -0.12,0.65 -0.37,0.88 -0.25,0.24 -0.55,0.36 -0.9,0.36 -0.36,0 -0.65,-0.12 -0.89,-0.36 -0.24,-0.23 -0.36,-0.53 -0.36,-0.88 0,-0.36 0.12,-0.66 0.36,-0.91 0.24,-0.24 0.53,-0.37 0.89,-0.37 0.35,0 0.65,0.13 0.9,0.37zm7.07 14.57c0,3.25 -0.98,5.89 -2.92,7.91 -1.95,2.03 -4.4,3.04 -7.35,3.04 -2.95,0 -5.41,-1.02 -7.39,-3.07 -1.97,-2.04 -2.96,-4.68 -2.96,-7.91 0,-3.22 1.02,-5.81 3.05,-7.76 2.04,-1.94 4.46,-2.91 7.29,-2.91 2.82,0 5.24,0.97 7.26,2.91 2.01,1.95 3.02,4.55 3.02,7.79zm-15.57 6.28c1.51,1.51 3.27,2.27 5.29,2.27 2.01,0 3.77,-0.76 5.27,-2.27 1.5,-1.51 2.25,-3.58 2.25,-6.22 0,-2.63 -0.76,-4.7 -2.29,-6.19 -1.53,-1.49 -3.28,-2.23 -5.23,-2.23 -1.96,0 -3.7,0.74 -5.24,2.23 -1.54,1.49 -2.31,3.56 -2.31,6.19 0,2.64 0.75,4.71 2.26,6.22z"/>
  <path id="2" class="fil0" d="M102.19 129.04l-1.59 0c-0.38,0 -0.68,-0.07 -0.89,-0.22 -0.22,-0.15 -0.43,-0.38 -0.63,-0.7l-8.56 -13.38 -1.48 -2.49 -0.06 0 0 14.57 2.29 0c0.25,0 0.38,0.12 0.38,0.36l0 1.51c0,0.23 -0.13,0.35 -0.38,0.35l-7.11 0c-0.26,0 -0.39,-0.12 -0.39,-0.35l0 -1.51c0,-0.24 0.13,-0.36 0.39,-0.36l2.25 0 0 -16.82 -2.25 0c-0.26,0 -0.39,-0.12 -0.39,-0.36l0 -1.51c0,-0.24 0.13,-0.35 0.39,-0.35l4.14 0c0.58,0 1.08,0.33 1.51,1l8.45 13.21 1.68 2.88 0.06 0 0 -14.87 -2.28 0c-0.23,0 -0.35,-0.12 -0.35,-0.36l0 -1.51c0,-0.24 0.12,-0.35 0.35,-0.35l7.14 0c0.24,0 0.36,0.11 0.36,0.35l0 1.51c0,0.24 -0.12,0.36 -0.36,0.36l-2.28 0 0 18.69c0,0.23 -0.13,0.35 -0.39,0.35z"/>
  <path id="3" class="fil0" d="M141.08 129.04l-15.73 0c-0.25,0 -0.38,-0.12 -0.38,-0.35l0 -1.51c0,-0.24 0.13,-0.36 0.38,-0.36l2.25 0 0 -16.82 -2.25 0c-0.25,0 -0.38,-0.12 -0.38,-0.36l0 -1.51c0,-0.24 0.13,-0.35 0.38,-0.35l15.73 0c0.26,0 0.39,0.11 0.39,0.35l0 4.77c0,0.26 -0.13,0.38 -0.39,0.38l-1.6 0c-0.24,0 -0.35,-0.12 -0.35,-0.38l0 -2.9 -8.95 0 0 7.34 7.5 0c0.25,0 0.38,0.12 0.38,0.36l0 1.51c0,0.23 -0.13,0.35 -0.38,0.35l-7.5 0 0 7.26 8.92 0 0 -2.9c0,-0.24 0.13,-0.36 0.38,-0.36l1.6 0c0.26,0 0.39,0.12 0.39,0.36l0 4.77c0,0.23 -0.13,0.35 -0.39,0.35z"/>
  <path id="4" class="fil0" d="M174.37 129.04l-6.9 0c-0.26,0 -0.39,-0.13 -0.39,-0.38l0 -1.45c0,-0.26 0.13,-0.39 0.39,-0.39l2.25 0 0 -16.82 -5.6 0 0 3.14c0,0.27 -0.14,0.41 -0.41,0.41l-1.66 0c-0.28,0 -0.42,-0.14 -0.42,-0.41l0 -4.98c0,-0.26 0.14,-0.38 0.42,-0.38l17.86 0c0.28,0 0.41,0.12 0.41,0.38l0 4.98c0,0.27 -0.13,0.41 -0.41,0.41l-1.69 0c-0.26,0 -0.38,-0.14 -0.38,-0.41l0 -3.14 -5.54 0 0 16.82 2.07 0c0.28,0 0.42,0.13 0.42,0.39l0 1.45c0,0.25 -0.14,0.38 -0.42,0.38z"/>
  <path id="5" class="fil0" d="M207.78 129.04l-7.11 0c-0.26,0 -0.39,-0.12 -0.39,-0.35l0 -1.51c0,-0.24 0.13,-0.36 0.39,-0.36l2.25 0 0 -16.82 -2.25 0c-0.26,0 -0.39,-0.12 -0.39,-0.36l0 -1.51c0,-0.24 0.13,-0.35 0.39,-0.35l7.11 0c0.25,0 0.38,0.11 0.38,0.35l0 1.51c0,0.24 -0.13,0.36 -0.38,0.36l-2.28 0 0 16.82 2.28 0c0.25,0 0.38,0.12 0.38,0.36l0 1.51c0,0.23 -0.13,0.35 -0.38,0.35zm-2.43 -26.11c0.3,0.31 0.44,0.68 0.44,1.11 0,0.44 -0.14,0.8 -0.44,1.1 -0.3,0.3 -0.66,0.44 -1.1,0.44 -0.43,0 -0.8,-0.14 -1.09,-0.44 -0.3,-0.3 -0.45,-0.66 -0.45,-1.1 0,-0.43 0.15,-0.8 0.45,-1.11 0.29,-0.3 0.66,-0.46 1.09,-0.46 0.44,0 0.8,0.16 1.1,0.46z"/>
  <path id="6" class="fil0" d="M252.2 129.04l-6.84 0c-0.24,0 -0.35,-0.12 -0.35,-0.35l0 -1.51c0,-0.24 0.11,-0.36 0.35,-0.36l1.99 0 0 -14.75 -0.03 0 -5.63 13.98c-0.24,0.59 -0.67,0.89 -1.3,0.89 -0.64,0 -1.07,-0.3 -1.31,-0.89l-5.62 -13.98 -0.06 0 0 14.75 1.98 0c0.26,0 0.39,0.12 0.39,0.36l0 1.51c0,0.23 -0.13,0.35 -0.39,0.35l-6.81 0c-0.26,0 -0.39,-0.12 -0.39,-0.35l0 -1.51c0,-0.24 0.13,-0.36 0.39,-0.36l2.25 0 0 -16.82 -2.25 0c-0.26,0 -0.39,-0.12 -0.39,-0.36l0 -1.51c0,-0.24 0.13,-0.35 0.39,-0.35l4.56 0c0.67,0 1.13,0.33 1.39,1l4.41 10.66 1.4 3.74 0.12 0c0.55,-1.54 1,-2.77 1.36,-3.68l4.44 -10.72c0.26,-0.67 0.73,-1 1.42,-1l4.53 0c0.24,0 0.36,0.11 0.36,0.35l0 1.51c0,0.24 -0.12,0.36 -0.36,0.36l-2.28 0 0 16.82 2.28 0c0.24,0 0.36,0.12 0.36,0.36l0 1.51c0,0.23 -0.12,0.35 -0.36,0.35z"/>
  <path id="7" class="fil0" d="M280.07 129.04l-7.11 0c-0.25,0 -0.38,-0.12 -0.38,-0.35l0 -1.51c0,-0.24 0.13,-0.36 0.38,-0.36l2.25 0 0 -16.82 -2.25 0c-0.25,0 -0.38,-0.12 -0.38,-0.36l0 -1.51c0,-0.24 0.13,-0.35 0.38,-0.35l7.11 0c0.26,0 0.39,0.11 0.39,0.35l0 1.51c0,0.24 -0.13,0.36 -0.39,0.36l-2.28 0 0 16.82 2.28 0c0.26,0 0.39,0.12 0.39,0.36l0 1.51c0,0.23 -0.13,0.35 -0.39,0.35zm-2.43 -26.11c0.3,0.31 0.45,0.68 0.45,1.11 0,0.44 -0.15,0.8 -0.45,1.1 -0.29,0.3 -0.66,0.44 -1.09,0.44 -0.44,0 -0.8,-0.14 -1.1,-0.44 -0.29,-0.3 -0.44,-0.66 -0.44,-1.1 0,-0.43 0.15,-0.8 0.44,-1.11 0.3,-0.3 0.66,-0.46 1.1,-0.46 0.43,0 0.8,0.16 1.09,0.46z"/>
 </g>
</svg>
