<?xml version="1.0" encoding="UTF-8"?>
<!DOCTYPE svg PUBLIC "-//W3C//DTD SVG 1.0//EN" "http://www.w3.org/TR/2001/REC-SVG-20010904/DTD/svg10.dtd">
<!-- Creator: CorelDRAW 2019 (64-Bit) -->
<svg xmlns="http://www.w3.org/2000/svg" xml:space="preserve" width="580px" height="259px" version="1.0" style="shape-rendering:geometricPrecision; text-rendering:geometricPrecision; image-rendering:optimizeQuality; fill-rule:evenodd; clip-rule:evenodd"
viewBox="0 0 584.29 261.08"
 xmlns:xlink="http://www.w3.org/1999/xlink"
 xmlns:xodm="http://www.corel.com/coreldraw/odm/2003">
 <defs>
  <style type="text/css">
   <![CDATA[
    .fil0 {fill:#2782C3;fill-rule:nonzero}
    .fil1 {fill:#69BED8;fill-rule:nonzero}
   ]]>
  </style>
 </defs>
 <g id="Text">
  <metadata id="CorelCorpID_0Corel-Layer"/>
  <path class="fil0" d="M63.66 93.49c5.35,0 10.23,-0.79 14.62,-2.36 4.39,-1.57 7.65,-3.11 9.8,-4.62l11.16 22.15c-2.73,2.33 -7.38,4.68 -13.98,7.06 -6.6,2.39 -14.45,3.58 -23.52,3.58 -8.48,0 -16.45,-1.48 -23.89,-4.45 -7.44,-2.96 -13.98,-7.15 -19.65,-12.53 -5.67,-5.37 -10.12,-11.68 -13.35,-18.92 -3.22,-7.24 -4.85,-15.09 -4.85,-23.58 0,-8.48 1.6,-16.39 4.8,-23.69 3.19,-7.29 7.64,-13.63 13.31,-19.04 5.67,-5.4 12.24,-9.62 19.71,-12.61 7.47,-3 15.44,-4.48 23.92,-4.48 9.07,0 16.92,1.19 23.52,3.57 6.6,2.39 11.25,4.74 13.98,7.07l-11.16 22.15c-2.15,-1.57 -5.41,-3.14 -9.8,-4.68 -4.39,-1.54 -9.27,-2.3 -14.62,-2.3 -5.93,0 -11.1,0.9 -15.52,2.74 -4.42,1.83 -8.11,4.36 -11.08,7.55 -2.96,3.2 -5.17,6.81 -6.62,10.82 -1.46,4.01 -2.18,8.22 -2.18,12.64 0,4.48 0.72,8.72 2.18,12.76 1.45,4.05 3.66,7.68 6.62,10.88 2.97,3.19 6.66,5.69 11.08,7.52 4.42,1.84 9.59,2.77 15.52,2.77z"/>
  <polygon id="1" class="fil0" points="115.11,2.09 188.63,2.09 188.63,24.94 141.1,24.94 141.1,48.4 188.19,48.4 188.19,70.55 141.1,70.55 141.1,94.36 188.63,94.36 188.63,117.21 115.11,117.21 "/>
  <polygon id="2" class="fil0" points="209.04,2.09 235.11,2.09 235.11,94.36 276.88,94.36 276.88,117.21 209.04,117.21 "/>
  <path id="3" class="fil0" d="M335.75 0c7.15,0 13.4,0.78 18.75,2.35 5.35,1.57 9.65,3.23 12.91,4.97 3.25,1.75 5.23,2.91 5.93,3.49l-12.56 21.02c-0.93,-0.7 -2.5,-1.71 -4.74,-3.05 -2.24,-1.34 -4.88,-2.53 -7.94,-3.58 -3.05,-1.04 -6.25,-1.57 -9.56,-1.57 -4.48,0 -8.08,0.79 -10.84,2.39 -2.76,1.6 -4.16,3.98 -4.16,7.12 0,2.15 0.76,4.07 2.24,5.78 1.48,1.72 3.75,3.35 6.8,4.89 3.05,1.54 6.92,3.22 11.63,5.03 4.3,1.57 8.34,3.43 12.12,5.58 3.78,2.15 7.12,4.68 10,7.61 2.88,2.94 5.15,6.34 6.83,10.18 1.69,3.84 2.53,8.2 2.53,13.08 0,5.81 -1.19,10.84 -3.57,15.11 -2.39,4.28 -5.62,7.82 -9.71,10.62 -4.1,2.79 -8.75,4.85 -13.96,6.22 -5.2,1.36 -10.61,2.06 -16.19,2.06 -7.91,0 -14.97,-0.9 -21.22,-2.7 -6.25,-1.81 -11.31,-3.75 -15.14,-5.85 -3.84,-2.09 -6.14,-3.49 -6.89,-4.18l12.99 -21.89c0.7,0.52 2.06,1.36 4.07,2.53 2.01,1.16 4.45,2.35 7.35,3.6 2.91,1.25 6.02,2.33 9.31,3.2 3.28,0.87 6.51,1.31 9.71,1.31 5.34,0 9.36,-1.05 12.03,-3.11 2.67,-2.07 4.01,-4.77 4.01,-8.14 0,-2.5 -0.84,-4.74 -2.53,-6.72 -1.68,-1.97 -4.21,-3.86 -7.58,-5.64 -3.38,-1.77 -7.59,-3.63 -12.65,-5.61 -5.06,-2.03 -9.77,-4.5 -14.16,-7.41 -4.39,-2.91 -7.96,-6.54 -10.69,-10.9 -2.74,-4.36 -4.1,-9.77 -4.1,-16.22 0,-6.45 1.83,-12.06 5.46,-16.8 3.64,-4.74 8.43,-8.38 14.39,-10.93 5.96,-2.56 12.33,-3.84 19.13,-3.84z"/>
  <path id="4" class="fil0" d="M457.93 2.09l26.07 0 0 70.73c0,9.47 -1.86,17.67 -5.58,24.62 -3.72,6.95 -9.04,12.33 -15.96,16.13 -6.92,3.81 -15.17,5.73 -24.77,5.73 -9.65,0 -17.96,-1.92 -24.94,-5.73 -6.97,-3.8 -12.29,-9.18 -15.98,-16.13 -3.7,-6.95 -5.56,-15.15 -5.56,-24.62l0 -70.73 25.99 0 0 69.33c0,5.24 0.84,9.65 2.5,13.26 1.66,3.6 4.01,6.31 7.09,8.14 3.09,1.83 6.72,2.76 10.9,2.76 4.13,0 7.71,-0.93 10.73,-2.76 3.03,-1.83 5.38,-4.54 7.04,-8.14 1.65,-3.61 2.47,-8.02 2.47,-13.26l0 -69.33z"/>
  <path id="5" class="fil0" d="M544.35 0c7.15,0 13.4,0.78 18.75,2.35 5.35,1.57 9.65,3.23 12.91,4.97 3.25,1.75 5.23,2.91 5.93,3.49l-12.56 21.02c-0.93,-0.7 -2.5,-1.71 -4.74,-3.05 -2.24,-1.34 -4.88,-2.53 -7.94,-3.58 -3.05,-1.04 -6.24,-1.57 -9.56,-1.57 -4.48,0 -8.08,0.79 -10.84,2.39 -2.76,1.6 -4.16,3.98 -4.16,7.12 0,2.15 0.76,4.07 2.24,5.78 1.48,1.72 3.75,3.35 6.8,4.89 3.05,1.54 6.92,3.22 11.63,5.03 4.3,1.57 8.34,3.43 12.12,5.58 3.78,2.15 7.12,4.68 10,7.61 2.88,2.94 5.15,6.34 6.83,10.18 1.69,3.84 2.53,8.2 2.53,13.08 0,5.81 -1.19,10.84 -3.57,15.11 -2.39,4.28 -5.61,7.82 -9.71,10.62 -4.1,2.79 -8.75,4.85 -13.96,6.22 -5.2,1.36 -10.61,2.06 -16.19,2.06 -7.9,0 -14.97,-0.9 -21.22,-2.7 -6.25,-1.81 -11.31,-3.75 -15.14,-5.85 -3.84,-2.09 -6.14,-3.49 -6.89,-4.18l12.99 -21.89c0.7,0.52 2.06,1.36 4.07,2.53 2.01,1.16 4.45,2.35 7.35,3.6 2.91,1.25 6.02,2.33 9.31,3.2 3.28,0.87 6.51,1.31 9.71,1.31 5.35,0 9.36,-1.05 12.03,-3.11 2.67,-2.07 4.01,-4.77 4.01,-8.14 0,-2.5 -0.84,-4.74 -2.53,-6.72 -1.68,-1.97 -4.21,-3.86 -7.58,-5.64 -3.38,-1.77 -7.59,-3.63 -12.65,-5.61 -5.06,-2.03 -9.77,-4.5 -14.16,-7.41 -4.39,-2.91 -7.96,-6.54 -10.69,-10.9 -2.74,-4.36 -4.1,-9.77 -4.1,-16.22 0,-6.45 1.83,-12.06 5.46,-16.8 3.64,-4.74 8.43,-8.38 14.39,-10.93 5.96,-2.56 12.33,-3.84 19.13,-3.84z"/>
  <path class="fil1" d="M29.92 190.19l-17.17 0c-0.48,0 -0.72,-0.24 -0.72,-0.72l0 -3.05c0,-0.48 0.24,-0.72 0.72,-0.72l4.6 0 0 -33.98 -4.6 0c-0.48,0 -0.72,-0.24 -0.72,-0.72l0 -3.05c0,-0.48 0.24,-0.72 0.72,-0.72l16.15 0c6.62,0 11.89,1.91 15.79,5.72 3.91,3.81 5.87,9.04 5.87,15.7 0,6.66 -1.86,11.92 -5.57,15.77 -3.7,3.85 -8.73,5.77 -15.07,5.77zm-7.36 -4.49l5.92 0c11.09,-0.08 16.63,-5.72 16.63,-16.93 0,-5.38 -1.42,-9.57 -4.27,-12.56 -2.85,-2.99 -7.03,-4.49 -12.54,-4.49l-5.74 0 0 33.98z"/>
  <path id="1" class="fil1" d="M100.85 190.19l-13.52 0c-0.48,0 -0.72,-0.24 -0.72,-0.72l0 -3.05c0,-0.48 0.24,-0.72 0.72,-0.72l4.19 0 -3.89 -10.35 -16.7 0 -3.88 10.35 4.18 0c0.48,0 0.72,0.24 0.72,0.72l0 3.05c0,0.48 -0.24,0.72 -0.72,0.72l-13.46 0c-0.48,0 -0.72,-0.24 -0.72,-0.72l0 -3.05c0,-0.48 0.24,-0.72 0.72,-0.72l4.01 0 12.86 -33.98 -3.23 0c-0.52,0 -0.77,-0.24 -0.77,-0.72l0 -3.05c0,-0.48 0.25,-0.72 0.77,-0.72l8.14 0c0.96,0 1.69,0.2 2.18,0.6 0.5,0.4 0.93,1.06 1.29,1.98l13.76 35.89 4.07 0c0.48,0 0.72,0.24 0.72,0.72l0 3.05c0,0.48 -0.24,0.72 -0.72,0.72zm-14.84 -18.97l-6.64 -17.76 -0.18 0 -6.7 17.76 13.52 0z"/>
  <path id="2" class="fil1" d="M129.96 190.19l-13.94 0c-0.52,0 -0.78,-0.26 -0.78,-0.78l0 -2.93c0,-0.52 0.26,-0.78 0.78,-0.78l4.55 0 0 -33.98 -11.31 0 0 6.34c0,0.56 -0.28,0.84 -0.84,0.84l-3.35 0c-0.56,0 -0.84,-0.28 -0.84,-0.84l0 -10.05c0,-0.52 0.28,-0.78 0.84,-0.78l36.08 0c0.56,0 0.84,0.26 0.84,0.78l0 10.05c0,0.56 -0.28,0.84 -0.84,0.84l-3.41 0c-0.52,0 -0.78,-0.28 -0.78,-0.84l0 -6.34 -11.19 0 0 33.98 4.19 0c0.56,0 0.84,0.26 0.84,0.78l0 2.93c0,0.52 -0.28,0.78 -0.84,0.78z"/>
  <path id="3" class="fil1" d="M187.37 190.19l-31.77 0c-0.52,0 -0.78,-0.24 -0.78,-0.72l0 -3.05c0,-0.48 0.26,-0.72 0.78,-0.72l4.55 0 0 -33.98 -4.55 0c-0.52,0 -0.78,-0.24 -0.78,-0.72l0 -3.05c0,-0.48 0.26,-0.72 0.78,-0.72l31.77 0c0.52,0 0.78,0.24 0.78,0.72l0 9.63c0,0.52 -0.26,0.78 -0.78,0.78l-3.23 0c-0.48,0 -0.72,-0.26 -0.72,-0.78l0 -5.86 -18.07 0 0 14.84 15.14 0c0.52,0 0.78,0.24 0.78,0.72l0 3.05c0,0.48 -0.26,0.71 -0.78,0.71l-15.14 0 0 14.66 18.01 0 0 -5.86c0,-0.48 0.26,-0.72 0.78,-0.72l3.23 0c0.52,0 0.78,0.24 0.78,0.72l0 9.63c0,0.48 -0.26,0.72 -0.78,0.72z"/>
  <path id="4" class="fil1" d="M238.62 190.19l-3.23 0c-0.76,0 -1.36,-0.15 -1.8,-0.45 -0.43,-0.3 -0.85,-0.77 -1.25,-1.4l-17.29 -27.05 -2.99 -5.02 -0.12 0 0 29.43 4.6 0c0.52,0 0.78,0.24 0.78,0.72l0 3.05c0,0.48 -0.26,0.72 -0.78,0.72l-14.36 0c-0.52,0 -0.77,-0.24 -0.77,-0.72l0 -3.05c0,-0.48 0.25,-0.72 0.77,-0.72l4.55 0 0 -33.98 -4.55 0c-0.52,0 -0.77,-0.24 -0.77,-0.72l0 -3.05c0,-0.48 0.25,-0.72 0.77,-0.72l8.38 0c1.16,0 2.17,0.68 3.05,2.04l17.05 26.68 3.41 5.81 0.12 0 0 -30.04 -4.6 0c-0.48,0 -0.72,-0.24 -0.72,-0.72l0 -3.05c0,-0.48 0.24,-0.72 0.72,-0.72l14.41 0c0.48,0 0.72,0.24 0.72,0.72l0 3.05c0,0.48 -0.24,0.72 -0.72,0.72l-4.6 0 0 37.75c0,0.48 -0.26,0.72 -0.78,0.72z"/>
  <path id="5" class="fil1" d="M296.75 190.19l-13.52 0c-0.48,0 -0.72,-0.24 -0.72,-0.72l0 -3.05c0,-0.48 0.24,-0.72 0.72,-0.72l4.18 0 -3.89 -10.35 -16.69 0 -3.89 10.35 4.19 0c0.48,0 0.72,0.24 0.72,0.72l0 3.05c0,0.48 -0.24,0.72 -0.72,0.72l-13.46 0c-0.48,0 -0.72,-0.24 -0.72,-0.72l0 -3.05c0,-0.48 0.24,-0.72 0.72,-0.72l4.01 0 12.86 -33.98 -3.23 0c-0.52,0 -0.78,-0.24 -0.78,-0.72l0 -3.05c0,-0.48 0.26,-0.72 0.78,-0.72l8.14 0c0.96,0 1.68,0.2 2.18,0.6 0.5,0.4 0.93,1.06 1.29,1.98l13.76 35.89 4.07 0c0.48,0 0.72,0.24 0.72,0.72l0 3.05c0,0.48 -0.24,0.72 -0.72,0.72zm-14.84 -18.97l-6.64 -17.76 -0.18 0 -6.7 17.76 13.52 0z"/>
  <path id="6" class="fil1" d="M344.29 190.19l-3.23 0c-0.76,0 -1.36,-0.15 -1.8,-0.45 -0.44,-0.3 -0.86,-0.77 -1.26,-1.4l-17.29 -27.05 -2.99 -5.02 -0.12 0 0 29.43 4.61 0c0.52,0 0.78,0.24 0.78,0.72l0 3.05c0,0.48 -0.26,0.72 -0.78,0.72l-14.36 0c-0.52,0 -0.78,-0.24 -0.78,-0.72l0 -3.05c0,-0.48 0.26,-0.72 0.78,-0.72l4.55 0 0 -33.98 -4.55 0c-0.52,0 -0.78,-0.24 -0.78,-0.72l0 -3.05c0,-0.48 0.26,-0.72 0.78,-0.72l8.38 0c1.15,0 2.17,0.68 3.05,2.04l17.05 26.68 3.41 5.81 0.12 0 0 -30.04 -4.61 0c-0.48,0 -0.72,-0.24 -0.72,-0.72l0 -3.05c0,-0.48 0.24,-0.72 0.72,-0.72l14.42 0c0.48,0 0.72,0.24 0.72,0.72l0 3.05c0,0.48 -0.24,0.72 -0.72,0.72l-4.61 0 0 37.75c0,0.48 -0.26,0.72 -0.77,0.72z"/>
  <path id="7" class="fil1" d="M395.18 190.19l-31 0c-0.55,0 -0.83,-0.26 -0.83,-0.78l0 -2.57c0,-0.4 0.39,-1.08 1.19,-2.03l24.29 -33.09 -20.46 0 0 4.85c0,0.55 -0.28,0.83 -0.84,0.83l-3.35 0c-0.55,0 -0.83,-0.28 -0.83,-0.83l0 -8.56c0,-0.52 0.28,-0.78 0.83,-0.78l31 0c0.51,0 0.77,0.26 0.77,0.78l0 2.21c0,0.68 -0.4,1.5 -1.19,2.46l-24.3 33.02 20.53 0 0 -4.84c0,-0.56 0.26,-0.84 0.77,-0.84l3.42 0c0.51,0 0.77,0.28 0.77,0.84l0 8.55c0,0.52 -0.26,0.78 -0.77,0.78z"/>
  <path id="8" class="fil1" d="M441.76 190.19l-31.77 0c-0.52,0 -0.78,-0.24 -0.78,-0.72l0 -3.05c0,-0.48 0.26,-0.72 0.78,-0.72l4.54 0 0 -33.98 -4.54 0c-0.52,0 -0.78,-0.24 -0.78,-0.72l0 -3.05c0,-0.48 0.26,-0.72 0.78,-0.72l31.77 0c0.51,0 0.77,0.24 0.77,0.72l0 9.63c0,0.52 -0.26,0.78 -0.77,0.78l-3.24 0c-0.47,0 -0.71,-0.26 -0.71,-0.78l0 -5.86 -18.07 0 0 14.84 15.14 0c0.51,0 0.77,0.24 0.77,0.72l0 3.05c0,0.48 -0.26,0.71 -0.77,0.71l-15.14 0 0 14.66 18.01 0 0 -5.86c0,-0.48 0.26,-0.72 0.77,-0.72l3.24 0c0.51,0 0.77,0.24 0.77,0.72l0 9.63c0,0.48 -0.26,0.72 -0.77,0.72z"/>
  <path id="9" class="fil1" d="M470.93 190.19l-14.36 0c-0.52,0 -0.78,-0.24 -0.78,-0.72l0 -3.05c0,-0.48 0.26,-0.72 0.78,-0.72l4.54 0 0 -33.98 -4.54 0c-0.52,0 -0.78,-0.24 -0.78,-0.72l0 -3.05c0,-0.48 0.26,-0.72 0.78,-0.72l14.36 0c0.52,0 0.77,0.24 0.77,0.72l0 3.05c0,0.48 -0.25,0.72 -0.77,0.72l-4.61 0 0 33.98 4.61 0c0.52,0 0.77,0.24 0.77,0.72l0 3.05c0,0.48 -0.25,0.72 -0.77,0.72z"/>
  <path id="10" class="fil1" d="M521.4 190.19l-3.18 0c-0.51,0 -0.77,-0.24 -0.77,-0.72l0.06 -4.13c-3.51,3.51 -8.19,5.27 -14.03,5.27 -5.85,0 -10.72,-2.03 -14.63,-6.1 -3.91,-4.07 -5.86,-9.42 -5.86,-16.04 0,-4.43 0.98,-8.31 2.96,-11.66 1.97,-3.35 4.48,-5.85 7.53,-7.48 3.06,-1.64 6.36,-2.46 9.91,-2.46 6.1,0 10.49,1.9 13.16,5.69l-0.06 -4.61c-0.08,-0.48 0.16,-0.72 0.72,-0.72l3.35 0c0.52,0 0.77,0.24 0.77,0.72l0 12.33c0,0.47 -0.25,0.71 -0.77,0.71l-3.77 0c-0.48,0 -0.72,-0.24 -0.72,-0.71l0 -0.72c0,-1.76 -1.21,-3.49 -3.62,-5.21 -2.41,-1.71 -5.49,-2.57 -9.24,-2.57 -3.75,0 -7.13,1.55 -10.14,4.64 -3.01,3.09 -4.52,7.22 -4.52,12.38 0,5.17 1.52,9.26 4.55,12.27 3.03,3.01 6.42,4.51 10.17,4.51 3.75,0 6.71,-0.59 8.88,-1.79 2.18,-1.2 3.8,-2.61 4.88,-4.25l0 -4.67 -11.13 0c-0.48,0 -0.72,-0.25 -0.72,-0.77l0 -2.76c0,-0.47 0.24,-0.71 0.72,-0.71l15.5 0c0.47,0 0.71,0.24 0.71,0.71l0 18.13c0,0.48 -0.24,0.72 -0.71,0.72z"/>
  <path id="11" class="fil1" d="M568.15 190.19l-31.76 0c-0.52,0 -0.78,-0.24 -0.78,-0.72l0 -3.05c0,-0.48 0.26,-0.72 0.78,-0.72l4.54 0 0 -33.98 -4.54 0c-0.52,0 -0.78,-0.24 -0.78,-0.72l0 -3.05c0,-0.48 0.26,-0.72 0.78,-0.72l31.76 0c0.52,0 0.78,0.24 0.78,0.72l0 9.63c0,0.52 -0.26,0.78 -0.78,0.78l-3.23 0c-0.47,0 -0.71,-0.26 -0.71,-0.78l0 -5.86 -18.07 0 0 14.84 15.14 0c0.51,0 0.77,0.24 0.77,0.72l0 3.05c0,0.48 -0.26,0.71 -0.77,0.71l-15.14 0 0 14.66 18.01 0 0 -5.86c0,-0.48 0.26,-0.72 0.77,-0.72l3.23 0c0.52,0 0.78,0.24 0.78,0.72l0 9.63c0,0.48 -0.26,0.72 -0.78,0.72z"/>
  <path class="fil0" d="M29.64 260.66l-16.51 0c-0.52,0 -0.78,-0.24 -0.78,-0.72l0 -3.05c0,-0.48 0.26,-0.72 0.78,-0.72l4.55 0 0 -33.98 -4.55 0c-0.52,0 -0.78,-0.24 -0.78,-0.72l0 -3.05c0,-0.48 0.26,-0.72 0.78,-0.72l30.69 0c0.52,0 0.78,0.24 0.78,0.72l0 9.63c0,0.52 -0.26,0.78 -0.78,0.78l-3.23 0c-0.47,0 -0.72,-0.26 -0.72,-0.78l0 -5.86 -16.99 0 0 14.84 14.06 0c0.52,0 0.78,0.24 0.78,0.72l0 3.05c0,0.48 -0.26,0.72 -0.78,0.72l-14.06 0 0 14.65 6.76 0c0.48,0 0.72,0.24 0.72,0.72l0 3.05c0,0.48 -0.24,0.72 -0.72,0.72z"/>
  <path id="1" class="fil0" d="M89.86 209.54c0.5,0.5 0.75,1.11 0.75,1.82 0,0.72 -0.25,1.32 -0.75,1.8 -0.49,0.48 -1.1,0.72 -1.82,0.72 -0.72,0 -1.32,-0.24 -1.8,-0.72 -0.47,-0.48 -0.71,-1.08 -0.71,-1.8 0,-0.71 0.24,-1.32 0.71,-1.82 0.48,-0.5 1.08,-0.75 1.8,-0.75 0.72,0 1.33,0.25 1.82,0.75zm9.46 0c0.5,0.5 0.75,1.11 0.75,1.82 0,0.72 -0.25,1.32 -0.75,1.8 -0.5,0.48 -1.11,0.72 -1.83,0.72 -0.71,0 -1.31,-0.24 -1.79,-0.72 -0.48,-0.48 -0.72,-1.08 -0.72,-1.8 0,-0.71 0.24,-1.32 0.72,-1.82 0.48,-0.5 1.08,-0.75 1.79,-0.75 0.72,0 1.33,0.25 1.83,0.75zm4.46 35.57l0 -22.92 -4.61 0c-0.48,0 -0.72,-0.24 -0.72,-0.72l0 -3.05c0,-0.48 0.24,-0.72 0.72,-0.72l14.42 0c0.48,0 0.72,0.24 0.72,0.72l0 3.05c0,0.48 -0.24,0.72 -0.72,0.72l-4.61 0 0 22.38c0,5.38 -1.41,9.48 -4.22,12.29 -2.81,2.81 -6.78,4.22 -11.9,4.22 -5.13,0 -9.11,-1.41 -11.94,-4.22 -2.83,-2.81 -4.25,-6.91 -4.25,-12.29l0 -22.38 -4.54 0c-0.52,0 -0.78,-0.24 -0.78,-0.72l0 -3.05c0,-0.48 0.26,-0.72 0.78,-0.72l14.35 0c0.52,0 0.78,0.24 0.78,0.72l0 3.05c0,0.48 -0.26,0.72 -0.78,0.72l-4.6 0 0 22.56c0,7.65 3.67,11.48 11.01,11.48 3.74,0 6.5,-0.98 8.25,-2.96 1.76,-1.97 2.64,-4.69 2.64,-8.16z"/>
  <path id="2" class="fil0" d="M176.05 260.66l-5.2 0c-1.44,0 -2.64,-0.96 -3.6,-2.87l-5.62 -11.43c-0.48,-0.99 -0.99,-1.73 -1.52,-2.21 -0.54,-0.48 -1.29,-0.74 -2.25,-0.78l-7.6 0 0 12.8 5.39 0c0.48,0 0.72,0.24 0.72,0.72l0 3.05c0,0.48 -0.24,0.72 -0.72,0.72l-15.14 0c-0.52,0 -0.78,-0.24 -0.78,-0.72l0 -3.05c0,-0.48 0.26,-0.72 0.78,-0.72l4.55 0 0 -33.98 -4.55 0c-0.52,0 -0.78,-0.24 -0.78,-0.72l0 -3.05c0,-0.48 0.26,-0.72 0.78,-0.72l18.43 0c4.27,0 7.74,1.13 10.41,3.38 2.67,2.26 4.01,5.44 4.01,9.55 0,6.26 -2.93,10.17 -8.8,11.72 0.76,0.6 1.7,1.94 2.81,4.01l5.03 9.81 3.65 0c0.48,0 0.72,0.24 0.72,0.72l0 3.05c0,0.48 -0.24,0.72 -0.72,0.72zm-25.79 -21.54l7.66 0c6.78,0 10.17,-2.77 10.17,-8.31 0,-5.75 -3.39,-8.62 -10.17,-8.62l-7.66 0 0 16.93z"/>
  <path id="3" class="fil0" d="M240.19 260.66l-17.17 0c-0.48,0 -0.72,-0.24 -0.72,-0.72l0 -3.05c0,-0.48 0.24,-0.72 0.72,-0.72l4.6 0 0 -33.98 -4.6 0c-0.48,0 -0.72,-0.24 -0.72,-0.72l0 -3.05c0,-0.48 0.24,-0.72 0.72,-0.72l16.15 0c6.62,0 11.89,1.91 15.8,5.72 3.9,3.81 5.86,9.04 5.86,15.7 0,6.66 -1.86,11.92 -5.56,15.77 -3.71,3.85 -8.74,5.77 -15.08,5.77zm-7.36 -4.49l5.92 0c11.09,-0.07 16.64,-5.72 16.64,-16.93 0,-5.38 -1.43,-9.57 -4.28,-12.56 -2.85,-2.99 -7.03,-4.49 -12.54,-4.49l-5.74 0 0 33.98z"/>
  <path id="4" class="fil0" d="M322.34 260.66l-5.21 0c-1.43,0 -2.63,-0.96 -3.59,-2.87l-5.62 -11.43c-0.48,-0.99 -0.99,-1.73 -1.53,-2.21 -0.54,-0.48 -1.29,-0.74 -2.24,-0.78l-7.6 0 0 12.8 5.38 0c0.48,0 0.72,0.24 0.72,0.72l0 3.05c0,0.48 -0.24,0.72 -0.72,0.72l-15.13 0c-0.52,0 -0.78,-0.24 -0.78,-0.72l0 -3.05c0,-0.48 0.26,-0.72 0.78,-0.72l4.54 0 0 -33.98 -4.54 0c-0.52,0 -0.78,-0.24 -0.78,-0.72l0 -3.05c0,-0.48 0.26,-0.72 0.78,-0.72l18.42 0c4.27,0 7.74,1.13 10.41,3.38 2.68,2.26 4.01,5.44 4.01,9.55 0,6.26 -2.93,10.17 -8.79,11.72 0.76,0.6 1.69,1.94 2.81,4.01l5.03 9.81 3.65 0c0.47,0 0.71,0.24 0.71,0.72l0 3.05c0,0.48 -0.24,0.72 -0.71,0.72zm-25.79 -21.54l7.66 0c6.78,0 10.17,-2.77 10.17,-8.31 0,-5.75 -3.39,-8.62 -10.17,-8.62l-7.66 0 0 16.93z"/>
  <path id="5" class="fil0" d="M378.46 245.11l0 -22.92 -4.61 0c-0.48,0 -0.72,-0.24 -0.72,-0.72l0 -3.05c0,-0.48 0.24,-0.72 0.72,-0.72l14.42 0c0.48,0 0.72,0.24 0.72,0.72l0 3.05c0,0.48 -0.24,0.72 -0.72,0.72l-4.61 0 0 22.38c0,5.38 -1.4,9.48 -4.22,12.29 -2.81,2.81 -6.78,4.22 -11.9,4.22 -5.13,0 -9.11,-1.41 -11.94,-4.22 -2.83,-2.81 -4.25,-6.91 -4.25,-12.29l0 -22.38 -4.54 0c-0.52,0 -0.78,-0.24 -0.78,-0.72l0 -3.05c0,-0.48 0.26,-0.72 0.78,-0.72l14.36 0c0.52,0 0.77,0.24 0.77,0.72l0 3.05c0,0.48 -0.25,0.72 -0.77,0.72l-4.61 0 0 22.56c0,7.65 3.67,11.48 11.01,11.48 3.75,0 6.5,-0.98 8.25,-2.96 1.76,-1.97 2.64,-4.69 2.64,-8.16z"/>
  <path id="6" class="fil0" d="M430.81 260.66l-15.62 0c-0.51,0 -0.77,-0.24 -0.77,-0.72l0 -3.05c0,-0.48 0.26,-0.72 0.77,-0.72l4.55 0 0 -33.98 -4.55 0c-0.51,0 -0.77,-0.24 -0.77,-0.72l0 -3.05c0,-0.48 0.26,-0.72 0.77,-0.72l18.43 0c4.23,0 7.69,1.23 10.38,3.68 2.69,2.46 4.04,5.77 4.04,9.94 0,4.16 -1.32,7.39 -3.95,9.69 -2.63,2.29 -6.34,3.44 -11.13,3.44l-8.01 0 0 11.72 5.86 0c0.48,0 0.72,0.24 0.72,0.72l0 3.05c0,0.48 -0.24,0.72 -0.72,0.72zm-5.86 -20.46l7.77 0c6.71,0 10.06,-2.95 10.06,-8.85 0,-3.08 -0.95,-5.37 -2.85,-6.88 -1.89,-1.52 -4.27,-2.28 -7.15,-2.28l-7.83 0 0 18.01z"/>
  <path id="7" class="fil0" d="M509.55 260.66l-13.53 0c-0.48,0 -0.71,-0.24 -0.71,-0.72l0 -3.05c0,-0.48 0.23,-0.72 0.71,-0.72l4.19 0 -3.89 -10.35 -16.69 0 -3.89 10.35 4.19 0c0.48,0 0.72,0.24 0.72,0.72l0 3.05c0,0.48 -0.24,0.72 -0.72,0.72l-13.46 0c-0.48,0 -0.72,-0.24 -0.72,-0.72l0 -3.05c0,-0.48 0.24,-0.72 0.72,-0.72l4.01 0 12.86 -33.98 -3.23 0c-0.52,0 -0.78,-0.24 -0.78,-0.72l0 -3.05c0,-0.48 0.26,-0.72 0.78,-0.72l8.14 0c0.95,0 1.68,0.2 2.18,0.6 0.5,0.4 0.93,1.06 1.29,1.98l13.76 35.89 4.07 0c0.47,0 0.71,0.24 0.71,0.72l0 3.05c0,0.48 -0.24,0.72 -0.71,0.72zm-14.84 -18.96l-6.64 -17.77 -0.18 0 -6.7 17.77 13.52 0z"/>
  <path id="8" class="fil0" d="M567.22 260.66l-32.72 0c-0.52,0 -0.78,-0.24 -0.78,-0.72l0 -3.05c0,-0.48 0.26,-0.72 0.78,-0.72l4.54 0 0 -33.98 -4.54 0c-0.52,0 -0.78,-0.24 -0.78,-0.72l0 -3.05c0,-0.48 0.26,-0.72 0.78,-0.72l14.29 0c0.52,0 0.78,0.26 0.78,0.78l0 2.93c0,0.52 -0.26,0.78 -0.78,0.78l-4.54 0 0 33.98 19.02 0 0 -5.86c0,-0.48 0.26,-0.72 0.78,-0.72l3.23 0c0.48,0 0.72,0.24 0.72,0.72l0 9.57c0,0.52 -0.26,0.78 -0.78,0.78z"/>
 </g>
</svg>
